{
classes = (
{
automatic = 1;
code = "A Aacute Abreve Acircumflex Adieresis Agrave Amacron Aogonek Aring Aringacute Atilde AE AEacute B C Cacute Ccaron Ccedilla Ccircumflex Cdotaccent D Eth Dcaron Dcroat E Eacute Ebreve Ecaron Ecircumflex Edieresis Edotaccent Egrave Emacron Eogonek F G Gbreve Gcircumflex Gcommaaccent Gdotaccent H Hbar Hcircumflex I IJ Iacute Ibreve Icircumflex Idieresis Idotaccent Igrave Imacron Iogonek Itilde J Jcircumflex K Kcommaaccent L Lacute Lcaron Lcommaaccent Ldot Lslash M N Nacute Ncaron Ncommaaccent Eng Ntilde O Oacute Obreve Ocircumflex Odieresis Ograve Ohungarumlaut Omacron Oslash Oslashacute Otilde OE P Thorn Q R Racute Rcaron Rcommaaccent S Sacute Scaron Scedilla Scircumflex Scommaaccent T Tbar Tcaron Tcedilla Tcommaaccent U Uacute Ubreve Ucircumflex Udieresis Ugrave Uhungarumlaut Umacron Uogonek Uring Utilde V W Wacute Wcircumflex Wdieresis Wgrave X Y Yacute Ycircumflex Ydieresis Ygrave Z Zacute Zcaron Zdotaccent Delta Omega";
name = Uppercase;
},
{
automatic = 1;
code = "iMatra-deva iMatra-deva.0 iMatra-deva.1 iMatra-deva.10 iMatra-deva.11 iMatra-deva.12 iMatra-deva.13 iMatra-deva.14 iMatra-deva.15 iMatra-deva.16 iMatra-deva.17 iMatra-deva.18 iMatra-deva.19 iMatra-deva.2 iMatra-deva.3 iMatra-deva.4 iMatra-deva.5 iMatra-deva.6 iMatra-deva.7 iMatra-deva.8 iMatra-deva.9";
name = DevaIMatras;
},
{
automatic = 1;
code = "iMatra_reph-deva iMatra_reph-deva.0 iMatra_reph-deva.1 iMatra_reph-deva.10 iMatra_reph-deva.11 iMatra_reph-deva.12 iMatra_reph-deva.13 iMatra_reph-deva.14 iMatra_reph-deva.15 iMatra_reph-deva.16 iMatra_reph-deva.17 iMatra_reph-deva.18 iMatra_reph-deva.19 iMatra_reph-deva.2 iMatra_reph-deva.3 iMatra_reph-deva.4 iMatra_reph-deva.5 iMatra_reph-deva.6 iMatra_reph-deva.7 iMatra_reph-deva.8 iMatra_reph-deva.9";
name = DevaIMatraRephs;
},
{
automatic = 1;

glyphs = (
{
glyphname = A;
layers = (
{
anchors = (
{
name = ogonek;
position = "{435, 9}";
},
{
name = top;
position = "{242, 606}";
}
);
layerId = "F40DB483-8E41-4DD8-98C6-54B37B54EF1F";
name = Regular;
paths = (
{
closed = 1;
nodes = (
"292 606 LINE",
"192 606 LINE",
"-1 0 LINE",
"77 0 LINE",
"118 135 LINE",
"359 135 LINE",
"400 0 LINE",
"484 0 LINE"
);
},
{
closed = 1;
nodes = (
"240 543 LINE",
"240 543 OFFCURVE",
"248 496 OFFCURVE",
"255 476 CURVE SMOOTH",
"337 206 LINE",
"140 206 LINE",
"223 476 LINE SMOOTH",
"229 495 OFFCURVE",
"237 543 OFFCURVE",
"237 543 CURVE"
);
}
);
width = 484;
}
);
unicode = 0041;
},
{
glyphname = Aacute;
layers = (
{
layerId = "F40DB483-8E41-4DD8-98C6-54B37B54EF1F";
name = Regular;
paths = (
{
closed = 1;
nodes = (
"292 606 LINE",
"192 606 LINE",
"-1 0 LINE",
"77 0 LINE",
"118 135 LINE",
"359 135 LINE",
"400 0 LINE",
"484 0 LINE"
);
},
{
closed = 1;
nodes = (
"240 543 LINE",
"240 543 OFFCURVE",
"248 496 OFFCURVE",
"255 476 CURVE SMOOTH",
"337 206 LINE",
"140 206 LINE",
"223 476 LINE SMOOTH",
"229 495 OFFCURVE",
"237 543 OFFCURVE",
"237 543 CURVE"
);
},
{
closed = 1;
nodes = (
"345 781 LINE",
"265 781 LINE",
"189 664 LINE",
"250 664 LINE",
"346 778 LINE"
);
}
);
width = 484;
}
);
unicode = 00C1;
},
{
glyphname = Abreve;
layers = (
{
layerId = "F40DB483-8E41-4DD8-98C6-54B37B54EF1F";
name = Regular;
paths = (
{
closed = 1;
nodes = (
"292 606 LINE",
"192 606 LINE",
"-1 0 LINE",
"77 0 LINE",
"118 135 LINE",
"359 135 LINE",
"400 0 LINE",
"484 0 LINE"
);
},
{
closed = 1;
nodes = (
"240 543 LINE",
"240 543 OFFCURVE",
"248 496 OFFCURVE",
"255 476 CURVE SMOOTH",
"337 206 LINE",
"140 206 LINE",
"223 476 LINE SMOOTH",
"229 495 OFFCURVE",
"237 543 OFFCURVE",
"237 543 CURVE"
);
},
{
closed = 1;
nodes = (
"294 781 LINE",
"293 768 OFFCURVE",
"271 751 OFFCURVE",
"241 751 CURVE SMOOTH",
"212 751 OFFCURVE",
"192 768 OFFCURVE",
"189 781 CURVE",
"133 781 LINE",
"133 741 OFFCURVE",
"174 695 OFFCURVE",
"241 695 CURVE SMOOTH",
"309 695 OFFCURVE",
"351 741 OFFCURVE",
"351 781 CURVE"
);
}
);
width = 484;
}
);
unicode = 0102;
},
{
glyphname = Acircumflex;
layers = (
{
layerId = "F40DB483-8E41-4DD8-98C6-54B37B54EF1F";
name = Regular;
paths = (
{
closed = 1;
nodes = (
"292 606 LINE",
"192 606 LINE",
"-1 0 LINE",
"77 0 LINE",
"118 135 LINE",
"359 135 LINE",
"400 0 LINE",
"484 0 LINE"
);
},
{
closed = 1;
nodes = (
"240 543 LINE",
"240 543 OFFCURVE",
"248 496 OFFCURVE",
"255 476 CURVE SMOOTH",
"337 206 LINE",
"140 206 LINE",
"223 476 LINE SMOOTH",
"229 495 OFFCURVE",
"237 543 OFFCURVE",
"237 543 CURVE"
);
},
{
closed = 1;
nodes = (
"277 780 LINE",
"208 780 LINE",
"132 660 LINE",
"202 660 LINE",
"242 730 LINE",
"281 660 LINE",
"352 660 LINE"
);
}
);
width = 484;
}
);
unicode = 00C2;
},
{
glyphname = Adieresis;
layers = (
{
layerId = "F40DB483-8E41-4DD8-98C6-54B37B54EF1F";
name = Regular;
paths = (
{
closed = 1;
nodes = (
"292 606 LINE",
"192 606 LINE",
"-1 0 LINE",
"77 0 LINE",
"118 135 LINE",
"359 135 LINE",
"400 0 LINE",
"484 0 LINE"
);
},
{
closed = 1;
nodes = (
"240 543 LINE",
"240 543 OFFCURVE",
"248 496 OFFCURVE",
"255 476 CURVE SMOOTH",
"337 206 LINE",
"140 206 LINE",
"223 476 LINE SMOOTH",
"229 495 OFFCURVE",
"237 543 OFFCURVE",
"237 543 CURVE"
);
},
{
closed = 1;
nodes = (
"214 781 LINE",
"137 781 LINE",
"137 697 LINE",
"214 697 LINE"
);
},
{
closed = 1;
nodes = (
"347 781 LINE",
"270 781 LINE",
"270 697 LINE",
"347 697 LINE"
);
}
);
width = 484;
}
);
unicode = 00C4;
},
{
glyphname = Agrave;
layers = (
{
layerId = "F40DB483-8E41-4DD8-98C6-54B37B54EF1F";
name = Regular;
paths = (
{
closed = 1;
nodes = (
"292 606 LINE",
"192 606 LINE",
"-1 0 LINE",
"77 0 LINE",
"118 135 LINE",
"359 135 LINE",
"400 0 LINE",
"484 0 LINE"
);
},
{
closed = 1;
nodes = (
"240 543 LINE",
"240 543 OFFCURVE",
"248 496 OFFCURVE",
"255 476 CURVE SMOOTH",
"337 206 LINE",
"140 206 LINE",
"223 476 LINE SMOOTH",
"229 495 OFFCURVE",
"237 543 OFFCURVE",
"237 543 CURVE"
);
},
{
closed = 1;
nodes = (
"218 781 LINE",
"139 781 LINE",
"138 778 LINE",
"233 664 LINE",
"294 664 LINE"
);
}
);
width = 484;
}
);
unicode = 00C0;
},
{
glyphname = Amacron;
layers = (
{
layerId = "F40DB483-8E41-4DD8-98C6-54B37B54EF1F";
name = Regular;
paths = (
{
closed = 1;
nodes = (
"292 606 LINE",
"192 606 LINE",
"-1 0 LINE",
"77 0 LINE",
"118 135 LINE",
"359 135 LINE",
"400 0 LINE",
"484 0 LINE"
);
},
{
closed = 1;
nodes = (
"240 543 LINE",
"240 543 OFFCURVE",
"248 496 OFFCURVE",
"255 476 CURVE SMOOTH",
"337 206 LINE",
"140 206 LINE",
"223 476 LINE SMOOTH",
"229 495 OFFCURVE",
"237 543 OFFCURVE",
"237 543 CURVE"
);
},
{
closed = 1;
nodes = (
"353 735 LINE",
"131 735 LINE",
"131 671 LINE",
"353 671 LINE"
);
}
);
width = 484;
}
);
unicode = 0100;
},
{
glyphname = Aogonek;
layers = (
{
layerId = "F40DB483-8E41-4DD8-98C6-54B37B54EF1F";
name = Regular;
paths = (
{
closed = 1;
nodes = (
"400 0 LINE",
"484 0 LINE",
"292 606 LINE",
"192 606 LINE",
"-1 0 LINE",
"77 0 LINE",
"118 135 LINE",
"359 135 LINE"
);
},
{
closed = 1;
nodes = (
"240 543 LINE",
"240 543 OFFCURVE",
"248 496 OFFCURVE",
"255 476 CURVE SMOOTH",
"337 206 LINE",
"140 206 LINE",
"223 476 LINE SMOOTH",
"229 495 OFFCURVE",
"237 543 OFFCURVE",
"237 543 CURVE"
);
},
{
closed = 1;
nodes = (
"429 0 LINE",
"412 -21 OFFCURVE",
"394 -41 OFFCURVE",
"394 -81 CURVE SMOOTH",
"394 -142 OFFCURVE",
"439 -161 OFFCURVE",
"477 -161 CURVE SMOOTH",
"495 -161 OFFCURVE",
"513 -156 OFFCURVE",
"531 -149 CURVE",
"531 -103 LINE",
"504 -103 LINE SMOOTH",
"474 -103 OFFCURVE",
"463 -80 OFFCURVE",
"463 -55 CURVE SMOOTH",
"463 -30 OFFCURVE",
"475 -13 OFFCURVE",
"484 0 CURVE"
);
}
);
width = 484;
}
);
unicode = 0104;
},
{
glyphname = Aring;
layers = (
{
layerId = "F40DB483-8E41-4DD8-98C6-54B37B54EF1F";
name = Regular;
paths = (
{
closed = 1;
nodes = (
"292 606 LINE",
"192 606 LINE",
"-1 0 LINE",
"77 0 LINE",
"118 135 LINE",
"359 135 LINE",
"400 0 LINE",
"484 0 LINE"
);
},
{
closed = 1;
nodes = (
"240 543 LINE",
"240 543 OFFCURVE",
"248 496 OFFCURVE",
"255 476 CURVE SMOOTH",
"337 206 LINE",
"140 206 LINE",
"223 476 LINE SMOOTH",
"229 495 OFFCURVE",
"237 543 OFFCURVE",
"237 543 CURVE"
);
},
{
closed = 1;
nodes = (
"194 809 OFFCURVE",
"156 771 OFFCURVE",
"156 724 CURVE SMOOTH",
"156 676 OFFCURVE",
"195 639 OFFCURVE",
"241 639 CURVE SMOOTH",
"289 639 OFFCURVE",
"326 677 OFFCURVE",
"326 724 CURVE SMOOTH",
"326 770 OFFCURVE",
"290 809 OFFCURVE",
"241 809 CURVE SMOOTH"
);
},
{
closed = 1;
nodes = (
"265 769 OFFCURVE",
"286 749 OFFCURVE",
"286 724 CURVE SMOOTH",
"286 699 OFFCURVE",
"265 679 OFFCURVE",
"241 679 CURVE SMOOTH",
"217 679 OFFCURVE",
"196 699 OFFCURVE",
"196 724 CURVE SMOOTH",
"196 749 OFFCURVE",
"217 769 OFFCURVE",
"241 769 CURVE SMOOTH"
);
}
);
width = 484;
}
);
unicode = 00C5;
},
{
glyphname = Aringacute;
layers = (
{
layerId = "F40DB483-8E41-4DD8-98C6-54B37B54EF1F";
name = Regular;
paths = (
{
closed = 1;
nodes = (
"195 726 OFFCURVE",
"157 690 OFFCURVE",
"157 644 CURVE SMOOTH",
"157 620 OFFCURVE",
"168 598 OFFCURVE",
"185 584 CURVE",
"-1 0 LINE",
"77 0 LINE",
"118 135 LINE",
"359 135 LINE",
"400 0 LINE",
"484 0 LINE",
"299 583 LINE",
"316 598 OFFCURVE",
"327 620 OFFCURVE",
"327 644 CURVE SMOOTH",
"327 689 OFFCURVE",
"290 726 OFFCURVE",
"242 726 CURVE SMOOTH"
);
},
{
closed = 1;
nodes = (
"240 543 LINE",
"240 543 OFFCURVE",
"248 496 OFFCURVE",
"255 476 CURVE SMOOTH",
"337 206 LINE",
"140 206 LINE",
"223 476 LINE SMOOTH",
"229 495 OFFCURVE",
"237 543 OFFCURVE",
"237 543 CURVE"
);
},
{
closed = 1;
nodes = (
"358 842 LINE",
"357 846 LINE",
"278 846 LINE",
"215 750 LINE",
"276 750 LINE"
);
},
{
closed = 1;
nodes = (
"266 688 OFFCURVE",
"287 668 OFFCURVE",
"287 644 CURVE SMOOTH",
"287 621 OFFCURVE",
"266 601 OFFCURVE",
"242 601 CURVE SMOOTH",
"217 601 OFFCURVE",
"197 621 OFFCURVE",
"197 644 CURVE SMOOTH",
"197 668 OFFCURVE",
"217 688 OFFCURVE",
"242 688 CURVE SMOOTH"
);
}
);
width = 484;
}
);
unicode = 01FA;
},
{
glyphname = Atilde;
layers = (
{
layerId = "F40DB483-8E41-4DD8-98C6-54B37B54EF1F";
name = Regular;
paths = (
{
closed = 1;
nodes = (
"292 606 LINE",
"192 606 LINE",
"-1 0 LINE",
"77 0 LINE",
"118 135 LINE",
"359 135 LINE",
"400 0 LINE",
"484 0 LINE"
);
},
{
closed = 1;
nodes = (
"240 543 LINE",
"240 543 OFFCURVE",
"248 496 OFFCURVE",
"255 476 CURVE SMOOTH",
"337 206 LINE",
"140 206 LINE",
"223 476 LINE SMOOTH",
"229 495 OFFCURVE",
"237 543 OFFCURVE",
"237 543 CURVE"
);
},
{
closed = 1;
nodes = (
"319 781 LINE",
"316 760 OFFCURVE",
"305 754 OFFCURVE",
"289 754 CURVE SMOOTH",
"255 754 OFFCURVE",
"225 781 OFFCURVE",
"187 781 CURVE SMOOTH",
"134 781 OFFCURVE",
"112 729 OFFCURVE",
"112 689 CURVE",
"164 689 LINE",
"166 709 OFFCURVE",
"178 716 OFFCURVE",
"194 716 CURVE SMOOTH",
"228 716 OFFCURVE",
"257 689 OFFCURVE",
"295 689 CURVE SMOOTH",
"349 689 OFFCURVE",
"370 740 OFFCURVE",
"370 781 CURVE"
);
}
);
width = 484;
}
);
unicode = 00C3;
},
{
glyphname = AE;
layers = (
{
anchors = (
{
name = top;
position = "{362, 606}";
}
);
layerId = "F40DB483-8E41-4DD8-98C6-54B37B54EF1F";
name = Regular;
paths = (
{
closed = 1;
nodes = (
"687 606 LINE",
"247 606 LINE",
"-1 0 LINE",
"77 0 LINE",
"129 135 LINE",
"370 135 LINE",
"400 0 LINE",
"692 0 LINE",
"692 71 LINE",
"468 71 LINE",
"422 275 LINE",
"648 275 LINE",
"648 346 LINE",
"406 346 LINE",
"362 536 LINE",
"687 536 LINE"
);
},
{
closed = 1;
nodes = (
"286 535 LINE",
"289 516 OFFCURVE",
"291 499 OFFCURVE",
"295 480 CURVE SMOOTH",
"355 206 LINE",
"156 206 LINE",
"263 480 LINE SMOOTH",
"271 499 OFFCURVE",
"276 516 OFFCURVE",
"282 535 CURVE"
);
}
);
width = 725;
}
);
unicode = 00C6;
},
{
glyphname = AEacute;
layers = (
{
layerId = "F40DB483-8E41-4DD8-98C6-54B37B54EF1F";
name = Regular;
paths = (
{
closed = 1;
nodes = (
"687 606 LINE",
"247 606 LINE",
"-1 0 LINE",
"77 0 LINE",
"129 135 LINE",
"370 135 LINE",
"400 0 LINE",
"692 0 LINE",
"692 71 LINE",
"468 71 LINE",
"422 275 LINE",
"648 275 LINE",
"648 346 LINE",
"406 346 LINE",
"362 536 LINE",
"687 536 LINE"
);
},
{
closed = 1;
nodes = (
"286 535 LINE",
"289 516 OFFCURVE",
"291 499 OFFCURVE",
"295 480 CURVE SMOOTH",
"355 206 LINE",
"156 206 LINE",
"263 480 LINE SMOOTH",
"271 499 OFFCURVE",
"276 516 OFFCURVE",
"282 535 CURVE"
);
},
{
closed = 1;
nodes = (
"552 781 LINE",
"472 781 LINE",
"396 664 LINE",
"457 664 LINE",
"552 778 LINE"
);
}
);
width = 725;
}
);
unicode = 01FC;
},
{
glyphname = B;
layers = (
{
layerId = "F40DB483-8E41-4DD8-98C6-54B37B54EF1F";
name = Regular;
paths = (
{
closed = 1;
nodes = (
"57 606 LINE",
"57 0 LINE",
"287 0 LINE SMOOTH",
"380 0 OFFCURVE",
"458 59 OFFCURVE",
"458 161 CURVE SMOOTH",
"458 239 OFFCURVE",
"411 296 OFFCURVE",
"351 315 CURVE",
"351 318 LINE",
"403 337 OFFCURVE",
"444 388 OFFCURVE",
"444 458 CURVE SMOOTH",
"444 547 OFFCURVE",
"377 606 OFFCURVE",
"287 606 CURVE SMOOTH"
);
},
{
closed = 1;
nodes = (
"135 275 LINE",
"271 275 LINE SMOOTH",
"336 275 OFFCURVE",
"377 226 OFFCURVE",
"377 171 CURVE SMOOTH",
"377 106 OFFCURVE",
"334 71 OFFCURVE",
"277 71 CURVE SMOOTH",
"135 71 LINE"
);
},
{
closed = 1;
nodes = (
"135 536 LINE",
"270 536 LINE SMOOTH",
"325 536 OFFCURVE",
"362 505 OFFCURVE",
"362 441 CURVE SMOOTH",
"362 390 OFFCURVE",
"324 346 OFFCURVE",
"264 346 CURVE SMOOTH",
"135 346 LINE"
);
}
);
width = 484;
}
);
unicode = 0042;
},
{
glyphname = C;
layers = (
{
anchors = (
{
name = bottom;
position = "{262, 0}";
},
{
name = top;
position = "{262, 606}";
}
);
layerId = "F40DB483-8E41-4DD8-98C6-54B37B54EF1F";
name = Regular;
paths = (
{
closed = 1;
nodes = (
"118 617 OFFCURVE",
"37 514 OFFCURVE",
"37 303 CURVE SMOOTH",
"37 93 OFFCURVE",
"118 -11 OFFCURVE",
"276 -11 CURVE SMOOTH",
"400 -11 OFFCURVE",
"487 61 OFFCURVE",
"487 217 CURVE",
"410 217 LINE",
"410 112 OFFCURVE",
"357 61 OFFCURVE",
"276 61 CURVE SMOOTH",
"170 61 OFFCURVE",
"118 133 OFFCURVE",
"118 281 CURVE SMOOTH",
"118 325 LINE SMOOTH",
"118 473 OFFCURVE",
"170 545 OFFCURVE",
"276 545 CURVE SMOOTH",
"355 545 OFFCURVE",
"408 493 OFFCURVE",
"408 387 CURVE",
"487 387 LINE",
"487 542 OFFCURVE",
"400 617 OFFCURVE",
"276 617 CURVE SMOOTH"
);
}
);
width = 523;
}
);
unicode = 0043;
},
{
glyphname = Cacute;
layers = (
{
layerId = "F40DB483-8E41-4DD8-98C6-54B37B54EF1F";
name = Regular;
paths = (
{
closed = 1;
nodes = (
"118 617 OFFCURVE",
"37 514 OFFCURVE",
"37 303 CURVE SMOOTH",
"37 93 OFFCURVE",
"118 -11 OFFCURVE",
"276 -11 CURVE SMOOTH",
"400 -11 OFFCURVE",
"487 61 OFFCURVE",
"487 217 CURVE",
"410 217 LINE",
"410 112 OFFCURVE",
"357 61 OFFCURVE",
"276 61 CURVE SMOOTH",
"170 61 OFFCURVE",
"118 133 OFFCURVE",
"118 281 CURVE SMOOTH",
"118 325 LINE SMOOTH",
"118 473 OFFCURVE",
"170 545 OFFCURVE",
"276 545 CURVE SMOOTH",
"355 545 OFFCURVE",
"408 493 OFFCURVE",
"408 387 CURVE",
"487 387 LINE",
"487 542 OFFCURVE",
"400 617 OFFCURVE",
"276 617 CURVE SMOOTH"
);
},
{
closed = 1;
nodes = (
"377 781 LINE",
"298 781 LINE",
"222 664 LINE",
"283 664 LINE",
"378 778 LINE"
);
}
);
width = 523;
}
);
unicode = 0106;
},
{
glyphname = Ccaron;
layers = (
{
layerId = "F40DB483-8E41-4DD8-98C6-54B37B54EF1F";
name = Regular;
paths = (
{
closed = 1;
nodes = (
"118 617 OFFCURVE",
"37 514 OFFCURVE",
"37 303 CURVE SMOOTH",
"37 93 OFFCURVE",
"118 -11 OFFCURVE",
"276 -11 CURVE SMOOTH",
"400 -11 OFFCURVE",
"487 61 OFFCURVE",
"487 217 CURVE",
"410 217 LINE",
"410 112 OFFCURVE",
"357 61 OFFCURVE",
"276 61 CURVE SMOOTH",
"170 61 OFFCURVE",
"118 133 OFFCURVE",
"118 281 CURVE SMOOTH",
"118 325 LINE SMOOTH",
"118 473 OFFCURVE",
"170 545 OFFCURVE",
"276 545 CURVE SMOOTH",
"355 545 OFFCURVE",
"408 493 OFFCURVE",
"408 387 CURVE",
"487 387 LINE",
"487 542 OFFCURVE",
"400 617 OFFCURVE",
"276 617 CURVE SMOOTH"
);
},
{
closed = 1;
nodes = (
"295 661 LINE",
"372 781 LINE",
"301 781 LINE",
"262 711 LINE",
"222 781 LINE",
"151 781 LINE",
"226 661 LINE"
);
}
);
width = 523;
}
);
unicode = 010C;
},
{
glyphname = Ccedilla;
layers = (
{
layerId = "F40DB483-8E41-4DD8-98C6-54B37B54EF1F";
name = Regular;
paths = (
{
closed = 1;
nodes = (
"118 617 OFFCURVE",
"37 514 OFFCURVE",
"37 303 CURVE SMOOTH",
"37 115 OFFCURVE",
"102 12 OFFCURVE",
"228 -7 CURVE",
"218 -68 LINE",
"248 -68 LINE SMOOTH",
"271 -68 OFFCURVE",
"278 -75 OFFCURVE",
"278 -89 CURVE SMOOTH",
"278 -106 OFFCURVE",
"265 -111 OFFCURVE",
"246 -111 CURVE SMOOTH",
"179 -111 LINE",
"179 -154 LINE",
"200 -158 OFFCURVE",
"228 -161 OFFCURVE",
"253 -161 CURVE SMOOTH",
"289 -161 OFFCURVE",
"345 -149 OFFCURVE",
"345 -89 CURVE SMOOTH",
"345 -49 OFFCURVE",
"311 -34 OFFCURVE",
"273 -32 CURVE",
"276 -11 LINE",
"400 -11 OFFCURVE",
"487 61 OFFCURVE",
"487 217 CURVE",
"410 217 LINE",
"410 112 OFFCURVE",
"357 61 OFFCURVE",
"276 61 CURVE SMOOTH",
"170 61 OFFCURVE",
"118 133 OFFCURVE",
"118 281 CURVE SMOOTH",
"118 325 LINE SMOOTH",
"118 473 OFFCURVE",
"170 545 OFFCURVE",
"276 545 CURVE SMOOTH",
"355 545 OFFCURVE",
"408 493 OFFCURVE",
"408 387 CURVE",
"487 387 LINE",
"487 542 OFFCURVE",
"400 617 OFFCURVE",
"276 617 CURVE SMOOTH"
);
}
);
width = 523;
}
);
unicode = 00C7;
},
{
glyphname = Ccircumflex;
layers = (
{
layerId = "F40DB483-8E41-4DD8-98C6-54B37B54EF1F";
name = Regular;
paths = (
{
closed = 1;
nodes = (
"118 617 OFFCURVE",
"37 514 OFFCURVE",
"37 303 CURVE SMOOTH",
"37 93 OFFCURVE",
"118 -11 OFFCURVE",
"276 -11 CURVE SMOOTH",
"400 -11 OFFCURVE",
"487 61 OFFCURVE",
"487 217 CURVE",
"410 217 LINE",
"410 112 OFFCURVE",
"357 61 OFFCURVE",
"276 61 CURVE SMOOTH",
"170 61 OFFCURVE",
"118 133 OFFCURVE",
"118 281 CURVE SMOOTH",
"118 325 LINE SMOOTH",
"118 473 OFFCURVE",
"170 545 OFFCURVE",
"276 545 CURVE SMOOTH",
"355 545 OFFCURVE",
"408 493 OFFCURVE",
"408 387 CURVE",
"487 387 LINE",
"487 542 OFFCURVE",
"400 617 OFFCURVE",
"276 617 CURVE SMOOTH"
);
},
{
closed = 1;
nodes = (
"372 660 LINE",
"296 780 LINE",
"227 780 LINE",
"151 660 LINE",
"222 660 LINE",
"263 730 LINE",
"301 660 LINE"
);
}
);
width = 523;
}
);
unicode = 0108;
},
{
glyphname = Cdotaccent;
layers = (
{
layerId = "F40DB483-8E41-4DD8-98C6-54B37B54EF1F";
name = Regular;
paths = (
{
closed = 1;
nodes = (
"118 617 OFFCURVE",
"37 514 OFFCURVE",
"37 303 CURVE SMOOTH",
"37 93 OFFCURVE",
"118 -11 OFFCURVE",
"276 -11 CURVE SMOOTH",
"400 -11 OFFCURVE",
"487 61 OFFCURVE",
"487 217 CURVE",
"410 217 LINE",
"410 112 OFFCURVE",
"357 61 OFFCURVE",
"276 61 CURVE SMOOTH",
"170 61 OFFCURVE",
"118 133 OFFCURVE",
"118 281 CURVE SMOOTH",
"118 325 LINE SMOOTH",
"118 473 OFFCURVE",
"170 545 OFFCURVE",
"276 545 CURVE SMOOTH",
"355 545 OFFCURVE",
"408 493 OFFCURVE",
"408 387 CURVE",
"487 387 LINE",
"487 542 OFFCURVE",
"400 617 OFFCURVE",
"276 617 CURVE SMOOTH"
);
},
{
closed = 1;
nodes = (
"301 697 LINE",
"301 781 LINE",
"223 781 LINE",
"223 697 LINE"
);
}
);
width = 523;
}
);
unicode = 010A;
},
{
glyphname = D;
layers = (
{
anchors = (
{
name = center;
position = "{262, 303}";
},
{
name = top;
position = "{262, 606}";
}
);
layerId = "F40DB483-8E41-4DD8-98C6-54B37B54EF1F";
name = Regular;
paths = (
{
closed = 1;
nodes = (
"62 0 LINE",
"250 0 LINE SMOOTH",
"393 0 OFFCURVE",
"480 104 OFFCURVE",
"480 312 CURVE SMOOTH",
"480 507 OFFCURVE",
"393 606 OFFCURVE",
"250 606 CURVE SMOOTH",
"62 606 LINE"
);
},
{
closed = 1;
nodes = (
"140 536 LINE",
"243 536 LINE SMOOTH",
"339 536 OFFCURVE",
"399 469 OFFCURVE",
"399 334 CURVE SMOOTH",
"399 290 LINE SMOOTH",
"399 142 OFFCURVE",
"339 71 OFFCURVE",
"243 71 CURVE SMOOTH",
"140 71 LINE"
);
}
);
width = 523;
}
);
unicode = 0044;
},
{
glyphname = Eth;
layers = (
{
layerId = "F40DB483-8E41-4DD8-98C6-54B37B54EF1F";
name = Regular;
paths = (
{
closed = 1;
nodes = (
"4 342 LINE",
"4 286 LINE",
"62 286 LINE",
"62 0 LINE",
"250 0 LINE SMOOTH",
"393 0 OFFCURVE",
"480 104 OFFCURVE",
"480 312 CURVE SMOOTH",
"480 507 OFFCURVE",
"393 606 OFFCURVE",
"250 606 CURVE SMOOTH",
"62 606 LINE",
"62 342 LINE"
);
},
{
closed = 1;
nodes = (
"140 536 LINE",
"243 536 LINE SMOOTH",
"339 536 OFFCURVE",
"399 469 OFFCURVE",
"399 334 CURVE SMOOTH",
"399 290 LINE SMOOTH",
"399 142 OFFCURVE",
"339 71 OFFCURVE",
"243 71 CURVE SMOOTH",
"140 71 LINE",
"140 286 LINE",
"278 286 LINE",
"278 342 LINE",
"140 342 LINE"
);
}
);
width = 523;
}
);
unicode = 00D0;
},
{
glyphname = Dcaron;
layers = (
{
layerId = "F40DB483-8E41-4DD8-98C6-54B37B54EF1F";
name = Regular;
paths = (
{
closed = 1;
nodes = (
"295 661 LINE",
"372 781 LINE",
"301 781 LINE",
"262 711 LINE",
"222 781 LINE",
"151 781 LINE",
"226 661 LINE"
);
},
{
closed = 1;
nodes = (
"62 0 LINE",
"250 0 LINE SMOOTH",
"393 0 OFFCURVE",
"480 104 OFFCURVE",
"480 312 CURVE SMOOTH",
"480 507 OFFCURVE",
"393 606 OFFCURVE",
"250 606 CURVE SMOOTH",
"62 606 LINE"
);
},
{
closed = 1;
nodes = (
"140 536 LINE",
"243 536 LINE SMOOTH",
"339 536 OFFCURVE",
"399 469 OFFCURVE",
"399 334 CURVE SMOOTH",
"399 290 LINE SMOOTH",
"399 142 OFFCURVE",
"339 71 OFFCURVE",
"243 71 CURVE SMOOTH",
"140 71 LINE"
);
}
);
width = 523;
}
);
unicode = 010E;
},
{
glyphname = Dcroat;
layers = (
{
layerId = "F40DB483-8E41-4DD8-98C6-54B37B54EF1F";
name = Regular;
paths = (
{
closed = 1;
nodes = (
"4 342 LINE",
"4 286 LINE",
"62 286 LINE",
"62 0 LINE",
"250 0 LINE SMOOTH",
"393 0 OFFCURVE",
"480 104 OFFCURVE",
"480 312 CURVE SMOOTH",
"480 507 OFFCURVE",
"393 606 OFFCURVE",
"250 606 CURVE SMOOTH",
"62 606 LINE",
"62 342 LINE"
);
},
{
closed = 1;
nodes = (
"140 536 LINE",
"243 536 LINE SMOOTH",
"339 536 OFFCURVE",
"399 469 OFFCURVE",
"399 334 CURVE SMOOTH",
"399 290 LINE SMOOTH",
"399 142 OFFCURVE",
"339 71 OFFCURVE",
"243 71 CURVE SMOOTH",
"140 71 LINE",
"140 286 LINE",
"278 286 LINE",
"278 342 LINE",
"140 342 LINE"
);
}
);
width = 523;
}
);
unicode = 0110;
},
{
glyphname = E;
layers = (
{
anchors = (
{
name = bottom;
position = "{242, 0}";
},
{
name = ogonek;
position = "{435, 9}";
},
{
name = top;
position = "{242, 606}";
}
);
layerId = "F40DB483-8E41-4DD8-98C6-54B37B54EF1F";
name = Regular;
paths = (
{
closed = 1;
nodes = (
"62 0 LINE",
"441 0 LINE",
"441 71 LINE",
"140 71 LINE",
"140 275 LINE",
"397 275 LINE",
"397 346 LINE",
"140 346 LINE",
"140 536 LINE",
"436 536 LINE",
"436 606 LINE",
"62 606 LINE"
);
}
);
width = 484;
}
);
unicode = 0045;
},
{
glyphname = Eacute;
layers = (
{
layerId = "F40DB483-8E41-4DD8-98C6-54B37B54EF1F";
name = Regular;
paths = (
{
closed = 1;
nodes = (
"436 606 LINE",
"62 606 LINE",
"62 0 LINE",
"441 0 LINE",
"441 71 LINE",
"140 71 LINE",
"140 275 LINE",
"397 275 LINE",
"397 346 LINE",
"140 346 LINE",
"140 536 LINE",
"436 536 LINE"
);
},
{
closed = 1;
nodes = (
"345 781 LINE",
"265 781 LINE",
"189 664 LINE",
"250 664 LINE",
"346 778 LINE"
);
}
);
width = 484;
}
);
unicode = 00C9;
},
{
glyphname = Ebreve;
layers = (
{
layerId = "F40DB483-8E41-4DD8-98C6-54B37B54EF1F";
name = Regular;
paths = (
{
closed = 1;
nodes = (
"294 781 LINE",
"293 768 OFFCURVE",
"271 751 OFFCURVE",
"241 751 CURVE SMOOTH",
"212 751 OFFCURVE",
"192 768 OFFCURVE",
"189 781 CURVE",
"133 781 LINE",
"133 741 OFFCURVE",
"174 695 OFFCURVE",
"241 695 CURVE SMOOTH",
"309 695 OFFCURVE",
"351 741 OFFCURVE",
"351 781 CURVE"
);
},
{
closed = 1;
nodes = (
"62 0 LINE",
"441 0 LINE",
"441 71 LINE",
"140 71 LINE",
"140 275 LINE",
"397 275 LINE",
"397 346 LINE",
"140 346 LINE",
"140 536 LINE",
"436 536 LINE",
"436 606 LINE",
"62 606 LINE"
);
}
);
width = 484;
}
);
unicode = 0114;
},
{
glyphname = Ecaron;
layers = (
{
layerId = "F40DB483-8E41-4DD8-98C6-54B37B54EF1F";
name = Regular;
paths = (
{
closed = 1;
nodes = (
"276 661 LINE",
"352 781 LINE",
"281 781 LINE",
"241 711 LINE",
"202 781 LINE",
"132 781 LINE",
"207 661 LINE"
);
},
{
closed = 1;
nodes = (
"62 0 LINE",
"441 0 LINE",
"441 71 LINE",
"140 71 LINE",
"140 275 LINE",
"397 275 LINE",
"397 346 LINE",
"140 346 LINE",
"140 536 LINE",
"436 536 LINE",
"436 606 LINE",
"62 606 LINE"
);
}
);
width = 484;
}
);
unicode = 011A;
},
{
glyphname = Ecircumflex;
layers = (
{
layerId = "F40DB483-8E41-4DD8-98C6-54B37B54EF1F";
name = Regular;
paths = (
{
closed = 1;
nodes = (
"352 660 LINE",
"277 780 LINE",
"208 780 LINE",
"132 660 LINE",
"202 660 LINE",
"242 730 LINE",
"281 660 LINE"
);
},
{
closed = 1;
nodes = (
"62 0 LINE",
"441 0 LINE",
"441 71 LINE",
"140 71 LINE",
"140 275 LINE",
"397 275 LINE",
"397 346 LINE",
"140 346 LINE",
"140 536 LINE",
"436 536 LINE",
"436 606 LINE",
"62 606 LINE"
);
}
);
width = 484;
}
);
unicode = 00CA;
},
{
glyphname = Edieresis;
layers = (
{
layerId = "F40DB483-8E41-4DD8-98C6-54B37B54EF1F";
name = Regular;
paths = (
{
closed = 1;
nodes = (
"436 606 LINE",
"62 606 LINE",
"62 0 LINE",
"441 0 LINE",
"441 71 LINE",
"140 71 LINE",
"140 275 LINE",
"397 275 LINE",
"397 346 LINE",
"140 346 LINE",
"140 536 LINE",
"436 536 LINE"
);
},
{
closed = 1;
nodes = (
"214 781 LINE",
"137 781 LINE",
"137 697 LINE",
"214 697 LINE"
);
},
{
closed = 1;
nodes = (
"347 781 LINE",
"270 781 LINE",
"270 697 LINE",
"347 697 LINE"
);
}
);
width = 484;
}
);
unicode = 00CB;
},
{
glyphname = Edotaccent;
layers = (
{
layerId = "F40DB483-8E41-4DD8-98C6-54B37B54EF1F";
name = Regular;
paths = (
{
closed = 1;
nodes = (
"280 697 LINE",
"280 781 LINE",
"203 781 LINE",
"203 697 LINE"
);
},
{
closed = 1;
nodes = (
"62 0 LINE",
"441 0 LINE",
"441 71 LINE",
"140 71 LINE",
"140 275 LINE",
"397 275 LINE",
"397 346 LINE",
"140 346 LINE",
"140 536 LINE",
"436 536 LINE",
"436 606 LINE",
"62 606 LINE"
);
}
);
width = 484;
}
);
unicode = 0116;
},
{
glyphname = Egrave;
layers = (
{
layerId = "F40DB483-8E41-4DD8-98C6-54B37B54EF1F";
name = Regular;
paths = (
{
closed = 1;
nodes = (
"436 606 LINE",
"62 606 LINE",
"62 0 LINE",
"441 0 LINE",
"441 71 LINE",
"140 71 LINE",
"140 275 LINE",
"397 275 LINE",
"397 346 LINE",
"140 346 LINE",
"140 536 LINE",
"436 536 LINE"
);
},
{
closed = 1;
nodes = (
"218 781 LINE",
"139 781 LINE",
"138 778 LINE",
"233 664 LINE",
"294 664 LINE"
);
}
);
width = 484;
}
);
unicode = 00C8;
},
{
glyphname = Emacron;
layers = (
{
layerId = "F40DB483-8E41-4DD8-98C6-54B37B54EF1F";
name = Regular;
paths = (
{
closed = 1;
nodes = (
"353 671 LINE",
"353 735 LINE",
"131 735 LINE",
"131 671 LINE"
);
},
{
closed = 1;
nodes = (
"62 0 LINE",
"441 0 LINE",
"441 71 LINE",
"140 71 LINE",
"140 275 LINE",
"397 275 LINE",
"397 346 LINE",
"140 346 LINE",
"140 536 LINE",
"436 536 LINE",
"436 606 LINE",
"62 606 LINE"
);
}
);
width = 484;
}
);
unicode = 0112;
},
{
glyphname = Eogonek;
layers = (
{
layerId = "F40DB483-8E41-4DD8-98C6-54B37B54EF1F";
name = Regular;
paths = (
{
closed = 1;
nodes = (
"436 536 LINE",
"436 606 LINE",
"62 606 LINE",
"62 0 LINE",
"384 0 LINE",
"365 -20 OFFCURVE",
"351 -44 OFFCURVE",
"351 -81 CURVE SMOOTH",
"351 -142 OFFCURVE",
"396 -161 OFFCURVE",
"434 -161 CURVE SMOOTH",
"452 -161 OFFCURVE",
"469 -156 OFFCURVE",
"488 -149 CURVE",
"488 -103 LINE",
"461 -103 LINE SMOOTH",
"431 -103 OFFCURVE",
"420 -80 OFFCURVE",
"420 -55 CURVE SMOOTH",
"420 -34 OFFCURVE",
"431 -13 OFFCURVE",
"441 0 CURVE",
"441 71 LINE",
"140 71 LINE",
"140 275 LINE",
"397 275 LINE",
"397 346 LINE",
"140 346 LINE",
"140 536 LINE"
);
}
);
width = 484;
}
);
unicode = 0118;
},
{
glyphname = F;
layers = (
{
layerId = "F40DB483-8E41-4DD8-98C6-54B37B54EF1F";
name = Regular;
paths = (
{
closed = 1;
nodes = (
"62 0 LINE",
"140 0 LINE",
"140 269 LINE",
"380 269 LINE",
"380 339 LINE",
"140 339 LINE",
"140 536 LINE",
"412 536 LINE",
"412 606 LINE",
"62 606 LINE"
);
}
);
width = 443;
}
);
unicode = 0046;
},
{
glyphname = G;
layers = (
{
anchors = (
{
name = bottom;
position = "{282, 0}";
},
{
name = top;
position = "{282, 606}";
}
);
layerId = "F40DB483-8E41-4DD8-98C6-54B37B54EF1F";
name = Regular;
paths = (
{
closed = 1;
nodes = (
"135 617 OFFCURVE",
"43 514 OFFCURVE",
"43 303 CURVE SMOOTH",
"43 93 OFFCURVE",
"129 -11 OFFCURVE",
"282 -11 CURVE SMOOTH",
"347 -11 OFFCURVE",
"401 12 OFFCURVE",
"438 67 CURVE",
"455 0 LINE",
"507 0 LINE",
"507 316 LINE",
"270 316 LINE",
"270 248 LINE",
"460 248 LINE",
"427 280 LINE",
"427 233 LINE SMOOTH",
"427 118 OFFCURVE",
"383 61 OFFCURVE",
"282 61 CURVE SMOOTH",
"180 61 OFFCURVE",
"125 133 OFFCURVE",
"125 281 CURVE SMOOTH",
"125 325 LINE SMOOTH",
"125 473 OFFCURVE",
"187 545 OFFCURVE",
"286 545 CURVE SMOOTH",
"370 545 OFFCURVE",
"427 500 OFFCURVE",
"427 400 CURVE",
"507 400 LINE",
"507 546 OFFCURVE",
"413 617 OFFCURVE",
"286 617 CURVE SMOOTH"
);
}
);
width = 564;
}
);
unicode = 0047;
},
{
glyphname = Gbreve;
layers = (
{
layerId = "F40DB483-8E41-4DD8-98C6-54B37B54EF1F";
name = Regular;
paths = (
{
closed = 1;
nodes = (
"335 781 LINE",
"333 768 OFFCURVE",
"312 751 OFFCURVE",
"282 751 CURVE SMOOTH",
"253 751 OFFCURVE",
"232 768 OFFCURVE",
"230 781 CURVE",
"173 781 LINE",
"173 741 OFFCURVE",
"215 695 OFFCURVE",
"282 695 CURVE SMOOTH",
"350 695 OFFCURVE",
"392 741 OFFCURVE",
"392 781 CURVE"
);
},
{
closed = 1;
nodes = (
"135 617 OFFCURVE",
"43 514 OFFCURVE",
"43 303 CURVE SMOOTH",
"43 93 OFFCURVE",
"129 -11 OFFCURVE",
"282 -11 CURVE SMOOTH",
"347 -11 OFFCURVE",
"401 12 OFFCURVE",
"438 67 CURVE",
"455 0 LINE",
"507 0 LINE",
"507 316 LINE",
"270 316 LINE",
"270 248 LINE",
"460 248 LINE",
"427 280 LINE",
"427 233 LINE SMOOTH",
"427 118 OFFCURVE",
"383 61 OFFCURVE",
"282 61 CURVE SMOOTH",
"180 61 OFFCURVE",
"125 133 OFFCURVE",
"125 281 CURVE SMOOTH",
"125 325 LINE SMOOTH",
"125 473 OFFCURVE",
"187 545 OFFCURVE",
"286 545 CURVE SMOOTH",
"370 545 OFFCURVE",
"427 500 OFFCURVE",
"427 400 CURVE",
"507 400 LINE",
"507 546 OFFCURVE",
"413 617 OFFCURVE",
"286 617 CURVE SMOOTH"
);
}
);
width = 564;
}
);
unicode = 011E;
},
{
glyphname = Gcircumflex;
layers = (
{
layerId = "F40DB483-8E41-4DD8-98C6-54B37B54EF1F";
name = Regular;
paths = (
{
closed = 1;
nodes = (
"392 660 LINE",
"317 780 LINE",
"248 780 LINE",
"172 660 LINE",
"243 660 LINE",
"283 730 LINE",
"322 660 LINE"
);
},
{
closed = 1;
nodes = (
"135 617 OFFCURVE",
"43 514 OFFCURVE",
"43 303 CURVE SMOOTH",
"43 93 OFFCURVE",
"129 -11 OFFCURVE",
"282 -11 CURVE SMOOTH",
"347 -11 OFFCURVE",
"401 12 OFFCURVE",
"438 67 CURVE",
"455 0 LINE",
"507 0 LINE",
"507 316 LINE",
"270 316 LINE",
"270 248 LINE",
"460 248 LINE",
"427 280 LINE",
"427 233 LINE SMOOTH",
"427 118 OFFCURVE",
"383 61 OFFCURVE",
"282 61 CURVE SMOOTH",
"180 61 OFFCURVE",
"125 133 OFFCURVE",
"125 281 CURVE SMOOTH",
"125 325 LINE SMOOTH",
"125 473 OFFCURVE",
"187 545 OFFCURVE",
"286 545 CURVE SMOOTH",
"370 545 OFFCURVE",
"427 500 OFFCURVE",
"427 400 CURVE",
"507 400 LINE",
"507 546 OFFCURVE",
"413 617 OFFCURVE",
"286 617 CURVE SMOOTH"
);
}
);
width = 564;
}
);
unicode = 011C;
},
{
glyphname = Gcommaaccent;
layers = (
{
layerId = "F40DB483-8E41-4DD8-98C6-54B37B54EF1F";
name = Regular;
paths = (
{
closed = 1;
nodes = (
"320 -127 LINE",
"320 -53 LINE",
"245 -53 LINE",
"245 -133 LINE",
"275 -133 LINE",
"255 -196 LINE",
"294 -196 LINE"
);
},
{
closed = 1;
nodes = (
"135 617 OFFCURVE",
"43 514 OFFCURVE",
"43 303 CURVE SMOOTH",
"43 93 OFFCURVE",
"129 -11 OFFCURVE",
"282 -11 CURVE SMOOTH",
"347 -11 OFFCURVE",
"401 12 OFFCURVE",
"438 67 CURVE",
"455 0 LINE",
"507 0 LINE",
"507 316 LINE",
"270 316 LINE",
"270 248 LINE",
"460 248 LINE",
"427 280 LINE",
"427 233 LINE SMOOTH",
"427 118 OFFCURVE",
"383 61 OFFCURVE",
"282 61 CURVE SMOOTH",
"180 61 OFFCURVE",
"125 133 OFFCURVE",
"125 281 CURVE SMOOTH",
"125 325 LINE SMOOTH",
"125 473 OFFCURVE",
"187 545 OFFCURVE",
"286 545 CURVE SMOOTH",
"370 545 OFFCURVE",
"427 500 OFFCURVE",
"427 400 CURVE",
"507 400 LINE",
"507 546 OFFCURVE",
"413 617 OFFCURVE",
"286 617 CURVE SMOOTH"
);
}
);
width = 564;
}
);
unicode = 0122;
},
{
glyphname = Gdotaccent;
layers = (
{
layerId = "F40DB483-8E41-4DD8-98C6-54B37B54EF1F";
name = Regular;
paths = (
{
closed = 1;
nodes = (
"321 697 LINE",
"321 781 LINE",
"244 781 LINE",
"244 697 LINE"
);
},
{
closed = 1;
nodes = (
"135 617 OFFCURVE",
"43 514 OFFCURVE",
"43 303 CURVE SMOOTH",
"43 93 OFFCURVE",
"129 -11 OFFCURVE",
"282 -11 CURVE SMOOTH",
"347 -11 OFFCURVE",
"401 12 OFFCURVE",
"438 67 CURVE",
"455 0 LINE",
"507 0 LINE",
"507 316 LINE",
"270 316 LINE",
"270 248 LINE",
"460 248 LINE",
"427 280 LINE",
"427 233 LINE SMOOTH",
"427 118 OFFCURVE",
"383 61 OFFCURVE",
"282 61 CURVE SMOOTH",
"180 61 OFFCURVE",
"125 133 OFFCURVE",
"125 281 CURVE SMOOTH",
"125 325 LINE SMOOTH",
"125 473 OFFCURVE",
"187 545 OFFCURVE",
"286 545 CURVE SMOOTH",
"370 545 OFFCURVE",
"427 500 OFFCURVE",
"427 400 CURVE",
"507 400 LINE",
"507 546 OFFCURVE",
"413 617 OFFCURVE",
"286 617 CURVE SMOOTH"
);
}
);
width = 564;
}
);
unicode = 0120;
},
{
glyphname = H;
layers = (
{
anchors = (
{
name = center;
position = "{262, 303}";
},
{
name = top;
position = "{262, 606}";
}
);
layerId = "F40DB483-8E41-4DD8-98C6-54B37B54EF1F";
name = Regular;
paths = (
{
closed = 1;
nodes = (
"461 606 LINE",
"384 606 LINE",
"384 346 LINE",
"140 346 LINE",
"140 606 LINE",
"62 606 LINE",
"62 0 LINE",
"140 0 LINE",
"140 275 LINE",
"384 275 LINE",
"384 0 LINE",
"461 0 LINE"
);
}
);
width = 523;
}
);
unicode = 0048;
},
{
glyphname = Hbar;
layers = (
{
layerId = "F40DB483-8E41-4DD8-98C6-54B37B54EF1F";
name = Regular;
paths = (
{
closed = 1;
nodes = (
"506 433 LINE",
"506 497 LINE",
"461 497 LINE",
"461 606 LINE",
"384 606 LINE",
"384 497 LINE",
"140 497 LINE",
"140 606 LINE",
"62 606 LINE",
"62 497 LINE",
"18 497 LINE",
"18 433 LINE",
"62 433 LINE",
"62 0 LINE",
"140 0 LINE",
"140 271 LINE",
"384 271 LINE",
"384 0 LINE",
"461 0 LINE",
"461 433 LINE"
);
},
{
closed = 1;
nodes = (
"384 341 LINE",
"140 341 LINE",
"140 433 LINE",
"384 433 LINE"
);
}
);
width = 523;
}
);
unicode = 0126;
},
{
glyphname = Hcircumflex;
layers = (
{
layerId = "F40DB483-8E41-4DD8-98C6-54B37B54EF1F";
name = Regular;
paths = (
{
closed = 1;
nodes = (
"461 606 LINE",
"384 606 LINE",
"384 346 LINE",
"140 346 LINE",
"140 606 LINE",
"62 606 LINE",
"62 0 LINE",
"140 0 LINE",
"140 275 LINE",
"384 275 LINE",
"384 0 LINE",
"461 0 LINE"
);
},
{
closed = 1;
nodes = (
"296 780 LINE",
"227 780 LINE",
"151 660 LINE",
"222 660 LINE",
"263 730 LINE",
"301 660 LINE",
"372 660 LINE"
);
}
);
width = 523;
}
);
unicode = 0124;
},
{
glyphname = I;
layers = (
{
anchors = (
{
name = ogonek;
position = "{181, 9}";
},
{
name = top;
position = "{101, 606}";
}
);
layerId = "F40DB483-8E41-4DD8-98C6-54B37B54EF1F";
name = Regular;
paths = (
{
closed = 1;
nodes = (
"140 0 LINE",
"140 606 LINE",
"62 606 LINE",
"62 0 LINE"
);
}
);
width = 202;
}
);
unicode = 0049;
},
{
glyphname = IJ;
layers = (
{
layerId = "F40DB483-8E41-4DD8-98C6-54B37B54EF1F";
name = Regular;
paths = (
{
closed = 1;
nodes = (
"507 606 LINE",
"429 606 LINE",
"429 140 LINE SMOOTH",
"429 88 OFFCURVE",
"404 61 OFFCURVE",
"360 61 CURVE SMOOTH",
"316 61 OFFCURVE",
"291 88 OFFCURVE",
"291 140 CURVE SMOOTH",
"291 184 LINE",
"213 184 LINE",
"213 144 LINE SMOOTH",
"213 43 OFFCURVE",
"267 -11 OFFCURVE",
"360 -11 CURVE SMOOTH",
"453 -11 OFFCURVE",
"507 43 OFFCURVE",
"507 144 CURVE SMOOTH"
);
},
{
closed = 1;
nodes = (
"140 606 LINE",
"62 606 LINE",
"62 0 LINE",
"140 0 LINE"
);
}
);
width = 564;
}
);
unicode = 0132;
},
{
glyphname = Iacute;
layers = (
{
layerId = "F40DB483-8E41-4DD8-98C6-54B37B54EF1F";
name = Regular;
paths = (
{
closed = 1;
nodes = (
"140 606 LINE",
"62 606 LINE",
"62 0 LINE",
"140 0 LINE"
);
},
{
closed = 1;
nodes = (
"203 781 LINE",
"125 781 LINE",
"49 664 LINE",
"110 664 LINE",
"204 778 LINE"
);
}
);
width = 202;
}
);
unicode = 00CD;
},
{
glyphname = Ibreve;
layers = (
{
layerId = "F40DB483-8E41-4DD8-98C6-54B37B54EF1F";
name = Regular;
paths = (
{
closed = 1;
nodes = (
"140 0 LINE",
"140 606 LINE",
"62 606 LINE",
"62 0 LINE"
);
},
{
closed = 1;
nodes = (
"154 781 LINE",
"152 768 OFFCURVE",
"131 751 OFFCURVE",
"101 751 CURVE SMOOTH",
"72 751 OFFCURVE",
"51 768 OFFCURVE",
"49 781 CURVE",
"-9 781 LINE",
"-9 741 OFFCURVE",
"34 695 OFFCURVE",
"101 695 CURVE SMOOTH",
"169 695 OFFCURVE",
"210 741 OFFCURVE",
"210 781 CURVE"
);
}
);
width = 202;
}
);
unicode = 012C;
},
{
glyphname = Icircumflex;
layers = (
{
layerId = "F40DB483-8E41-4DD8-98C6-54B37B54EF1F";
name = Regular;
paths = (
{
closed = 1;
nodes = (
"140 0 LINE",
"140 606 LINE",
"62 606 LINE",
"62 0 LINE"
);
},
{
closed = 1;
nodes = (
"211 660 LINE",
"136 780 LINE",
"67 780 LINE",
"-10 660 LINE",
"62 660 LINE",
"102 730 LINE",
"141 660 LINE"
);
}
);
width = 202;
}
);
unicode = 00CE;
},
{
glyphname = Idieresis;
layers = (
{
layerId = "F40DB483-8E41-4DD8-98C6-54B37B54EF1F";
name = Regular;
paths = (
{
closed = 1;
nodes = (
"140 606 LINE",
"62 606 LINE",
"62 0 LINE",
"140 0 LINE"
);
},
{
closed = 1;
nodes = (
"73 781 LINE",
"-4 781 LINE",
"-4 697 LINE",
"73 697 LINE"
);
},
{
closed = 1;
nodes = (
"206 781 LINE",
"129 781 LINE",
"129 697 LINE",
"206 697 LINE"
);
}
);
width = 202;
}
);
unicode = 00CF;
},
{
glyphname = Idotaccent;
layers = (
{
layerId = "F40DB483-8E41-4DD8-98C6-54B37B54EF1F";
name = Regular;
paths = (
{
closed = 1;
nodes = (
"140 0 LINE",
"140 606 LINE",
"62 606 LINE",
"62 0 LINE"
);
},
{
closed = 1;
nodes = (
"140 697 LINE",
"140 781 LINE",
"63 781 LINE",
"63 697 LINE"
);
}
);
width = 202;
}
);
unicode = 0130;
},
{
glyphname = Igrave;
layers = (
{
layerId = "F40DB483-8E41-4DD8-98C6-54B37B54EF1F";
name = Regular;
paths = (
{
closed = 1;
nodes = (
"140 606 LINE",
"62 606 LINE",
"62 0 LINE",
"140 0 LINE"
);
},
{
closed = 1;
nodes = (
"78 781 LINE",
"-2 781 LINE",
"-3 778 LINE",
"93 664 LINE",
"154 664 LINE"
);
}
);
width = 202;
}
);
unicode = 00CC;
},
{
glyphname = Imacron;
layers = (
{
layerId = "F40DB483-8E41-4DD8-98C6-54B37B54EF1F";
name = Regular;
paths = (
{
closed = 1;
nodes = (
"140 0 LINE",
"140 606 LINE",
"62 606 LINE",
"62 0 LINE"
);
},
{
closed = 1;
nodes = (
"212 671 LINE",
"212 735 LINE",
"-10 735 LINE",
"-10 671 LINE"
);
}
);
width = 202;
}
);
unicode = 012A;
},
{
glyphname = Iogonek;
layers = (
{
layerId = "F40DB483-8E41-4DD8-98C6-54B37B54EF1F";
name = Regular;
paths = (
{
closed = 1;
nodes = (
"140 606 LINE",
"62 606 LINE",
"62 0 LINE",
"82 0 LINE",
"64 -20 OFFCURVE",
"50 -43 OFFCURVE",
"50 -81 CURVE SMOOTH",
"50 -142 OFFCURVE",
"95 -161 OFFCURVE",
"133 -161 CURVE SMOOTH",
"151 -161 OFFCURVE",
"169 -156 OFFCURVE",
"187 -149 CURVE",
"187 -103 LINE",
"159 -103 LINE SMOOTH",
"130 -103 OFFCURVE",
"118 -80 OFFCURVE",
"118 -55 CURVE SMOOTH",
"118 -30 OFFCURVE",
"131 -13 OFFCURVE",
"140 0 CURVE"
);
}
);
width = 202;
}
);
unicode = 012E;
},
{
glyphname = Itilde;
layers = (
{
layerId = "F40DB483-8E41-4DD8-98C6-54B37B54EF1F";
name = Regular;
paths = (
{
closed = 1;
nodes = (
"140 0 LINE",
"140 606 LINE",
"62 606 LINE",
"62 0 LINE"
);
},
{
closed = 1;
nodes = (
"179 781 LINE",
"176 760 OFFCURVE",
"164 754 OFFCURVE",
"149 754 CURVE SMOOTH",
"114 754 OFFCURVE",
"85 781 OFFCURVE",
"47 781 CURVE SMOOTH",
"-6 781 OFFCURVE",
"-28 729 OFFCURVE",
"-28 689 CURVE",
"23 689 LINE",
"26 709 OFFCURVE",
"37 716 OFFCURVE",
"53 716 CURVE SMOOTH",
"88 716 OFFCURVE",
"117 689 OFFCURVE",
"155 689 CURVE SMOOTH",
"208 689 OFFCURVE",
"230 740 OFFCURVE",
"230 781 CURVE"
);
}
);
width = 202;
}
);
unicode = 0128;
},
{
glyphname = J;
layers = (
{
anchors = (
{
name = top;
position = "{181, 606}";
}
);
layerId = "F40DB483-8E41-4DD8-98C6-54B37B54EF1F";
name = Regular;
paths = (
{
closed = 1;
nodes = (
"305 606 LINE",
"227 606 LINE",
"227 140 LINE SMOOTH",
"227 88 OFFCURVE",
"202 61 OFFCURVE",
"158 61 CURVE SMOOTH",
"114 61 OFFCURVE",
"89 88 OFFCURVE",
"89 140 CURVE SMOOTH",
"89 184 LINE",
"11 184 LINE",
"11 144 LINE SMOOTH",
"11 43 OFFCURVE",
"65 -11 OFFCURVE",
"158 -11 CURVE SMOOTH",
"251 -11 OFFCURVE",
"305 43 OFFCURVE",
"305 144 CURVE SMOOTH"
);
}
);
width = 362;
}
);
unicode = 004A;
},
{
glyphname = Jcircumflex;
layers = (
{
layerId = "F40DB483-8E41-4DD8-98C6-54B37B54EF1F";
name = Regular;
paths = (
{
closed = 1;
nodes = (
"305 606 LINE",
"227 606 LINE",
"227 140 LINE SMOOTH",
"227 88 OFFCURVE",
"202 61 OFFCURVE",
"158 61 CURVE SMOOTH",
"114 61 OFFCURVE",
"89 88 OFFCURVE",
"89 140 CURVE SMOOTH",
"89 184 LINE",
"11 184 LINE",
"11 144 LINE SMOOTH",
"11 43 OFFCURVE",
"65 -11 OFFCURVE",
"158 -11 CURVE SMOOTH",
"251 -11 OFFCURVE",
"305 43 OFFCURVE",
"305 144 CURVE SMOOTH"
);
},
{
closed = 1;
nodes = (
"301 780 LINE",
"232 780 LINE",
"156 660 LINE",
"227 660 LINE",
"268 730 LINE",
"307 660 LINE",
"377 660 LINE"
);
}
);
width = 362;
}
);
unicode = 0134;
},
{
glyphname = K;
layers = (
{
anchors = (
{
name = bottom;
position = "{242, 0}";
},
{
name = top;
position = "{242, 606}";
}
);
layerId = "F40DB483-8E41-4DD8-98C6-54B37B54EF1F";
name = Regular;
paths = (
{
closed = 1;
nodes = (
"140 286 LINE",
"140 606 LINE",
"62 606 LINE",
"62 0 LINE",
"140 0 LINE",
"140 188 LINE",
"237 296 LINE",
"385 0 LINE",
"473 0 LINE",
"285 362 LINE",
"467 606 LINE",
"380 606 LINE"
);
}
);
width = 484;
}
);
unicode = 004B;
},
{
glyphname = Kcommaaccent;
layers = (
{
layerId = "F40DB483-8E41-4DD8-98C6-54B37B54EF1F";
name = Regular;
paths = (
{
closed = 1;
nodes = (
"279 -127 LINE",
"279 -53 LINE",
"204 -53 LINE",
"204 -133 LINE",
"234 -133 LINE",
"215 -196 LINE",
"254 -196 LINE"
);
},
{
closed = 1;
nodes = (
"140 286 LINE",
"140 606 LINE",
"62 606 LINE",
"62 0 LINE",
"140 0 LINE",
"140 188 LINE",
"237 296 LINE",
"385 0 LINE",
"473 0 LINE",
"285 362 LINE",
"467 606 LINE",
"380 606 LINE"
);
}
);
width = 484;
}
);
unicode = 0136;
},
{
glyphname = L;
layers = (
{
anchors = (
{
name = bottom;
position = "{202, 0}";
},
{
name = top;
position = "{202, 606}";
}
);
layerId = "F40DB483-8E41-4DD8-98C6-54B37B54EF1F";
name = Regular;
paths = (
{
closed = 1;
nodes = (
"140 606 LINE",
"62 606 LINE",
"62 0 LINE",
"387 0 LINE",
"387 71 LINE",
"140 71 LINE"
);
}
);
width = 403;
}
);
unicode = 004C;
},
{
glyphname = Lacute;
layers = (
{
layerId = "F40DB483-8E41-4DD8-98C6-54B37B54EF1F";
name = Regular;
paths = (
{
closed = 1;
nodes = (
"140 606 LINE",
"62 606 LINE",
"62 0 LINE",
"387 0 LINE",
"387 71 LINE",
"140 71 LINE"
);
},
{
closed = 1;
nodes = (
"201 781 LINE",
"121 781 LINE",
"45 664 LINE",
"107 664 LINE",
"202 778 LINE"
);
}
);
width = 403;
}
);
unicode = 0139;
},
{
glyphname = Lcaron;
layers = (
{
layerId = "F40DB483-8E41-4DD8-98C6-54B37B54EF1F";
name = Regular;
paths = (
{
closed = 1;
nodes = (
"140 606 LINE",
"62 606 LINE",
"62 0 LINE",
"387 0 LINE",
"387 71 LINE",
"140 71 LINE"
);
},
{
closed = 1;
nodes = (
"370 606 LINE",
"282 606 LINE",
"282 511 LINE",
"317 511 LINE",
"282 401 LINE",
"328 401 LINE",
"370 519 LINE"
);
}
);
width = 403;
}
);
unicode = 013D;
},
{
glyphname = Lcommaaccent;
layers = (
{
layerId = "F40DB483-8E41-4DD8-98C6-54B37B54EF1F";
name = Regular;
paths = (
{
closed = 1;
nodes = (
"140 606 LINE",
"62 606 LINE",
"62 0 LINE",
"387 0 LINE",
"387 71 LINE",
"140 71 LINE"
);
},
{
closed = 1;
nodes = (
"240 -53 LINE",
"164 -53 LINE",
"164 -133 LINE",
"194 -133 LINE",
"174 -196 LINE",
"214 -196 LINE",
"240 -127 LINE"
);
}
);
width = 403;
}
);
unicode = 013B;
},
{
glyphname = Ldot;
layers = (
{
layerId = "F40DB483-8E41-4DD8-98C6-54B37B54EF1F";
name = Regular;
paths = (
{
closed = 1;
nodes = (
"140 606 LINE",
"62 606 LINE",
"62 0 LINE",
"387 0 LINE",
"387 71 LINE",
"140 71 LINE"
);
},
{
closed = 1;
nodes = (
"350 464 LINE",
"261 464 LINE",
"261 366 LINE",
"350 366 LINE"
);
}
);
width = 403;
}
);
unicode = 013F;
},
{
glyphname = Lslash;
layers = (
{
layerId = "F40DB483-8E41-4DD8-98C6-54B37B54EF1F";
name = Regular;
paths = (
{
closed = 1;
nodes = (
"140 606 LINE",
"62 606 LINE",
"62 280 LINE",
"0 225 LINE",
"0 163 LINE",
"62 217 LINE",
"62 0 LINE",
"387 0 LINE",
"387 71 LINE",
"140 71 LINE",
"140 286 LINE",
"261 392 LINE",
"261 457 LINE",
"140 349 LINE"
);
}
);
width = 403;
}
);
unicode = 0141;
},
{
glyphname = M;
layers = (
{
layerId = "F40DB483-8E41-4DD8-98C6-54B37B54EF1F";
name = Regular;
paths = (
{
closed = 1;
nodes = (
"549 606 LINE",
"431 606 LINE",
"324 209 LINE SMOOTH",
"312 166 OFFCURVE",
"304 72 OFFCURVE",
"304 72 CURVE SMOOTH",
"301 72 LINE SMOOTH",
"301 72 OFFCURVE",
"292 164 OFFCURVE",
"280 209 CURVE SMOOTH",
"173 606 LINE",
"55 606 LINE",
"55 0 LINE",
"125 0 LINE",
"125 440 LINE SMOOTH",
"125 458 OFFCURVE",
"119 534 OFFCURVE",
"119 534 CURVE",
"123 534 LINE",
"129 503 OFFCURVE",
"133 470 OFFCURVE",
"141 440 CURVE SMOOTH",
"263 0 LINE",
"332 0 LINE",
"453 440 LINE SMOOTH",
"462 471 OFFCURVE",
"467 503 OFFCURVE",
"474 534 CURVE",
"477 534 LINE",
"477 534 OFFCURVE",
"471 461 OFFCURVE",
"471 440 CURVE SMOOTH",
"471 0 LINE",
"549 0 LINE"
);
}
);
width = 604;
}
);
unicode = 004D;
},
{
glyphname = N;
layers = (
{
anchors = (
{
name = bottom;
position = "{262, 0}";
},
{
name = top;
position = "{262, 606}";
}
);
layerId = "F40DB483-8E41-4DD8-98C6-54B37B54EF1F";
name = Regular;
paths = (
{
closed = 1;
nodes = (
"461 606 LINE",
"392 606 LINE",
"392 225 LINE SMOOTH",
"392 206 OFFCURVE",
"394 145 OFFCURVE",
"394 145 CURVE",
"392 144 LINE",
"392 144 OFFCURVE",
"368 202 OFFCURVE",
"354 225 CURVE SMOOTH",
"129 606 LINE",
"62 606 LINE",
"62 0 LINE",
"132 0 LINE",
"132 386 LINE SMOOTH",
"132 411 OFFCURVE",
"128 467 OFFCURVE",
"128 467 CURVE",
"131 468 LINE",
"131 468 OFFCURVE",
"155 412 OFFCURVE",
"170 386 CURVE SMOOTH",
"397 0 LINE",
"461 0 LINE"
);
}
);
width = 523;
}
);
unicode = 004E;
},
{
glyphname = Nacute;
layers = (
{
layerId = "F40DB483-8E41-4DD8-98C6-54B37B54EF1F";
name = Regular;
paths = (
{
closed = 1;
nodes = (
"461 606 LINE",
"392 606 LINE",
"392 225 LINE SMOOTH",
"392 206 OFFCURVE",
"394 145 OFFCURVE",
"394 145 CURVE",
"392 144 LINE",
"392 144 OFFCURVE",
"368 202 OFFCURVE",
"354 225 CURVE SMOOTH",
"129 606 LINE",
"62 606 LINE",
"62 0 LINE",
"132 0 LINE",
"132 386 LINE SMOOTH",
"132 411 OFFCURVE",
"128 467 OFFCURVE",
"128 467 CURVE",
"131 468 LINE",
"131 468 OFFCURVE",
"155 412 OFFCURVE",
"170 386 CURVE SMOOTH",
"397 0 LINE",
"461 0 LINE"
);
},
{
closed = 1;
nodes = (
"364 781 LINE",
"285 781 LINE",
"209 664 LINE",
"271 664 LINE",
"365 778 LINE"
);
}
);
width = 523;
}
);
unicode = 0143;
},
{
glyphname = Ncaron;
layers = (
{
layerId = "F40DB483-8E41-4DD8-98C6-54B37B54EF1F";
name = Regular;
paths = (
{
closed = 1;
nodes = (
"461 606 LINE",
"392 606 LINE",
"392 225 LINE SMOOTH",
"392 206 OFFCURVE",
"394 145 OFFCURVE",
"394 145 CURVE",
"392 144 LINE",
"392 144 OFFCURVE",
"368 202 OFFCURVE",
"354 225 CURVE SMOOTH",
"129 606 LINE",
"62 606 LINE",
"62 0 LINE",
"132 0 LINE",
"132 386 LINE SMOOTH",
"132 411 OFFCURVE",
"128 467 OFFCURVE",
"128 467 CURVE",
"131 468 LINE",
"131 468 OFFCURVE",
"155 412 OFFCURVE",
"170 386 CURVE SMOOTH",
"397 0 LINE",
"461 0 LINE"
);
},
{
closed = 1;
nodes = (
"372 781 LINE",
"301 781 LINE",
"262 711 LINE",
"222 781 LINE",
"151 781 LINE",
"226 661 LINE",
"295 661 LINE"
);
}
);
width = 523;
}
);
unicode = 0147;
},
{
glyphname = Ncommaaccent;
layers = (
{
layerId = "F40DB483-8E41-4DD8-98C6-54B37B54EF1F";
name = Regular;
paths = (
{
closed = 1;
nodes = (
"461 606 LINE",
"392 606 LINE",
"392 225 LINE SMOOTH",
"392 206 OFFCURVE",
"394 145 OFFCURVE",
"394 145 CURVE",
"392 144 LINE",
"392 144 OFFCURVE",
"368 202 OFFCURVE",
"354 225 CURVE SMOOTH",
"129 606 LINE",
"62 606 LINE",
"62 0 LINE",
"132 0 LINE",
"132 386 LINE SMOOTH",
"132 411 OFFCURVE",
"128 467 OFFCURVE",
"128 467 CURVE",
"131 468 LINE",
"131 468 OFFCURVE",
"155 412 OFFCURVE",
"170 386 CURVE SMOOTH",
"397 0 LINE",
"461 0 LINE"
);
},
{
closed = 1;
nodes = (
"300 -53 LINE",
"224 -53 LINE",
"224 -133 LINE",
"255 -133 LINE",
"234 -196 LINE",
"274 -196 LINE",
"300 -127 LINE"
);
}
);
width = 523;
}
);
unicode = 0145;
},
{
glyphname = Eng;
layers = (
{
layerId = "F40DB483-8E41-4DD8-98C6-54B37B54EF1F";
name = Regular;
paths = (
{
closed = 1;
nodes = (
"461 606 LINE",
"389 606 LINE",
"392 225 LINE SMOOTH",
"392 206 OFFCURVE",
"394 145 OFFCURVE",
"394 145 CURVE",
"392 144 LINE",
"392 144 OFFCURVE",
"368 202 OFFCURVE",
"354 225 CURVE SMOOTH",
"129 606 LINE",
"62 606 LINE",
"62 0 LINE",
"132 0 LINE",
"132 386 LINE SMOOTH",
"132 411 OFFCURVE",
"128 467 OFFCURVE",
"128 467 CURVE",
"131 468 LINE",
"131 468 OFFCURVE",
"155 412 OFFCURVE",
"170 386 CURVE SMOOTH",
"389 13 LINE",
"389 -57 LINE SMOOTH",
"389 -85 OFFCURVE",
"375 -100 OFFCURVE",
"347 -100 CURVE SMOOTH",
"309 -100 LINE",
"309 -150 LINE",
"324 -156 OFFCURVE",
"348 -161 OFFCURVE",
"370 -161 CURVE SMOOTH",
"440 -161 OFFCURVE",
"461 -107 OFFCURVE",
"461 -54 CURVE SMOOTH"
);
}
);
width = 523;
}
);
unicode = 014A;
},
{
glyphname = Ntilde;
layers = (
{
layerId = "F40DB483-8E41-4DD8-98C6-54B37B54EF1F";
name = Regular;
paths = (
{
closed = 1;
nodes = (
"461 606 LINE",
"392 606 LINE",
"392 225 LINE SMOOTH",
"392 206 OFFCURVE",
"394 145 OFFCURVE",
"394 145 CURVE",
"392 144 LINE",
"392 144 OFFCURVE",
"368 202 OFFCURVE",
"354 225 CURVE SMOOTH",
"129 606 LINE",
"62 606 LINE",
"62 0 LINE",
"132 0 LINE",
"132 386 LINE SMOOTH",
"132 411 OFFCURVE",
"128 467 OFFCURVE",
"128 467 CURVE",
"131 468 LINE",
"131 468 OFFCURVE",
"155 412 OFFCURVE",
"170 386 CURVE SMOOTH",
"397 0 LINE",
"461 0 LINE"
);
},
{
closed = 1;
nodes = (
"339 781 LINE",
"337 760 OFFCURVE",
"325 754 OFFCURVE",
"309 754 CURVE SMOOTH",
"275 754 OFFCURVE",
"246 781 OFFCURVE",
"208 781 CURVE SMOOTH",
"155 781 OFFCURVE",
"133 729 OFFCURVE",
"133 689 CURVE",
"184 689 LINE",
"187 709 OFFCURVE",
"198 716 OFFCURVE",
"214 716 CURVE SMOOTH",
"248 716 OFFCURVE",
"277 689 OFFCURVE",
"316 689 CURVE SMOOTH",
"369 689 OFFCURVE",
"391 740 OFFCURVE",
"391 781 CURVE"
);
}
);
width = 523;
}
);
unicode = 00D1;
},
{
glyphname = O;
layers = (
{
anchors = (
{
name = top;
position = "{282, 606}";
}
);
layerId = "F40DB483-8E41-4DD8-98C6-54B37B54EF1F";
name = Regular;
paths = (
{
closed = 1;
nodes = (
"133 617 OFFCURVE",
"43 514 OFFCURVE",
"43 303 CURVE SMOOTH",
"43 93 OFFCURVE",
"133 -11 OFFCURVE",
"282 -11 CURVE SMOOTH",
"431 -11 OFFCURVE",
"521 93 OFFCURVE",
"521 303 CURVE SMOOTH",
"521 514 OFFCURVE",
"431 617 OFFCURVE",
"282 617 CURVE SMOOTH"
);
},
{
closed = 1;
nodes = (
"379 545 OFFCURVE",
"439 473 OFFCURVE",
"439 325 CURVE SMOOTH",
"439 281 LINE SMOOTH",
"439 133 OFFCURVE",
"379 61 OFFCURVE",
"282 61 CURVE SMOOTH",
"185 61 OFFCURVE",
"125 133 OFFCURVE",
"125 281 CURVE SMOOTH",
"125 325 LINE SMOOTH",
"125 473 OFFCURVE",
"185 545 OFFCURVE",
"282 545 CURVE SMOOTH"
);
}
);
width = 564;
}
);
unicode = 004F;
},
{
glyphname = Oacute;
layers = (
{
layerId = "F40DB483-8E41-4DD8-98C6-54B37B54EF1F";
name = Regular;
paths = (
{
closed = 1;
nodes = (
"133 617 OFFCURVE",
"43 514 OFFCURVE",
"43 303 CURVE SMOOTH",
"43 93 OFFCURVE",
"133 -11 OFFCURVE",
"282 -11 CURVE SMOOTH",
"431 -11 OFFCURVE",
"521 93 OFFCURVE",
"521 303 CURVE SMOOTH",
"521 514 OFFCURVE",
"431 617 OFFCURVE",
"282 617 CURVE SMOOTH"
);
},
{
closed = 1;
nodes = (
"379 545 OFFCURVE",
"439 473 OFFCURVE",
"439 325 CURVE SMOOTH",
"439 281 LINE SMOOTH",
"439 133 OFFCURVE",
"379 61 OFFCURVE",
"282 61 CURVE SMOOTH",
"185 61 OFFCURVE",
"125 133 OFFCURVE",
"125 281 CURVE SMOOTH",
"125 325 LINE SMOOTH",
"125 473 OFFCURVE",
"185 545 OFFCURVE",
"282 545 CURVE SMOOTH"
);
},
{
closed = 1;
nodes = (
"385 781 LINE",
"306 781 LINE",
"230 664 LINE",
"291 664 LINE",
"386 778 LINE"
);
}
);
width = 564;
}
);
unicode = 00D3;
},
{
glyphname = Obreve;
layers = (
{
layerId = "F40DB483-8E41-4DD8-98C6-54B37B54EF1F";
name = Regular;
paths = (
{
closed = 1;
nodes = (
"133 617 OFFCURVE",
"43 514 OFFCURVE",
"43 303 CURVE SMOOTH",
"43 93 OFFCURVE",
"133 -11 OFFCURVE",
"282 -11 CURVE SMOOTH",
"431 -11 OFFCURVE",
"521 93 OFFCURVE",
"521 303 CURVE SMOOTH",
"521 514 OFFCURVE",
"431 617 OFFCURVE",
"282 617 CURVE SMOOTH"
);
},
{
closed = 1;
nodes = (
"379 545 OFFCURVE",
"439 473 OFFCURVE",
"439 325 CURVE SMOOTH",
"439 281 LINE SMOOTH",
"439 133 OFFCURVE",
"379 61 OFFCURVE",
"282 61 CURVE SMOOTH",
"185 61 OFFCURVE",
"125 133 OFFCURVE",
"125 281 CURVE SMOOTH",
"125 325 LINE SMOOTH",
"125 473 OFFCURVE",
"185 545 OFFCURVE",
"282 545 CURVE SMOOTH"
);
},
{
closed = 1;
nodes = (
"335 781 LINE",
"333 768 OFFCURVE",
"312 751 OFFCURVE",
"282 751 CURVE SMOOTH",
"253 751 OFFCURVE",
"232 768 OFFCURVE",
"230 781 CURVE",
"173 781 LINE",
"173 741 OFFCURVE",
"215 695 OFFCURVE",
"282 695 CURVE SMOOTH",
"350 695 OFFCURVE",
"392 741 OFFCURVE",
"392 781 CURVE"
);
}
);
width = 564;
}
);
unicode = 014E;
},
{
glyphname = Ocircumflex;
layers = (
{
layerId = "F40DB483-8E41-4DD8-98C6-54B37B54EF1F";
name = Regular;
paths = (
{
closed = 1;
nodes = (
"133 617 OFFCURVE",
"43 514 OFFCURVE",
"43 303 CURVE SMOOTH",
"43 93 OFFCURVE",
"133 -11 OFFCURVE",
"282 -11 CURVE SMOOTH",
"431 -11 OFFCURVE",
"521 93 OFFCURVE",
"521 303 CURVE SMOOTH",
"521 514 OFFCURVE",
"431 617 OFFCURVE",
"282 617 CURVE SMOOTH"
);
},
{
closed = 1;
nodes = (
"379 545 OFFCURVE",
"439 473 OFFCURVE",
"439 325 CURVE SMOOTH",
"439 281 LINE SMOOTH",
"439 133 OFFCURVE",
"379 61 OFFCURVE",
"282 61 CURVE SMOOTH",
"185 61 OFFCURVE",
"125 133 OFFCURVE",
"125 281 CURVE SMOOTH",
"125 325 LINE SMOOTH",
"125 473 OFFCURVE",
"185 545 OFFCURVE",
"282 545 CURVE SMOOTH"
);
},
{
closed = 1;
nodes = (
"392 660 LINE",
"317 780 LINE",
"248 780 LINE",
"172 660 LINE",
"243 660 LINE",
"283 730 LINE",
"322 660 LINE"
);
}
);
width = 564;
}
);
unicode = 00D4;
},
{
glyphname = Odieresis;
layers = (
{
layerId = "F40DB483-8E41-4DD8-98C6-54B37B54EF1F";
name = Regular;
paths = (
{
closed = 1;
nodes = (
"133 617 OFFCURVE",
"43 514 OFFCURVE",
"43 303 CURVE SMOOTH",
"43 93 OFFCURVE",
"133 -11 OFFCURVE",
"282 -11 CURVE SMOOTH",
"431 -11 OFFCURVE",
"521 93 OFFCURVE",
"521 303 CURVE SMOOTH",
"521 514 OFFCURVE",
"431 617 OFFCURVE",
"282 617 CURVE SMOOTH"
);
},
{
closed = 1;
nodes = (
"379 545 OFFCURVE",
"439 473 OFFCURVE",
"439 325 CURVE SMOOTH",
"439 281 LINE SMOOTH",
"439 133 OFFCURVE",
"379 61 OFFCURVE",
"282 61 CURVE SMOOTH",
"185 61 OFFCURVE",
"125 133 OFFCURVE",
"125 281 CURVE SMOOTH",
"125 325 LINE SMOOTH",
"125 473 OFFCURVE",
"185 545 OFFCURVE",
"282 545 CURVE SMOOTH"
);
},
{
closed = 1;
nodes = (
"255 781 LINE",
"178 781 LINE",
"178 697 LINE",
"255 697 LINE"
);
},
{
closed = 1;
nodes = (
"387 781 LINE",
"310 781 LINE",
"310 697 LINE",
"387 697 LINE"
);
}
);
width = 564;
}
);
unicode = 00D6;
},
{
glyphname = Ograve;
layers = (
{
layerId = "F40DB483-8E41-4DD8-98C6-54B37B54EF1F";
name = Regular;
paths = (
{
closed = 1;
nodes = (
"133 617 OFFCURVE",
"43 514 OFFCURVE",
"43 303 CURVE SMOOTH",
"43 93 OFFCURVE",
"133 -11 OFFCURVE",
"282 -11 CURVE SMOOTH",
"431 -11 OFFCURVE",
"521 93 OFFCURVE",
"521 303 CURVE SMOOTH",
"521 514 OFFCURVE",
"431 617 OFFCURVE",
"282 617 CURVE SMOOTH"
);
},
{
closed = 1;
nodes = (
"379 545 OFFCURVE",
"439 473 OFFCURVE",
"439 325 CURVE SMOOTH",
"439 281 LINE SMOOTH",
"439 133 OFFCURVE",
"379 61 OFFCURVE",
"282 61 CURVE SMOOTH",
"185 61 OFFCURVE",
"125 133 OFFCURVE",
"125 281 CURVE SMOOTH",
"125 325 LINE SMOOTH",
"125 473 OFFCURVE",
"185 545 OFFCURVE",
"282 545 CURVE SMOOTH"
);
},
{
closed = 1;
nodes = (
"259 781 LINE",
"179 781 LINE",
"179 778 LINE",
"274 664 LINE",
"335 664 LINE"
);
}
);
width = 564;
}
);
unicode = 00D2;
},
{
glyphname = Ohungarumlaut;
layers = (
{
layerId = "F40DB483-8E41-4DD8-98C6-54B37B54EF1F";
name = Regular;
paths = (
{
closed = 1;
nodes = (
"133 617 OFFCURVE",
"43 514 OFFCURVE",
"43 303 CURVE SMOOTH",
"43 93 OFFCURVE",
"133 -11 OFFCURVE",
"282 -11 CURVE SMOOTH",
"431 -11 OFFCURVE",
"521 93 OFFCURVE",
"521 303 CURVE SMOOTH",
"521 514 OFFCURVE",
"431 617 OFFCURVE",
"282 617 CURVE SMOOTH"
);
},
{
closed = 1;
nodes = (
"379 545 OFFCURVE",
"439 473 OFFCURVE",
"439 325 CURVE SMOOTH",
"439 281 LINE SMOOTH",
"439 133 OFFCURVE",
"379 61 OFFCURVE",
"282 61 CURVE SMOOTH",
"185 61 OFFCURVE",
"125 133 OFFCURVE",
"125 281 CURVE SMOOTH",
"125 325 LINE SMOOTH",
"125 473 OFFCURVE",
"185 545 OFFCURVE",
"282 545 CURVE SMOOTH"
);
},
{
closed = 1;
nodes = (
"331 781 LINE",
"253 781 LINE",
"198 664 LINE",
"258 664 LINE",
"332 778 LINE"
);
},
{
closed = 1;
nodes = (
"447 781 LINE",
"368 781 LINE",
"313 664 LINE",
"374 664 LINE",
"448 778 LINE"
);
}
);
width = 564;
}
);
unicode = 0150;
},
{
glyphname = Omacron;
layers = (
{
layerId = "F40DB483-8E41-4DD8-98C6-54B37B54EF1F";
name = Regular;
paths = (
{
closed = 1;
nodes = (
"133 617 OFFCURVE",
"43 514 OFFCURVE",
"43 303 CURVE SMOOTH",
"43 93 OFFCURVE",
"133 -11 OFFCURVE",
"282 -11 CURVE SMOOTH",
"431 -11 OFFCURVE",
"521 93 OFFCURVE",
"521 303 CURVE SMOOTH",
"521 514 OFFCURVE",
"431 617 OFFCURVE",
"282 617 CURVE SMOOTH"
);
},
{
closed = 1;
nodes = (
"379 545 OFFCURVE",
"439 473 OFFCURVE",
"439 325 CURVE SMOOTH",
"439 281 LINE SMOOTH",
"439 133 OFFCURVE",
"379 61 OFFCURVE",
"282 61 CURVE SMOOTH",
"185 61 OFFCURVE",
"125 133 OFFCURVE",
"125 281 CURVE SMOOTH",
"125 325 LINE SMOOTH",
"125 473 OFFCURVE",
"185 545 OFFCURVE",
"282 545 CURVE SMOOTH"
);
},
{
closed = 1;
nodes = (
"393 671 LINE",
"393 735 LINE",
"171 735 LINE",
"171 671 LINE"
);
}
);
width = 564;
}
);
unicode = 014C;
},
{
glyphname = Oslash;
layers = (
{
anchors = (
{
name = top;
position = "{282, 606}";
}
);
layerId = "F40DB483-8E41-4DD8-98C6-54B37B54EF1F";
name = Regular;
paths = (
{
closed = 1;
nodes = (
"521 639 LINE",
"464 639 LINE",
"423 573 LINE",
"385 602 OFFCURVE",
"338 617 OFFCURVE",
"282 617 CURVE SMOOTH",
"133 617 OFFCURVE",
"43 514 OFFCURVE",
"43 303 CURVE SMOOTH",
"43 198 OFFCURVE",
"65 119 OFFCURVE",
"107 67 CURVE",
"44 -33 LINE",
"101 -33 LINE",
"141 33 LINE",
"179 4 OFFCURVE",
"226 -11 OFFCURVE",
"282 -11 CURVE SMOOTH",
"431 -11 OFFCURVE",
"521 93 OFFCURVE",
"521 303 CURVE SMOOTH",
"521 408 OFFCURVE",
"498 486 OFFCURVE",
"457 538 CURVE"
);
},
{
closed = 1;
nodes = (
"412 466 LINE",
"430 431 OFFCURVE",
"439 384 OFFCURVE",
"439 325 CURVE SMOOTH",
"439 281 LINE SMOOTH",
"439 133 OFFCURVE",
"379 61 OFFCURVE",
"282 61 CURVE SMOOTH",
"241 61 OFFCURVE",
"208 73 OFFCURVE",
"182 98 CURVE"
);
},
{
closed = 1;
nodes = (
"322 545 OFFCURVE",
"355 533 OFFCURVE",
"382 507 CURVE",
"152 140 LINE",
"134 175 OFFCURVE",
"125 222 OFFCURVE",
"125 281 CURVE SMOOTH",
"125 325 LINE SMOOTH",
"125 473 OFFCURVE",
"185 545 OFFCURVE",
"282 545 CURVE SMOOTH"
);
}
);
width = 564;
}
);
unicode = 00D8;
},
{
glyphname = Oslashacute;
layers = (
{
layerId = "F40DB483-8E41-4DD8-98C6-54B37B54EF1F";
name = Regular;
paths = (
{
closed = 1;
nodes = (
"521 639 LINE",
"464 639 LINE",
"423 573 LINE",
"385 602 OFFCURVE",
"338 617 OFFCURVE",
"282 617 CURVE SMOOTH",
"133 617 OFFCURVE",
"43 514 OFFCURVE",
"43 303 CURVE SMOOTH",
"43 198 OFFCURVE",
"65 119 OFFCURVE",
"107 67 CURVE",
"44 -33 LINE",
"101 -33 LINE",
"141 33 LINE",
"179 4 OFFCURVE",
"226 -11 OFFCURVE",
"282 -11 CURVE SMOOTH",
"431 -11 OFFCURVE",
"521 93 OFFCURVE",
"521 303 CURVE SMOOTH",
"521 408 OFFCURVE",
"498 486 OFFCURVE",
"457 538 CURVE"
);
},
{
closed = 1;
nodes = (
"412 466 LINE",
"430 431 OFFCURVE",
"439 384 OFFCURVE",
"439 325 CURVE SMOOTH",
"439 281 LINE SMOOTH",
"439 133 OFFCURVE",
"379 61 OFFCURVE",
"282 61 CURVE SMOOTH",
"241 61 OFFCURVE",
"208 73 OFFCURVE",
"182 98 CURVE"
);
},
{
closed = 1;
nodes = (
"322 545 OFFCURVE",
"355 533 OFFCURVE",
"382 507 CURVE",
"152 140 LINE",
"134 175 OFFCURVE",
"125 222 OFFCURVE",
"125 281 CURVE SMOOTH",
"125 325 LINE SMOOTH",
"125 473 OFFCURVE",
"185 545 OFFCURVE",
"282 545 CURVE SMOOTH"
);
},
{
closed = 1;
nodes = (
"385 781 LINE",
"306 781 LINE",
"230 664 LINE",
"291 664 LINE",
"386 778 LINE"
);
}
);
width = 564;
}
);
unicode = 01FE;
},
{
glyphname = Otilde;
layers = (
{
layerId = "F40DB483-8E41-4DD8-98C6-54B37B54EF1F";
name = Regular;
paths = (
{
closed = 1;
nodes = (
"133 617 OFFCURVE",
"43 514 OFFCURVE",
"43 303 CURVE SMOOTH",
"43 93 OFFCURVE",
"133 -11 OFFCURVE",
"282 -11 CURVE SMOOTH",
"431 -11 OFFCURVE",
"521 93 OFFCURVE",
"521 303 CURVE SMOOTH",
"521 514 OFFCURVE",
"431 617 OFFCURVE",
"282 617 CURVE SMOOTH"
);
},
{
closed = 1;
nodes = (
"379 545 OFFCURVE",
"439 473 OFFCURVE",
"439 325 CURVE SMOOTH",
"439 281 LINE SMOOTH",
"439 133 OFFCURVE",
"379 61 OFFCURVE",
"282 61 CURVE SMOOTH",
"185 61 OFFCURVE",
"125 133 OFFCURVE",
"125 281 CURVE SMOOTH",
"125 325 LINE SMOOTH",
"125 473 OFFCURVE",
"185 545 OFFCURVE",
"282 545 CURVE SMOOTH"
);
},
{
closed = 1;
nodes = (
"360 781 LINE",
"357 760 OFFCURVE",
"346 754 OFFCURVE",
"330 754 CURVE SMOOTH",
"295 754 OFFCURVE",
"266 781 OFFCURVE",
"228 781 CURVE SMOOTH",
"175 781 OFFCURVE",
"153 729 OFFCURVE",
"153 689 CURVE",
"204 689 LINE",
"207 709 OFFCURVE",
"218 716 OFFCURVE",
"234 716 CURVE SMOOTH",
"269 716 OFFCURVE",
"298 689 OFFCURVE",
"336 689 CURVE SMOOTH",
"389 689 OFFCURVE",
"411 740 OFFCURVE",
"411 781 CURVE"
);
}
);
width = 564;
}
);
unicode = 00D5;
},
{
glyphname = OE;
layers = (
{
anchors = (
{
name = top;
position = "{362, 606}";
}
);
layerId = "F40DB483-8E41-4DD8-98C6-54B37B54EF1F";
name = Regular;
paths = (
{
closed = 1;
nodes = (
"117 617 OFFCURVE",
"43 514 OFFCURVE",
"43 303 CURVE SMOOTH",
"43 93 OFFCURVE",
"117 -11 OFFCURVE",
"241 -11 CURVE SMOOTH",
"298 -11 OFFCURVE",
"343 12 OFFCURVE",
"376 60 CURVE",
"376 0 LINE",
"693 0 LINE",
"693 71 LINE",
"453 71 LINE",
"453 275 LINE",
"648 275 LINE",
"648 346 LINE",
"453 346 LINE",
"453 536 LINE",
"688 536 LINE",
"688 606 LINE",
"376 606 LINE",
"376 546 LINE",
"343 593 OFFCURVE",
"298 617 OFFCURVE",
"241 617 CURVE SMOOTH"
);
},
{
closed = 1;
nodes = (
"328 545 OFFCURVE",
"376 473 OFFCURVE",
"376 325 CURVE SMOOTH",
"376 281 LINE SMOOTH",
"376 133 OFFCURVE",
"328 61 OFFCURVE",
"250 61 CURVE SMOOTH",
"172 61 OFFCURVE",
"125 133 OFFCURVE",
"125 281 CURVE SMOOTH",
"125 325 LINE SMOOTH",
"125 473 OFFCURVE",
"172 545 OFFCURVE",
"250 545 CURVE SMOOTH"
);
}
);
width = 725;
}
);
unicode = 0152;
},
{
glyphname = P;
layers = (
{
layerId = "F40DB483-8E41-4DD8-98C6-54B37B54EF1F";
name = Regular;
paths = (
{
closed = 1;
nodes = (
"140 250 LINE",
"278 250 LINE SMOOTH",
"391 250 OFFCURVE",
"460 323 OFFCURVE",
"460 430 CURVE SMOOTH",
"460 535 OFFCURVE",
"398 606 OFFCURVE",
"278 606 CURVE SMOOTH",
"62 606 LINE",
"62 0 LINE",
"140 0 LINE"
);
},
{
closed = 1;
nodes = (
"140 536 LINE",
"276 536 LINE SMOOTH",
"342 536 OFFCURVE",
"378 495 OFFCURVE",
"378 430 CURVE SMOOTH",
"378 364 OFFCURVE",
"338 321 OFFCURVE",
"276 321 CURVE SMOOTH",
"140 321 LINE"
);
}
);
width = 484;
}
);
unicode = 0050;
},
{
glyphname = Thorn;
layers = (
{
layerId = "F40DB483-8E41-4DD8-98C6-54B37B54EF1F";
name = Regular;
paths = (
{
closed = 1;
nodes = (
"140 606 LINE",
"62 606 LINE",
"62 0 LINE",
"140 0 LINE",
"140 130 LINE",
"278 130 LINE SMOOTH",
"391 130 OFFCURVE",
"460 202 OFFCURVE",
"460 309 CURVE SMOOTH",
"460 415 OFFCURVE",
"398 486 OFFCURVE",
"278 486 CURVE SMOOTH",
"140 486 LINE"
);
},
{
closed = 1;
nodes = (
"276 415 LINE",
"342 415 OFFCURVE",
"378 375 OFFCURVE",
"378 309 CURVE SMOOTH",
"378 244 OFFCURVE",
"338 201 OFFCURVE",
"276 201 CURVE SMOOTH",
"140 201 LINE",
"140 415 LINE"
);
}
);
width = 484;
}
);
unicode = 00DE;
},
{
glyphname = Q;
layers = (
{
layerId = "F40DB483-8E41-4DD8-98C6-54B37B54EF1F";
name = Regular;
paths = (
{
closed = 1;
nodes = (
"43 93 OFFCURVE",
"133 -11 OFFCURVE",
"282 -11 CURVE SMOOTH",
"293 -11 LINE",
"398 -110 LINE",
"502 -110 LINE",
"377 6 LINE",
"468 43 OFFCURVE",
"521 142 OFFCURVE",
"521 303 CURVE SMOOTH",
"521 514 OFFCURVE",
"431 617 OFFCURVE",
"282 617 CURVE SMOOTH",
"133 617 OFFCURVE",
"43 514 OFFCURVE",
"43 303 CURVE SMOOTH"
);
},
{
closed = 1;
nodes = (
"125 325 LINE",
"125 473 OFFCURVE",
"185 545 OFFCURVE",
"282 545 CURVE SMOOTH",
"379 545 OFFCURVE",
"439 473 OFFCURVE",
"439 325 CURVE SMOOTH",
"439 281 LINE SMOOTH",
"439 133 OFFCURVE",
"379 61 OFFCURVE",
"282 61 CURVE SMOOTH",
"185 61 OFFCURVE",
"125 133 OFFCURVE",
"125 281 CURVE SMOOTH"
);
}
);
width = 564;
}
);
unicode = 0051;
},
{
glyphname = R;
layers = (
{
anchors = (
{
name = bottom;
position = "{262, 0}";
},
{
name = top;
position = "{262, 606}";
}
);
layerId = "F40DB483-8E41-4DD8-98C6-54B37B54EF1F";
name = Regular;
paths = (
{
closed = 1;
nodes = (
"62 606 LINE",
"62 0 LINE",
"140 0 LINE",
"140 268 LINE",
"302 268 LINE",
"415 0 LINE",
"501 0 LINE",
"379 282 LINE",
"447 305 OFFCURVE",
"487 363 OFFCURVE",
"487 438 CURVE SMOOTH",
"487 538 OFFCURVE",
"425 606 OFFCURVE",
"306 606 CURVE SMOOTH"
);
},
{
closed = 1;
nodes = (
"303 536 LINE",
"370 536 OFFCURVE",
"406 499 OFFCURVE",
"406 438 CURVE SMOOTH",
"406 378 OFFCURVE",
"365 339 OFFCURVE",
"303 339 CURVE SMOOTH",
"140 339 LINE",
"140 536 LINE"
);
}
);
width = 523;
}
);
unicode = 0052;
},
{
glyphname = Racute;
layers = (
{
layerId = "F40DB483-8E41-4DD8-98C6-54B37B54EF1F";
name = Regular;
paths = (
{
closed = 1;
nodes = (
"62 606 LINE",
"62 0 LINE",
"140 0 LINE",
"140 268 LINE",
"302 268 LINE",
"415 0 LINE",
"501 0 LINE",
"379 282 LINE",
"447 305 OFFCURVE",
"487 363 OFFCURVE",
"487 438 CURVE SMOOTH",
"487 538 OFFCURVE",
"425 606 OFFCURVE",
"306 606 CURVE SMOOTH"
);
},
{
closed = 1;
nodes = (
"303 536 LINE",
"370 536 OFFCURVE",
"406 499 OFFCURVE",
"406 438 CURVE SMOOTH",
"406 378 OFFCURVE",
"365 339 OFFCURVE",
"303 339 CURVE SMOOTH",
"140 339 LINE",
"140 536 LINE"
);
},
{
closed = 1;
nodes = (
"345 781 LINE",
"265 781 LINE",
"189 664 LINE",
"251 664 LINE",
"346 778 LINE"
);
}
);
width = 523;
}
);
unicode = 0154;
},
{
glyphname = Rcaron;
layers = (
{
layerId = "F40DB483-8E41-4DD8-98C6-54B37B54EF1F";
name = Regular;
paths = (
{
closed = 1;
nodes = (
"62 606 LINE",
"62 0 LINE",
"140 0 LINE",
"140 268 LINE",
"302 268 LINE",
"415 0 LINE",
"501 0 LINE",
"379 282 LINE",
"447 305 OFFCURVE",
"487 363 OFFCURVE",
"487 438 CURVE SMOOTH",
"487 538 OFFCURVE",
"425 606 OFFCURVE",
"306 606 CURVE SMOOTH"
);
},
{
closed = 1;
nodes = (
"303 536 LINE",
"370 536 OFFCURVE",
"406 499 OFFCURVE",
"406 438 CURVE SMOOTH",
"406 378 OFFCURVE",
"365 339 OFFCURVE",
"303 339 CURVE SMOOTH",
"140 339 LINE",
"140 536 LINE"
);
},
{
closed = 1;
nodes = (
"372 781 LINE",
"301 781 LINE",
"262 711 LINE",
"222 781 LINE",
"151 781 LINE",
"226 661 LINE",
"295 661 LINE"
);
}
);
width = 523;
}
);
unicode = 0158;
},
{
glyphname = Rcommaaccent;
layers = (
{
layerId = "F40DB483-8E41-4DD8-98C6-54B37B54EF1F";
name = Regular;
paths = (
{
closed = 1;
nodes = (
"62 606 LINE",
"62 0 LINE",
"140 0 LINE",
"140 268 LINE",
"302 268 LINE",
"415 0 LINE",
"501 0 LINE",
"379 282 LINE",
"447 305 OFFCURVE",
"487 363 OFFCURVE",
"487 438 CURVE SMOOTH",
"487 538 OFFCURVE",
"425 606 OFFCURVE",
"306 606 CURVE SMOOTH"
);
},
{
closed = 1;
nodes = (
"300 -53 LINE",
"224 -53 LINE",
"224 -133 LINE",
"255 -133 LINE",
"234 -196 LINE",
"274 -196 LINE",
"300 -127 LINE"
);
},
{
closed = 1;
nodes = (
"303 536 LINE",
"370 536 OFFCURVE",
"406 499 OFFCURVE",
"406 438 CURVE SMOOTH",
"406 378 OFFCURVE",
"365 339 OFFCURVE",
"303 339 CURVE SMOOTH",
"140 339 LINE",
"140 536 LINE"
);
}
);
width = 523;
}
);
unicode = 0156;
},
{
glyphname = S;
layers = (
{
anchors = (
{
name = bottom;
position = "{242, 0}";
},
{
name = top;
position = "{242, 606}";
}
);
layerId = "F40DB483-8E41-4DD8-98C6-54B37B54EF1F";
name = Regular;
paths = (
{
closed = 1;
nodes = (
"135 617 OFFCURVE",
"49 566 OFFCURVE",
"49 454 CURVE SMOOTH",
"49 235 OFFCURVE",
"364 315 OFFCURVE",
"364 162 CURVE SMOOTH",
"364 96 OFFCURVE",
"318 61 OFFCURVE",
"237 61 CURVE SMOOTH",
"168 61 OFFCURVE",
"117 96 OFFCURVE",
"117 171 CURVE SMOOTH",
"117 176 OFFCURVE",
"118 188 OFFCURVE",
"118 189 CURVE",
"37 189 LINE",
"37 187 OFFCURVE",
"36 178 OFFCURVE",
"36 171 CURVE SMOOTH",
"36 38 OFFCURVE",
"130 -11 OFFCURVE",
"240 -11 CURVE SMOOTH",
"358 -11 OFFCURVE",
"446 39 OFFCURVE",
"446 175 CURVE SMOOTH",
"446 388 OFFCURVE",
"131 316 OFFCURVE",
"131 461 CURVE SMOOTH",
"131 519 OFFCURVE",
"179 545 OFFCURVE",
"243 545 CURVE SMOOTH",
"304 545 OFFCURVE",
"351 511 OFFCURVE",
"351 449 CURVE SMOOTH",
"351 436 LINE",
"431 436 LINE",
"431 446 LINE SMOOTH",
"431 568 OFFCURVE",
"347 617 OFFCURVE",
"241 617 CURVE SMOOTH"
);
}
);
width = 484;
}
);
unicode = 0053;
},
{
glyphname = Sacute;
layers = (
{
layerId = "F40DB483-8E41-4DD8-98C6-54B37B54EF1F";
name = Regular;
paths = (
{
closed = 1;
nodes = (
"135 617 OFFCURVE",
"49 566 OFFCURVE",
"49 454 CURVE SMOOTH",
"49 235 OFFCURVE",
"364 315 OFFCURVE",
"364 162 CURVE SMOOTH",
"364 96 OFFCURVE",
"318 61 OFFCURVE",
"237 61 CURVE SMOOTH",
"168 61 OFFCURVE",
"117 96 OFFCURVE",
"117 171 CURVE SMOOTH",
"117 176 OFFCURVE",
"118 188 OFFCURVE",
"118 189 CURVE",
"37 189 LINE",
"37 187 OFFCURVE",
"36 178 OFFCURVE",
"36 171 CURVE SMOOTH",
"36 38 OFFCURVE",
"130 -11 OFFCURVE",
"240 -11 CURVE SMOOTH",
"358 -11 OFFCURVE",
"446 39 OFFCURVE",
"446 175 CURVE SMOOTH",
"446 388 OFFCURVE",
"131 316 OFFCURVE",
"131 461 CURVE SMOOTH",
"131 519 OFFCURVE",
"179 545 OFFCURVE",
"243 545 CURVE SMOOTH",
"304 545 OFFCURVE",
"351 511 OFFCURVE",
"351 449 CURVE SMOOTH",
"351 436 LINE",
"431 436 LINE",
"431 446 LINE SMOOTH",
"431 568 OFFCURVE",
"347 617 OFFCURVE",
"241 617 CURVE SMOOTH"
);
},
{
closed = 1;
nodes = (
"345 781 LINE",
"265 781 LINE",
"189 664 LINE",
"250 664 LINE",
"346 778 LINE"
);
}
);
width = 484;
}
);
unicode = 015A;
},
{
glyphname = Scaron;
layers = (
{
layerId = "F40DB483-8E41-4DD8-98C6-54B37B54EF1F";
name = Regular;
paths = (
{
closed = 1;
nodes = (
"135 617 OFFCURVE",
"49 566 OFFCURVE",
"49 454 CURVE SMOOTH",
"49 235 OFFCURVE",
"364 315 OFFCURVE",
"364 162 CURVE SMOOTH",
"364 96 OFFCURVE",
"318 61 OFFCURVE",
"237 61 CURVE SMOOTH",
"168 61 OFFCURVE",
"117 96 OFFCURVE",
"117 171 CURVE SMOOTH",
"117 176 OFFCURVE",
"118 188 OFFCURVE",
"118 189 CURVE",
"37 189 LINE",
"37 187 OFFCURVE",
"36 178 OFFCURVE",
"36 171 CURVE SMOOTH",
"36 38 OFFCURVE",
"130 -11 OFFCURVE",
"240 -11 CURVE SMOOTH",
"358 -11 OFFCURVE",
"446 39 OFFCURVE",
"446 175 CURVE SMOOTH",
"446 388 OFFCURVE",
"131 316 OFFCURVE",
"131 461 CURVE SMOOTH",
"131 519 OFFCURVE",
"179 545 OFFCURVE",
"243 545 CURVE SMOOTH",
"304 545 OFFCURVE",
"351 511 OFFCURVE",
"351 449 CURVE SMOOTH",
"351 436 LINE",
"431 436 LINE",
"431 446 LINE SMOOTH",
"431 568 OFFCURVE",
"347 617 OFFCURVE",
"241 617 CURVE SMOOTH"
);
},
{
closed = 1;
nodes = (
"276 661 LINE",
"352 781 LINE",
"281 781 LINE",
"241 711 LINE",
"202 781 LINE",
"132 781 LINE",
"207 661 LINE"
);
}
);
width = 484;
}
);
unicode = 0160;
},
{
glyphname = Scedilla;
layers = (
{
layerId = "F40DB483-8E41-4DD8-98C6-54B37B54EF1F";
name = Regular;
paths = (
{
closed = 1;
nodes = (
"135 617 OFFCURVE",
"49 566 OFFCURVE",
"49 454 CURVE SMOOTH",
"49 235 OFFCURVE",
"364 315 OFFCURVE",
"364 162 CURVE SMOOTH",
"364 96 OFFCURVE",
"318 61 OFFCURVE",
"237 61 CURVE SMOOTH",
"168 61 OFFCURVE",
"117 96 OFFCURVE",
"117 171 CURVE SMOOTH",
"117 176 OFFCURVE",
"118 188 OFFCURVE",
"118 189 CURVE",
"37 189 LINE",
"37 187 OFFCURVE",
"36 178 OFFCURVE",
"36 171 CURVE SMOOTH",
"36 51 OFFCURVE",
"111 0 OFFCURVE",
"208 -9 CURVE",
"199 -68 LINE",
"228 -68 LINE SMOOTH",
"251 -68 OFFCURVE",
"258 -75 OFFCURVE",
"258 -89 CURVE SMOOTH",
"258 -106 OFFCURVE",
"246 -111 OFFCURVE",
"226 -111 CURVE SMOOTH",
"159 -111 LINE",
"159 -154 LINE",
"180 -158 OFFCURVE",
"208 -161 OFFCURVE",
"233 -161 CURVE SMOOTH",
"269 -161 OFFCURVE",
"325 -149 OFFCURVE",
"325 -89 CURVE SMOOTH",
"325 -49 OFFCURVE",
"292 -34 OFFCURVE",
"254 -32 CURVE",
"256 -10 LINE",
"366 -5 OFFCURVE",
"446 45 OFFCURVE",
"446 175 CURVE SMOOTH",
"446 388 OFFCURVE",
"131 316 OFFCURVE",
"131 461 CURVE SMOOTH",
"131 519 OFFCURVE",
"179 545 OFFCURVE",
"243 545 CURVE SMOOTH",
"304 545 OFFCURVE",
"351 511 OFFCURVE",
"351 449 CURVE SMOOTH",
"351 436 LINE",
"431 436 LINE",
"431 446 LINE SMOOTH",
"431 568 OFFCURVE",
"347 617 OFFCURVE",
"241 617 CURVE SMOOTH"
);
}
);
width = 484;
}
);
unicode = 015E;
},
{
glyphname = Scircumflex;
layers = (
{
layerId = "F40DB483-8E41-4DD8-98C6-54B37B54EF1F";
name = Regular;
paths = (
{
closed = 1;
nodes = (
"135 617 OFFCURVE",
"49 566 OFFCURVE",
"49 454 CURVE SMOOTH",
"49 235 OFFCURVE",
"364 315 OFFCURVE",
"364 162 CURVE SMOOTH",
"364 96 OFFCURVE",
"318 61 OFFCURVE",
"237 61 CURVE SMOOTH",
"168 61 OFFCURVE",
"117 96 OFFCURVE",
"117 171 CURVE SMOOTH",
"117 176 OFFCURVE",
"118 188 OFFCURVE",
"118 189 CURVE",
"37 189 LINE",
"37 187 OFFCURVE",
"36 178 OFFCURVE",
"36 171 CURVE SMOOTH",
"36 38 OFFCURVE",
"130 -11 OFFCURVE",
"240 -11 CURVE SMOOTH",
"358 -11 OFFCURVE",
"446 39 OFFCURVE",
"446 175 CURVE SMOOTH",
"446 388 OFFCURVE",
"131 316 OFFCURVE",
"131 461 CURVE SMOOTH",
"131 519 OFFCURVE",
"179 545 OFFCURVE",
"243 545 CURVE SMOOTH",
"304 545 OFFCURVE",
"351 511 OFFCURVE",
"351 449 CURVE SMOOTH",
"351 436 LINE",
"431 436 LINE",
"431 446 LINE SMOOTH",
"431 568 OFFCURVE",
"347 617 OFFCURVE",
"241 617 CURVE SMOOTH"
);
},
{
closed = 1;
nodes = (
"352 660 LINE",
"277 780 LINE",
"208 780 LINE",
"132 660 LINE",
"202 660 LINE",
"242 730 LINE",
"281 660 LINE"
);
}
);
width = 484;
}
);
unicode = 015C;
},
{
glyphname = T;
layers = (
{
anchors = (
{
name = bottom;
position = "{222, 0}";
},
{
name = center;
position = "{222, 303}";
},
{
name = top;
position = "{222, 606}";
}
);
layerId = "F40DB483-8E41-4DD8-98C6-54B37B54EF1F";
name = Regular;
paths = (
{
closed = 1;
nodes = (
"425 606 LINE",
"17 606 LINE",
"17 536 LINE",
"182 536 LINE",
"182 0 LINE",
"260 0 LINE",
"260 536 LINE",
"425 536 LINE"
);
}
);
width = 443;
}
);
unicode = 0054;
},
{
glyphname = Tbar;
layers = (
{
layerId = "F40DB483-8E41-4DD8-98C6-54B37B54EF1F";
name = Regular;
paths = (
{
closed = 1;
nodes = (
"425 606 LINE",
"17 606 LINE",
"17 536 LINE",
"182 536 LINE",
"182 347 LINE",
"68 347 LINE",
"68 283 LINE",
"182 283 LINE",
"182 0 LINE",
"260 0 LINE",
"260 283 LINE",
"376 283 LINE",
"376 347 LINE",
"260 347 LINE",
"260 536 LINE",
"425 536 LINE"
);
}
);
width = 443;
}
);
unicode = 0166;
},
{
glyphname = Tcaron;
layers = (
{
layerId = "F40DB483-8E41-4DD8-98C6-54B37B54EF1F";
name = Regular;
paths = (
{
closed = 1;
nodes = (
"425 606 LINE",
"17 606 LINE",
"17 536 LINE",
"182 536 LINE",
"182 0 LINE",
"260 0 LINE",
"260 536 LINE",
"425 536 LINE"
);
},
{
closed = 1;
nodes = (
"331 781 LINE",
"261 781 LINE",
"221 711 LINE",
"182 781 LINE",
"111 781 LINE",
"187 661 LINE",
"255 661 LINE"
);
}
);
width = 443;
}
);
unicode = 0164;
},
{
glyphname = Tcommaaccent;
layers = (
{
layerId = "F40DB483-8E41-4DD8-98C6-54B37B54EF1F";
name = Regular;
paths = (
{
closed = 1;
nodes = (
"425 606 LINE",
"17 606 LINE",
"17 536 LINE",
"182 536 LINE",
"182 0 LINE",
"260 0 LINE",
"260 536 LINE",
"425 536 LINE"
);
},
{
closed = 1;
nodes = (
"259 -53 LINE",
"184 -53 LINE",
"184 -133 LINE",
"214 -133 LINE",
"194 -196 LINE",
"233 -196 LINE",
"259 -127 LINE"
);
}
);
width = 443;
}
);
unicode = 021A;
},
{
glyphname = U;
layers = (
{
anchors = (
{
name = ogonek;
position = "{471, 9}";
},
{
name = top;
position = "{262, 606}";
}
);
layerId = "F40DB483-8E41-4DD8-98C6-54B37B54EF1F";
name = Regular;
paths = (
{
closed = 1;
nodes = (
"461 606 LINE",
"384 606 LINE",
"384 193 LINE SMOOTH",
"384 107 OFFCURVE",
"338 61 OFFCURVE",
"262 61 CURVE SMOOTH",
"186 61 OFFCURVE",
"140 107 OFFCURVE",
"140 193 CURVE SMOOTH",
"140 606 LINE",
"62 606 LINE",
"62 197 LINE SMOOTH",
"62 61 OFFCURVE",
"137 -11 OFFCURVE",
"262 -11 CURVE SMOOTH",
"386 -11 OFFCURVE",
"461 61 OFFCURVE",
"461 197 CURVE SMOOTH"
);
}
);
width = 523;
}
);
unicode = 0055;
},
{
glyphname = Uacute;
layers = (
{
layerId = "F40DB483-8E41-4DD8-98C6-54B37B54EF1F";
name = Regular;
paths = (
{
closed = 1;
nodes = (
"461 606 LINE",
"384 606 LINE",
"384 193 LINE SMOOTH",
"384 107 OFFCURVE",
"338 61 OFFCURVE",
"262 61 CURVE SMOOTH",
"186 61 OFFCURVE",
"140 107 OFFCURVE",
"140 193 CURVE SMOOTH",
"140 606 LINE",
"62 606 LINE",
"62 197 LINE SMOOTH",
"62 61 OFFCURVE",
"137 -11 OFFCURVE",
"262 -11 CURVE SMOOTH",
"386 -11 OFFCURVE",
"461 61 OFFCURVE",
"461 197 CURVE SMOOTH"
);
},
{
closed = 1;
nodes = (
"364 781 LINE",
"285 781 LINE",
"209 664 LINE",
"271 664 LINE",
"365 778 LINE"
);
}
);
width = 523;
}
);
unicode = 00DA;
},
{
glyphname = Ubreve;
layers = (
{
layerId = "F40DB483-8E41-4DD8-98C6-54B37B54EF1F";
name = Regular;
paths = (
{
closed = 1;
nodes = (
"461 606 LINE",
"384 606 LINE",
"384 193 LINE SMOOTH",
"384 107 OFFCURVE",
"338 61 OFFCURVE",
"262 61 CURVE SMOOTH",
"186 61 OFFCURVE",
"140 107 OFFCURVE",
"140 193 CURVE SMOOTH",
"140 606 LINE",
"62 606 LINE",
"62 197 LINE SMOOTH",
"62 61 OFFCURVE",
"137 -11 OFFCURVE",
"262 -11 CURVE SMOOTH",
"386 -11 OFFCURVE",
"461 61 OFFCURVE",
"461 197 CURVE SMOOTH"
);
},
{
closed = 1;
nodes = (
"315 781 LINE",
"313 768 OFFCURVE",
"292 751 OFFCURVE",
"262 751 CURVE SMOOTH",
"232 751 OFFCURVE",
"212 768 OFFCURVE",
"210 781 CURVE",
"152 781 LINE",
"152 741 OFFCURVE",
"194 695 OFFCURVE",
"262 695 CURVE SMOOTH",
"330 695 OFFCURVE",
"371 741 OFFCURVE",
"371 781 CURVE"
);
}
);
width = 523;
}
);
unicode = 016C;
},
{
glyphname = Ucircumflex;
layers = (
{
layerId = "F40DB483-8E41-4DD8-98C6-54B37B54EF1F";
name = Regular;
paths = (
{
closed = 1;
nodes = (
"461 606 LINE",
"384 606 LINE",
"384 193 LINE SMOOTH",
"384 107 OFFCURVE",
"338 61 OFFCURVE",
"262 61 CURVE SMOOTH",
"186 61 OFFCURVE",
"140 107 OFFCURVE",
"140 193 CURVE SMOOTH",
"140 606 LINE",
"62 606 LINE",
"62 197 LINE SMOOTH",
"62 61 OFFCURVE",
"137 -11 OFFCURVE",
"262 -11 CURVE SMOOTH",
"386 -11 OFFCURVE",
"461 61 OFFCURVE",
"461 197 CURVE SMOOTH"
);
},
{
closed = 1;
nodes = (
"296 780 LINE",
"227 780 LINE",
"151 660 LINE",
"222 660 LINE",
"263 730 LINE",
"301 660 LINE",
"372 660 LINE"
);
}
);
width = 523;
}
);
unicode = 00DB;
},
{
glyphname = Udieresis;
layers = (
{
layerId = "F40DB483-8E41-4DD8-98C6-54B37B54EF1F";
name = Regular;
paths = (
{
closed = 1;
nodes = (
"461 606 LINE",
"384 606 LINE",
"384 193 LINE SMOOTH",
"384 107 OFFCURVE",
"338 61 OFFCURVE",
"262 61 CURVE SMOOTH",
"186 61 OFFCURVE",
"140 107 OFFCURVE",
"140 193 CURVE SMOOTH",
"140 606 LINE",
"62 606 LINE",
"62 197 LINE SMOOTH",
"62 61 OFFCURVE",
"137 -11 OFFCURVE",
"262 -11 CURVE SMOOTH",
"386 -11 OFFCURVE",
"461 61 OFFCURVE",
"461 197 CURVE SMOOTH"
);
},
{
closed = 1;
nodes = (
"233 781 LINE",
"156 781 LINE",
"156 697 LINE",
"233 697 LINE"
);
},
{
closed = 1;
nodes = (
"367 781 LINE",
"289 781 LINE",
"289 697 LINE",
"367 697 LINE"
);
}
);
width = 523;
}
);
unicode = 00DC;
},
{
glyphname = Ugrave;
layers = (
{
layerId = "F40DB483-8E41-4DD8-98C6-54B37B54EF1F";
name = Regular;
paths = (
{
closed = 1;
nodes = (
"461 606 LINE",
"384 606 LINE",
"384 193 LINE SMOOTH",
"384 107 OFFCURVE",
"338 61 OFFCURVE",
"262 61 CURVE SMOOTH",
"186 61 OFFCURVE",
"140 107 OFFCURVE",
"140 193 CURVE SMOOTH",
"140 606 LINE",
"62 606 LINE",
"62 197 LINE SMOOTH",
"62 61 OFFCURVE",
"137 -11 OFFCURVE",
"262 -11 CURVE SMOOTH",
"386 -11 OFFCURVE",
"461 61 OFFCURVE",
"461 197 CURVE SMOOTH"
);
},
{
closed = 1;
nodes = (
"239 781 LINE",
"158 781 LINE",
"157 778 LINE",
"254 664 LINE",
"314 664 LINE"
);
}
);
width = 523;
}
);
unicode = 00D9;
},
{
glyphname = Uhungarumlaut;
layers = (
{
layerId = "F40DB483-8E41-4DD8-98C6-54B37B54EF1F";
name = Regular;
paths = (
{
closed = 1;
nodes = (
"461 606 LINE",
"384 606 LINE",
"384 193 LINE SMOOTH",
"384 107 OFFCURVE",
"338 61 OFFCURVE",
"262 61 CURVE SMOOTH",
"186 61 OFFCURVE",
"140 107 OFFCURVE",
"140 193 CURVE SMOOTH",
"140 606 LINE",
"62 606 LINE",
"62 197 LINE SMOOTH",
"62 61 OFFCURVE",
"137 -11 OFFCURVE",
"262 -11 CURVE SMOOTH",
"386 -11 OFFCURVE",
"461 61 OFFCURVE",
"461 197 CURVE SMOOTH"
);
},
{
closed = 1;
nodes = (
"311 781 LINE",
"232 781 LINE",
"177 664 LINE",
"238 664 LINE",
"312 778 LINE"
);
},
{
closed = 1;
nodes = (
"426 781 LINE",
"347 781 LINE",
"293 664 LINE",
"353 664 LINE",
"427 778 LINE"
);
}
);
width = 523;
}
);
unicode = 0170;
},
{
glyphname = Umacron;
layers = (
{
layerId = "F40DB483-8E41-4DD8-98C6-54B37B54EF1F";
name = Regular;
paths = (
{
closed = 1;
nodes = (
"461 606 LINE",
"384 606 LINE",
"384 193 LINE SMOOTH",
"384 107 OFFCURVE",
"338 61 OFFCURVE",
"262 61 CURVE SMOOTH",
"186 61 OFFCURVE",
"140 107 OFFCURVE",
"140 193 CURVE SMOOTH",
"140 606 LINE",
"62 606 LINE",
"62 197 LINE SMOOTH",
"62 61 OFFCURVE",
"137 -11 OFFCURVE",
"262 -11 CURVE SMOOTH",
"386 -11 OFFCURVE",
"461 61 OFFCURVE",
"461 197 CURVE SMOOTH"
);
},
{
closed = 1;
nodes = (
"372 735 LINE",
"151 735 LINE",
"151 671 LINE",
"372 671 LINE"
);
}
);
width = 523;
}
);
unicode = 016A;
},
{
glyphname = Uogonek;
layers = (
{
layerId = "F40DB483-8E41-4DD8-98C6-54B37B54EF1F";
name = Regular;
paths = (
{
closed = 1;
nodes = (
"461 606 LINE",
"384 606 LINE",
"384 193 LINE SMOOTH",
"384 107 OFFCURVE",
"338 61 OFFCURVE",
"262 61 CURVE SMOOTH",
"186 61 OFFCURVE",
"140 107 OFFCURVE",
"140 193 CURVE SMOOTH",
"140 606 LINE",
"62 606 LINE",
"62 197 LINE SMOOTH",
"62 61 OFFCURVE",
"137 -11 OFFCURVE",
"262 -11 CURVE SMOOTH",
"277 -11 OFFCURVE",
"287 -10 OFFCURVE",
"298 -7 CURVE",
"295 5 LINE",
"274 -17 OFFCURVE",
"258 -42 OFFCURVE",
"258 -81 CURVE SMOOTH",
"258 -142 OFFCURVE",
"303 -161 OFFCURVE",
"341 -161 CURVE SMOOTH",
"359 -161 OFFCURVE",
"377 -156 OFFCURVE",
"395 -149 CURVE",
"395 -103 LINE",
"368 -103 LINE SMOOTH",
"338 -103 OFFCURVE",
"327 -80 OFFCURVE",
"327 -55 CURVE SMOOTH",
"327 -31 OFFCURVE",
"340 -8 OFFCURVE",
"351 4 CURVE",
"421 33 OFFCURVE",
"461 97 OFFCURVE",
"461 197 CURVE SMOOTH"
);
}
);
width = 523;
}
);
unicode = 0172;
},
{
glyphname = Uring;
layers = (
{
layerId = "F40DB483-8E41-4DD8-98C6-54B37B54EF1F";
name = Regular;
paths = (
{
closed = 1;
nodes = (
"461 606 LINE",
"384 606 LINE",
"384 193 LINE SMOOTH",
"384 107 OFFCURVE",
"338 61 OFFCURVE",
"262 61 CURVE SMOOTH",
"186 61 OFFCURVE",
"140 107 OFFCURVE",
"140 193 CURVE SMOOTH",
"140 606 LINE",
"62 606 LINE",
"62 197 LINE SMOOTH",
"62 61 OFFCURVE",
"137 -11 OFFCURVE",
"262 -11 CURVE SMOOTH",
"386 -11 OFFCURVE",
"461 61 OFFCURVE",
"461 197 CURVE SMOOTH"
);
},
{
closed = 1;
nodes = (
"215 809 OFFCURVE",
"177 771 OFFCURVE",
"177 724 CURVE SMOOTH",
"177 676 OFFCURVE",
"216 639 OFFCURVE",
"262 639 CURVE SMOOTH",
"309 639 OFFCURVE",
"347 677 OFFCURVE",
"347 724 CURVE SMOOTH",
"347 770 OFFCURVE",
"309 809 OFFCURVE",
"262 809 CURVE SMOOTH"
);
},
{
closed = 1;
nodes = (
"286 769 OFFCURVE",
"307 749 OFFCURVE",
"307 724 CURVE SMOOTH",
"307 699 OFFCURVE",
"286 679 OFFCURVE",
"262 679 CURVE SMOOTH",
"237 679 OFFCURVE",
"217 699 OFFCURVE",
"217 724 CURVE SMOOTH",
"217 749 OFFCURVE",
"237 769 OFFCURVE",
"262 769 CURVE SMOOTH"
);
}
);
width = 523;
}
);
unicode = 016E;
},
{
glyphname = Utilde;
layers = (
{
layerId = "F40DB483-8E41-4DD8-98C6-54B37B54EF1F";
name = Regular;
paths = (
{
closed = 1;
nodes = (
"461 606 LINE",
"384 606 LINE",
"384 193 LINE SMOOTH",
"384 107 OFFCURVE",
"338 61 OFFCURVE",
"262 61 CURVE SMOOTH",
"186 61 OFFCURVE",
"140 107 OFFCURVE",
"140 193 CURVE SMOOTH",
"140 606 LINE",
"62 606 LINE",
"62 197 LINE SMOOTH",
"62 61 OFFCURVE",
"137 -11 OFFCURVE",
"262 -11 CURVE SMOOTH",
"386 -11 OFFCURVE",
"461 61 OFFCURVE",
"461 197 CURVE SMOOTH"
);
},
{
closed = 1;
nodes = (
"339 781 LINE",
"337 760 OFFCURVE",
"325 754 OFFCURVE",
"309 754 CURVE SMOOTH",
"275 754 OFFCURVE",
"246 781 OFFCURVE",
"208 781 CURVE SMOOTH",
"155 781 OFFCURVE",
"133 729 OFFCURVE",
"133 689 CURVE",
"184 689 LINE",
"187 709 OFFCURVE",
"198 716 OFFCURVE",
"214 716 CURVE SMOOTH",
"248 716 OFFCURVE",
"277 689 OFFCURVE",
"316 689 CURVE SMOOTH",
"369 689 OFFCURVE",
"391 740 OFFCURVE",
"391 781 CURVE"
);
}
);
width = 523;
}
);
unicode = 0168;
},
{
glyphname = V;
layers = (
{
layerId = "F40DB483-8E41-4DD8-98C6-54B37B54EF1F";
name = Regular;
paths = (
{
closed = 1;
nodes = (
"292 0 LINE",
"476 606 LINE",
"401 606 LINE",
"247 86 LINE",
"243 86 LINE",
"93 606 LINE",
"7 606 LINE",
"192 0 LINE"
);
}
);
width = 484;
}
);
unicode = 0056;
},
{
glyphname = W;
layers = (
{
anchors = (
{
name = top;
position = "{342, 606}";
}
);
layerId = "F40DB483-8E41-4DD8-98C6-54B37B54EF1F";
name = Regular;
paths = (
{
closed = 1;
nodes = (
"535 0 LINE",
"675 606 LINE",
"605 606 LINE",
"512 187 LINE SMOOTH",
"503 148 OFFCURVE",
"493 80 OFFCURVE",
"493 80 CURVE SMOOTH",
"490 80 LINE SMOOTH",
"490 80 OFFCURVE",
"482 143 OFFCURVE",
"474 187 CURVE SMOOTH",
"399 606 LINE",
"291 606 LINE",
"221 187 LINE SMOOTH",
"212 134 OFFCURVE",
"206 80 OFFCURVE",
"206 80 CURVE SMOOTH",
"202 80 LINE SMOOTH",
"202 80 OFFCURVE",
"192 152 OFFCURVE",
"184 187 CURVE SMOOTH",
"91 606 LINE",
"9 606 LINE",
"149 0 LINE",
"250 0 LINE",
"323 411 LINE SMOOTH",
"330 452 OFFCURVE",
"339 533 OFFCURVE",
"339 533 CURVE",
"343 533 LINE",
"343 533 OFFCURVE",
"353 452 OFFCURVE",
"360 411 CURVE SMOOTH",
"434 0 LINE"
);
}
);
width = 684;
}
);
unicode = 0057;
},
{
glyphname = Wacute;
layers = (
{
layerId = "F40DB483-8E41-4DD8-98C6-54B37B54EF1F";
name = Regular;
paths = (
{
closed = 1;
nodes = (
"675 606 LINE",
"605 606 LINE",
"512 187 LINE SMOOTH",
"503 148 OFFCURVE",
"493 80 OFFCURVE",
"493 80 CURVE SMOOTH",
"490 80 LINE SMOOTH",
"490 80 OFFCURVE",
"482 143 OFFCURVE",
"474 187 CURVE SMOOTH",
"399 606 LINE",
"291 606 LINE",
"221 187 LINE SMOOTH",
"212 134 OFFCURVE",
"206 80 OFFCURVE",
"206 80 CURVE SMOOTH",
"202 80 LINE SMOOTH",
"202 80 OFFCURVE",
"192 152 OFFCURVE",
"184 187 CURVE SMOOTH",
"91 606 LINE",
"9 606 LINE",
"149 0 LINE",
"250 0 LINE",
"323 411 LINE SMOOTH",
"330 452 OFFCURVE",
"339 533 OFFCURVE",
"339 533 CURVE",
"343 533 LINE",
"343 533 OFFCURVE",
"353 452 OFFCURVE",
"360 411 CURVE SMOOTH",
"434 0 LINE",
"535 0 LINE"
);
},
{
closed = 1;
nodes = (
"445 781 LINE",
"366 781 LINE",
"290 664 LINE",
"351 664 LINE",
"446 778 LINE"
);
}
);
width = 684;
}
);
unicode = 1E82;
},
{
glyphname = Wcircumflex;
layers = (
{
layerId = "F40DB483-8E41-4DD8-98C6-54B37B54EF1F";
name = Regular;
paths = (
{
closed = 1;
nodes = (
"535 0 LINE",
"675 606 LINE",
"605 606 LINE",
"512 187 LINE SMOOTH",
"503 148 OFFCURVE",
"493 80 OFFCURVE",
"493 80 CURVE SMOOTH",
"490 80 LINE SMOOTH",
"490 80 OFFCURVE",
"482 143 OFFCURVE",
"474 187 CURVE SMOOTH",
"399 606 LINE",
"291 606 LINE",
"221 187 LINE SMOOTH",
"212 134 OFFCURVE",
"206 80 OFFCURVE",
"206 80 CURVE SMOOTH",
"202 80 LINE SMOOTH",
"202 80 OFFCURVE",
"192 152 OFFCURVE",
"184 187 CURVE SMOOTH",
"91 606 LINE",
"9 606 LINE",
"149 0 LINE",
"250 0 LINE",
"323 411 LINE SMOOTH",
"330 452 OFFCURVE",
"339 533 OFFCURVE",
"339 533 CURVE",
"343 533 LINE",
"343 533 OFFCURVE",
"353 452 OFFCURVE",
"360 411 CURVE SMOOTH",
"434 0 LINE"
);
},
{
closed = 1;
nodes = (
"453 660 LINE",
"377 780 LINE",
"309 780 LINE",
"232 660 LINE",
"303 660 LINE",
"343 730 LINE",
"382 660 LINE"
);
}
);
width = 684;
}
);
unicode = 0174;
},
{
glyphname = Wdieresis;
layers = (
{
layerId = "F40DB483-8E41-4DD8-98C6-54B37B54EF1F";
name = Regular;
paths = (
{
closed = 1;
nodes = (
"675 606 LINE",
"605 606 LINE",
"512 187 LINE SMOOTH",
"503 148 OFFCURVE",
"493 80 OFFCURVE",
"493 80 CURVE SMOOTH",
"490 80 LINE SMOOTH",
"490 80 OFFCURVE",
"482 143 OFFCURVE",
"474 187 CURVE SMOOTH",
"399 606 LINE",
"291 606 LINE",
"221 187 LINE SMOOTH",
"212 134 OFFCURVE",
"206 80 OFFCURVE",
"206 80 CURVE SMOOTH",
"202 80 LINE SMOOTH",
"202 80 OFFCURVE",
"192 152 OFFCURVE",
"184 187 CURVE SMOOTH",
"91 606 LINE",
"9 606 LINE",
"149 0 LINE",
"250 0 LINE",
"323 411 LINE SMOOTH",
"330 452 OFFCURVE",
"339 533 OFFCURVE",
"339 533 CURVE",
"343 533 LINE",
"343 533 OFFCURVE",
"353 452 OFFCURVE",
"360 411 CURVE SMOOTH",
"434 0 LINE",
"535 0 LINE"
);
},
{
closed = 1;
nodes = (
"314 781 LINE",
"238 781 LINE",
"238 697 LINE",
"314 697 LINE"
);
},
{
closed = 1;
nodes = (
"447 781 LINE",
"370 781 LINE",
"370 697 LINE",
"447 697 LINE"
);
}
);
width = 684;
}
);
unicode = 1E84;
},
{
glyphname = Wgrave;
layers = (
{
layerId = "F40DB483-8E41-4DD8-98C6-54B37B54EF1F";
name = Regular;
paths = (
{
closed = 1;
nodes = (
"675 606 LINE",
"605 606 LINE",
"512 187 LINE SMOOTH",
"503 148 OFFCURVE",
"493 80 OFFCURVE",
"493 80 CURVE SMOOTH",
"490 80 LINE SMOOTH",
"490 80 OFFCURVE",
"482 143 OFFCURVE",
"474 187 CURVE SMOOTH",
"399 606 LINE",
"291 606 LINE",
"221 187 LINE SMOOTH",
"212 134 OFFCURVE",
"206 80 OFFCURVE",
"206 80 CURVE SMOOTH",
"202 80 LINE SMOOTH",
"202 80 OFFCURVE",
"192 152 OFFCURVE",
"184 187 CURVE SMOOTH",
"91 606 LINE",
"9 606 LINE",
"149 0 LINE",
"250 0 LINE",
"323 411 LINE SMOOTH",
"330 452 OFFCURVE",
"339 533 OFFCURVE",
"339 533 CURVE",
"343 533 LINE",
"343 533 OFFCURVE",
"353 452 OFFCURVE",
"360 411 CURVE SMOOTH",
"434 0 LINE",
"535 0 LINE"
);
},
{
closed = 1;
nodes = (
"319 781 LINE",
"240 781 LINE",
"239 778 LINE",
"334 664 LINE",
"395 664 LINE"
);
}
);
width = 684;
}
);
unicode = 1E80;
},
{
glyphname = X;
layers = (
{
layerId = "F40DB483-8E41-4DD8-98C6-54B37B54EF1F";
name = Regular;
paths = (
{
closed = 1;
nodes = (
"461 606 LINE",
"377 606 LINE",
"241 385 LINE",
"247 385 LINE",
"113 606 LINE",
"21 606 LINE",
"197 315 LINE",
"4 0 LINE",
"87 0 LINE",
"241 251 LINE",
"237 251 LINE",
"388 0 LINE",
"480 0 LINE",
"285 322 LINE"
);
}
);
width = 484;
}
);
unicode = 0058;
},
{
glyphname = Y;
layers = (
{
anchors = (
{
name = top;
position = "{242, 606}";
}
);
layerId = "F40DB483-8E41-4DD8-98C6-54B37B54EF1F";
name = Regular;
paths = (
{
closed = 1;
nodes = (
"281 251 LINE",
"476 606 LINE",
"401 606 LINE",
"250 325 LINE",
"247 325 LINE",
"93 606 LINE",
"7 606 LINE",
"203 251 LINE",
"203 0 LINE",
"281 0 LINE"
);
}
);
width = 484;
}
);
unicode = 0059;
},
{
glyphname = Yacute;
layers = (
{
layerId = "F40DB483-8E41-4DD8-98C6-54B37B54EF1F";
name = Regular;
paths = (
{
closed = 1;
nodes = (
"476 606 LINE",
"401 606 LINE",
"250 325 LINE",
"247 325 LINE",
"93 606 LINE",
"7 606 LINE",
"203 251 LINE",
"203 0 LINE",
"281 0 LINE",
"281 251 LINE"
);
},
{
closed = 1;
nodes = (
"345 781 LINE",
"265 781 LINE",
"189 664 LINE",
"250 664 LINE",
"346 778 LINE"
);
}
);
width = 484;
}
);
unicode = 00DD;
},
{
glyphname = Ycircumflex;
layers = (
{
layerId = "F40DB483-8E41-4DD8-98C6-54B37B54EF1F";
name = Regular;
paths = (
{
closed = 1;
nodes = (
"281 251 LINE",
"476 606 LINE",
"401 606 LINE",
"250 325 LINE",
"247 325 LINE",
"93 606 LINE",
"7 606 LINE",
"203 251 LINE",
"203 0 LINE",
"281 0 LINE"
);
},
{
closed = 1;
nodes = (
"352 660 LINE",
"277 780 LINE",
"208 780 LINE",
"132 660 LINE",
"202 660 LINE",
"242 730 LINE",
"281 660 LINE"
);
}
);
width = 484;
}
);
unicode = 0176;
},
{
glyphname = Ydieresis;
layers = (
{
layerId = "F40DB483-8E41-4DD8-98C6-54B37B54EF1F";
name = Regular;
paths = (
{
closed = 1;
nodes = (
"476 606 LINE",
"401 606 LINE",
"250 325 LINE",
"247 325 LINE",
"93 606 LINE",
"7 606 LINE",
"203 251 LINE",
"203 0 LINE",
"281 0 LINE",
"281 251 LINE"
);
},
{
closed = 1;
nodes = (
"214 781 LINE",
"137 781 LINE",
"137 697 LINE",
"214 697 LINE"
);
},
{
closed = 1;
nodes = (
"347 781 LINE",
"270 781 LINE",
"270 697 LINE",
"347 697 LINE"
);
}
);
width = 484;
}
);
unicode = 0178;
},
{
glyphname = Ygrave;
layers = (
{
layerId = "F40DB483-8E41-4DD8-98C6-54B37B54EF1F";
name = Regular;
paths = (
{
closed = 1;
nodes = (
"476 606 LINE",
"401 606 LINE",
"250 325 LINE",
"247 325 LINE",
"93 606 LINE",
"7 606 LINE",
"203 251 LINE",
"203 0 LINE",
"281 0 LINE",
"281 251 LINE"
);
},
{
closed = 1;
nodes = (
"218 781 LINE",
"139 781 LINE",
"138 778 LINE",
"233 664 LINE",
"294 664 LINE"
);
}
);
width = 484;
}
);
unicode = 1EF2;
},
{
glyphname = Z;
layers = (
{
anchors = (
{
name = top;
position = "{222, 606}";
}
);
layerId = "F40DB483-8E41-4DD8-98C6-54B37B54EF1F";
name = Regular;
paths = (
{
closed = 1;
nodes = (
"417 606 LINE",
"36 606 LINE",
"36 536 LINE",
"306 536 LINE",
"18 34 LINE",
"18 0 LINE",
"423 0 LINE",
"423 71 LINE",
"128 71 LINE",
"417 573 LINE"
);
}
);
width = 443;
}
);
unicode = 005A;
},
{
glyphname = Zacute;
layers = (
{
layerId = "F40DB483-8E41-4DD8-98C6-54B37B54EF1F";
name = Regular;
paths = (
{
closed = 1;
nodes = (
"417 606 LINE",
"36 606 LINE",
"36 536 LINE",
"306 536 LINE",
"18 34 LINE",
"18 0 LINE",
"423 0 LINE",
"423 71 LINE",
"128 71 LINE",
"417 573 LINE"
);
},
{
closed = 1;
nodes = (
"324 781 LINE",
"245 781 LINE",
"169 664 LINE",
"230 664 LINE",
"325 778 LINE"
);
}
);
width = 443;
}
);
unicode = 0179;
},
{
glyphname = Zcaron;
layers = (
{
layerId = "F40DB483-8E41-4DD8-98C6-54B37B54EF1F";
name = Regular;
paths = (
{
closed = 1;
nodes = (
"417 606 LINE",
"36 606 LINE",
"36 536 LINE",
"306 536 LINE",
"18 34 LINE",
"18 0 LINE",
"423 0 LINE",
"423 71 LINE",
"128 71 LINE",
"417 573 LINE"
);
},
{
closed = 1;
nodes = (
"331 781 LINE",
"261 781 LINE",
"221 711 LINE",
"182 781 LINE",
"111 781 LINE",
"187 661 LINE",
"255 661 LINE"
);
}
);
width = 443;
}
);
unicode = 017D;
},
{
glyphname = Zdotaccent;
layers = (
{
layerId = "F40DB483-8E41-4DD8-98C6-54B37B54EF1F";
name = Regular;
paths = (
{
closed = 1;
nodes = (
"417 606 LINE",
"36 606 LINE",
"36 536 LINE",
"306 536 LINE",
"18 34 LINE",
"18 0 LINE",
"423 0 LINE",
"423 71 LINE",
"128 71 LINE",
"417 573 LINE"
);
},
{
closed = 1;
nodes = (
"260 781 LINE",
"183 781 LINE",
"183 697 LINE",
"260 697 LINE"
);
}
);
width = 443;
}
);
unicode = 017B;
},
{
glyphname = a;
layers = (
{
anchors = (
{
name = ogonek;
position = "{362, 9}";
},
{
name = top;
position = "{202, 465}";
}
);
layerId = "F40DB483-8E41-4DD8-98C6-54B37B54EF1F";
name = Regular;
paths = (
{
closed = 1;
nodes = (
"110 476 OFFCURVE",
"48 431 OFFCURVE",
"48 347 CURVE SMOOTH",
"48 339 OFFCURVE",
"48 332 OFFCURVE",
"49 327 CURVE",
"120 327 LINE",
"120 338 LINE SMOOTH",
"120 373 OFFCURVE",
"137 411 OFFCURVE",
"192 411 CURVE SMOOTH",
"251 411 OFFCURVE",
"265 380 OFFCURVE",
"265 336 CURVE SMOOTH",
"265 276 LINE",
"130 276 OFFCURVE",
"30 248 OFFCURVE",
"30 120 CURVE SMOOTH",
"30 8 OFFCURVE",
"106 -11 OFFCURVE",
"152 -11 CURVE SMOOTH",
"201 -11 OFFCURVE",
"241 12 OFFCURVE",
"265 50 CURVE",
"270 50 LINE",
"278 16 OFFCURVE",
"305 -7 OFFCURVE",
"343 -7 CURVE SMOOTH",
"366 -7 OFFCURVE",
"383 -1 OFFCURVE",
"391 4 CURVE",
"391 54 LINE",
"362 54 LINE SMOOTH",
"350 54 OFFCURVE",
"338 63 OFFCURVE",
"338 85 CURVE SMOOTH",
"338 346 LINE SMOOTH",
"338 428 OFFCURVE",
"291 476 OFFCURVE",
"197 476 CURVE SMOOTH"
);
},
{
closed = 1;
nodes = (
"265 169 LINE",
"265 92 OFFCURVE",
"215 54 OFFCURVE",
"169 54 CURVE SMOOTH",
"128 54 OFFCURVE",
"106 72 OFFCURVE",
"106 125 CURVE SMOOTH",
"106 197 OFFCURVE",
"171 211 OFFCURVE",
"265 211 CURVE"
);
}
);
width = 403;
}
);
unicode = 0061;
},
{
glyphname = aacute;
layers = (
{
layerId = "F40DB483-8E41-4DD8-98C6-54B37B54EF1F";
name = Regular;
paths = (
{
closed = 1;
nodes = (
"110 476 OFFCURVE",
"48 431 OFFCURVE",
"48 347 CURVE SMOOTH",
"48 339 OFFCURVE",
"48 332 OFFCURVE",
"49 327 CURVE",
"120 327 LINE",
"120 338 LINE SMOOTH",
"120 373 OFFCURVE",
"137 411 OFFCURVE",
"192 411 CURVE SMOOTH",
"251 411 OFFCURVE",
"265 380 OFFCURVE",
"265 336 CURVE SMOOTH",
"265 276 LINE",
"130 276 OFFCURVE",
"30 248 OFFCURVE",
"30 120 CURVE SMOOTH",
"30 8 OFFCURVE",
"106 -11 OFFCURVE",
"152 -11 CURVE SMOOTH",
"201 -11 OFFCURVE",
"241 12 OFFCURVE",
"265 50 CURVE",
"270 50 LINE",
"278 16 OFFCURVE",
"305 -7 OFFCURVE",
"343 -7 CURVE SMOOTH",
"366 -7 OFFCURVE",
"383 -1 OFFCURVE",
"391 4 CURVE",
"391 54 LINE",
"362 54 LINE SMOOTH",
"350 54 OFFCURVE",
"338 63 OFFCURVE",
"338 85 CURVE SMOOTH",
"338 346 LINE SMOOTH",
"338 428 OFFCURVE",
"291 476 OFFCURVE",
"197 476 CURVE SMOOTH"
);
},
{
closed = 1;
nodes = (
"265 169 LINE",
"265 92 OFFCURVE",
"215 54 OFFCURVE",
"169 54 CURVE SMOOTH",
"128 54 OFFCURVE",
"106 72 OFFCURVE",
"106 125 CURVE SMOOTH",
"106 197 OFFCURVE",
"171 211 OFFCURVE",
"265 211 CURVE"
);
},
{
closed = 1;
nodes = (
"301 639 LINE",
"221 639 LINE",
"145 522 LINE",
"206 522 LINE",
"301 636 LINE"
);
}
);
width = 403;
}
);
unicode = 00E1;
},
{
glyphname = abreve;
layers = (
{
layerId = "F40DB483-8E41-4DD8-98C6-54B37B54EF1F";
name = Regular;
paths = (
{
closed = 1;
nodes = (
"110 476 OFFCURVE",
"48 431 OFFCURVE",
"48 347 CURVE SMOOTH",
"48 339 OFFCURVE",
"48 332 OFFCURVE",
"49 327 CURVE",
"120 327 LINE",
"120 338 LINE SMOOTH",
"120 373 OFFCURVE",
"137 411 OFFCURVE",
"192 411 CURVE SMOOTH",
"251 411 OFFCURVE",
"265 380 OFFCURVE",
"265 336 CURVE SMOOTH",
"265 276 LINE",
"130 276 OFFCURVE",
"30 248 OFFCURVE",
"30 120 CURVE SMOOTH",
"30 8 OFFCURVE",
"106 -11 OFFCURVE",
"152 -11 CURVE SMOOTH",
"201 -11 OFFCURVE",
"241 12 OFFCURVE",
"265 50 CURVE",
"270 50 LINE",
"278 16 OFFCURVE",
"305 -7 OFFCURVE",
"343 -7 CURVE SMOOTH",
"366 -7 OFFCURVE",
"383 -1 OFFCURVE",
"391 4 CURVE",
"391 54 LINE",
"362 54 LINE SMOOTH",
"350 54 OFFCURVE",
"338 63 OFFCURVE",
"338 85 CURVE SMOOTH",
"338 346 LINE SMOOTH",
"338 428 OFFCURVE",
"291 476 OFFCURVE",
"197 476 CURVE SMOOTH"
);
},
{
closed = 1;
nodes = (
"265 169 LINE",
"265 92 OFFCURVE",
"215 54 OFFCURVE",
"169 54 CURVE SMOOTH",
"128 54 OFFCURVE",
"106 72 OFFCURVE",
"106 125 CURVE SMOOTH",
"106 197 OFFCURVE",
"171 211 OFFCURVE",
"265 211 CURVE"
);
},
{
closed = 1;
nodes = (
"255 639 LINE",
"253 627 OFFCURVE",
"232 610 OFFCURVE",
"202 610 CURVE SMOOTH",
"171 610 OFFCURVE",
"152 627 OFFCURVE",
"149 639 CURVE",
"92 639 LINE",
"92 599 OFFCURVE",
"134 553 OFFCURVE",
"202 553 CURVE SMOOTH",
"270 553 OFFCURVE",
"311 599 OFFCURVE",
"311 639 CURVE"
);
}
);
width = 403;
}
);
unicode = 0103;
},
{
glyphname = acircumflex;
layers = (
{
layerId = "F40DB483-8E41-4DD8-98C6-54B37B54EF1F";
name = Regular;
paths = (
{
closed = 1;
nodes = (
"110 476 OFFCURVE",
"48 431 OFFCURVE",
"48 347 CURVE SMOOTH",
"48 339 OFFCURVE",
"48 332 OFFCURVE",
"49 327 CURVE",
"120 327 LINE",
"120 338 LINE SMOOTH",
"120 373 OFFCURVE",
"137 411 OFFCURVE",
"192 411 CURVE SMOOTH",
"251 411 OFFCURVE",
"265 380 OFFCURVE",
"265 336 CURVE SMOOTH",
"265 276 LINE",
"130 276 OFFCURVE",
"30 248 OFFCURVE",
"30 120 CURVE SMOOTH",
"30 8 OFFCURVE",
"106 -11 OFFCURVE",
"152 -11 CURVE SMOOTH",
"201 -11 OFFCURVE",
"241 12 OFFCURVE",
"265 50 CURVE",
"270 50 LINE",
"278 16 OFFCURVE",
"305 -7 OFFCURVE",
"343 -7 CURVE SMOOTH",
"366 -7 OFFCURVE",
"383 -1 OFFCURVE",
"391 4 CURVE",
"391 54 LINE",
"362 54 LINE SMOOTH",
"350 54 OFFCURVE",
"338 63 OFFCURVE",
"338 85 CURVE SMOOTH",
"338 346 LINE SMOOTH",
"338 428 OFFCURVE",
"291 476 OFFCURVE",
"197 476 CURVE SMOOTH"
);
},
{
closed = 1;
nodes = (
"265 169 LINE",
"265 92 OFFCURVE",
"215 54 OFFCURVE",
"169 54 CURVE SMOOTH",
"128 54 OFFCURVE",
"106 72 OFFCURVE",
"106 125 CURVE SMOOTH",
"106 197 OFFCURVE",
"171 211 OFFCURVE",
"265 211 CURVE"
);
},
{
closed = 1;
nodes = (
"312 519 LINE",
"237 638 LINE",
"167 638 LINE",
"92 519 LINE",
"163 519 LINE",
"202 589 LINE",
"241 519 LINE"
);
}
);
width = 403;
}
);
unicode = 00E2;
},
{
glyphname = adieresis;
layers = (
{
layerId = "F40DB483-8E41-4DD8-98C6-54B37B54EF1F";
name = Regular;
paths = (
{
closed = 1;
nodes = (
"110 476 OFFCURVE",
"48 431 OFFCURVE",
"48 347 CURVE SMOOTH",
"48 339 OFFCURVE",
"48 332 OFFCURVE",
"49 327 CURVE",
"120 327 LINE",
"120 338 LINE SMOOTH",
"120 373 OFFCURVE",
"137 411 OFFCURVE",
"192 411 CURVE SMOOTH",
"251 411 OFFCURVE",
"265 380 OFFCURVE",
"265 336 CURVE SMOOTH",
"265 276 LINE",
"130 276 OFFCURVE",
"30 248 OFFCURVE",
"30 120 CURVE SMOOTH",
"30 8 OFFCURVE",
"106 -11 OFFCURVE",
"152 -11 CURVE SMOOTH",
"201 -11 OFFCURVE",
"241 12 OFFCURVE",
"265 50 CURVE",
"270 50 LINE",
"278 16 OFFCURVE",
"305 -7 OFFCURVE",
"343 -7 CURVE SMOOTH",
"366 -7 OFFCURVE",
"383 -1 OFFCURVE",
"391 4 CURVE",
"391 54 LINE",
"362 54 LINE SMOOTH",
"350 54 OFFCURVE",
"338 63 OFFCURVE",
"338 85 CURVE SMOOTH",
"338 346 LINE SMOOTH",
"338 428 OFFCURVE",
"291 476 OFFCURVE",
"197 476 CURVE SMOOTH"
);
},
{
closed = 1;
nodes = (
"265 169 LINE",
"265 92 OFFCURVE",
"215 54 OFFCURVE",
"169 54 CURVE SMOOTH",
"128 54 OFFCURVE",
"106 72 OFFCURVE",
"106 125 CURVE SMOOTH",
"106 197 OFFCURVE",
"171 211 OFFCURVE",
"265 211 CURVE"
);
},
{
closed = 1;
nodes = (
"173 639 LINE",
"96 639 LINE",
"96 555 LINE",
"173 555 LINE"
);
},
{
closed = 1;
nodes = (
"307 639 LINE",
"229 639 LINE",
"229 555 LINE",
"307 555 LINE"
);
}
);
width = 403;
}
);
unicode = 00E4;
},
{
glyphname = agrave;
layers = (
{
layerId = "F40DB483-8E41-4DD8-98C6-54B37B54EF1F";
name = Regular;
paths = (
{
closed = 1;
nodes = (
"110 476 OFFCURVE",
"48 431 OFFCURVE",
"48 347 CURVE SMOOTH",
"48 339 OFFCURVE",
"48 332 OFFCURVE",
"49 327 CURVE",
"120 327 LINE",
"120 338 LINE SMOOTH",
"120 373 OFFCURVE",
"137 411 OFFCURVE",
"192 411 CURVE SMOOTH",
"251 411 OFFCURVE",
"265 380 OFFCURVE",
"265 336 CURVE SMOOTH",
"265 276 LINE",
"130 276 OFFCURVE",
"30 248 OFFCURVE",
"30 120 CURVE SMOOTH",
"30 8 OFFCURVE",
"106 -11 OFFCURVE",
"152 -11 CURVE SMOOTH",
"201 -11 OFFCURVE",
"241 12 OFFCURVE",
"265 50 CURVE",
"270 50 LINE",
"278 16 OFFCURVE",
"305 -7 OFFCURVE",
"343 -7 CURVE SMOOTH",
"366 -7 OFFCURVE",
"383 -1 OFFCURVE",
"391 4 CURVE",
"391 54 LINE",
"362 54 LINE SMOOTH",
"350 54 OFFCURVE",
"338 63 OFFCURVE",
"338 85 CURVE SMOOTH",
"338 346 LINE SMOOTH",
"338 428 OFFCURVE",
"291 476 OFFCURVE",
"197 476 CURVE SMOOTH"
);
},
{
closed = 1;
nodes = (
"265 169 LINE",
"265 92 OFFCURVE",
"215 54 OFFCURVE",
"169 54 CURVE SMOOTH",
"128 54 OFFCURVE",
"106 72 OFFCURVE",
"106 125 CURVE SMOOTH",
"106 197 OFFCURVE",
"171 211 OFFCURVE",
"265 211 CURVE"
);
},
{
closed = 1;
nodes = (
"174 639 LINE",
"95 639 LINE",
"94 636 LINE",
"189 522 LINE",
"250 522 LINE"
);
}
);
width = 403;
}
);
unicode = 00E0;
},
{
glyphname = amacron;
layers = (
{
layerId = "F40DB483-8E41-4DD8-98C6-54B37B54EF1F";
name = Regular;
paths = (
{
closed = 1;
nodes = (
"110 476 OFFCURVE",
"48 431 OFFCURVE",
"48 347 CURVE SMOOTH",
"48 339 OFFCURVE",
"48 332 OFFCURVE",
"49 327 CURVE",
"120 327 LINE",
"120 338 LINE SMOOTH",
"120 373 OFFCURVE",
"137 411 OFFCURVE",
"192 411 CURVE SMOOTH",
"251 411 OFFCURVE",
"265 380 OFFCURVE",
"265 336 CURVE SMOOTH",
"265 276 LINE",
"130 276 OFFCURVE",
"30 248 OFFCURVE",
"30 120 CURVE SMOOTH",
"30 8 OFFCURVE",
"106 -11 OFFCURVE",
"152 -11 CURVE SMOOTH",
"201 -11 OFFCURVE",
"241 12 OFFCURVE",
"265 50 CURVE",
"270 50 LINE",
"278 16 OFFCURVE",
"305 -7 OFFCURVE",
"343 -7 CURVE SMOOTH",
"366 -7 OFFCURVE",
"383 -1 OFFCURVE",
"391 4 CURVE",
"391 54 LINE",
"362 54 LINE SMOOTH",
"350 54 OFFCURVE",
"338 63 OFFCURVE",
"338 85 CURVE SMOOTH",
"338 346 LINE SMOOTH",
"338 428 OFFCURVE",
"291 476 OFFCURVE",
"197 476 CURVE SMOOTH"
);
},
{
closed = 1;
nodes = (
"265 169 LINE",
"265 92 OFFCURVE",
"215 54 OFFCURVE",
"169 54 CURVE SMOOTH",
"128 54 OFFCURVE",
"106 72 OFFCURVE",
"106 125 CURVE SMOOTH",
"106 197 OFFCURVE",
"171 211 OFFCURVE",
"265 211 CURVE"
);
},
{
closed = 1;
nodes = (
"313 530 LINE",
"313 593 LINE",
"91 593 LINE",
"91 530 LINE"
);
}
);
width = 403;
}
);
unicode = 0101;
},
{
glyphname = aogonek;
layers = (
{
layerId = "F40DB483-8E41-4DD8-98C6-54B37B54EF1F";
name = Regular;
paths = (
{
closed = 1;
nodes = (
"436 -103 LINE",
"408 -103 LINE SMOOTH",
"378 -103 OFFCURVE",
"368 -80 OFFCURVE",
"368 -55 CURVE SMOOTH",
"368 -32 OFFCURVE",
"380 -10 OFFCURVE",
"391 4 CURVE",
"391 54 LINE",
"362 54 LINE SMOOTH",
"350 54 OFFCURVE",
"338 63 OFFCURVE",
"338 85 CURVE SMOOTH",
"338 346 LINE SMOOTH",
"338 428 OFFCURVE",
"291 476 OFFCURVE",
"197 476 CURVE SMOOTH",
"110 476 OFFCURVE",
"48 431 OFFCURVE",
"48 347 CURVE SMOOTH",
"48 339 OFFCURVE",
"48 332 OFFCURVE",
"49 327 CURVE",
"120 327 LINE",
"120 338 LINE SMOOTH",
"120 373 OFFCURVE",
"137 411 OFFCURVE",
"192 411 CURVE SMOOTH",
"251 411 OFFCURVE",
"265 380 OFFCURVE",
"265 336 CURVE SMOOTH",
"265 276 LINE",
"130 276 OFFCURVE",
"30 248 OFFCURVE",
"30 120 CURVE SMOOTH",
"30 8 OFFCURVE",
"106 -11 OFFCURVE",
"152 -11 CURVE SMOOTH",
"201 -11 OFFCURVE",
"241 12 OFFCURVE",
"265 50 CURVE",
"270 50 LINE",
"277 21 OFFCURVE",
"297 1 OFFCURVE",
"325 -5 CURVE",
"310 -25 OFFCURVE",
"299 -47 OFFCURVE",
"299 -81 CURVE SMOOTH",
"299 -142 OFFCURVE",
"344 -161 OFFCURVE",
"382 -161 CURVE SMOOTH",
"400 -161 OFFCURVE",
"417 -156 OFFCURVE",
"436 -149 CURVE"
);
},
{
closed = 1;
nodes = (
"265 169 LINE",
"265 92 OFFCURVE",
"215 54 OFFCURVE",
"169 54 CURVE SMOOTH",
"128 54 OFFCURVE",
"106 72 OFFCURVE",
"106 125 CURVE SMOOTH",
"106 197 OFFCURVE",
"171 211 OFFCURVE",
"265 211 CURVE"
);
}
);
width = 403;
}
);
unicode = 0105;
},
{
glyphname = aring;
layers = (
{
layerId = "F40DB483-8E41-4DD8-98C6-54B37B54EF1F";
name = Regular;
paths = (
{
closed = 1;
nodes = (
"110 476 OFFCURVE",
"48 431 OFFCURVE",
"48 347 CURVE SMOOTH",
"48 339 OFFCURVE",
"48 332 OFFCURVE",
"49 327 CURVE",
"120 327 LINE",
"120 338 LINE SMOOTH",
"120 373 OFFCURVE",
"137 411 OFFCURVE",
"192 411 CURVE SMOOTH",
"251 411 OFFCURVE",
"265 380 OFFCURVE",
"265 336 CURVE SMOOTH",
"265 276 LINE",
"130 276 OFFCURVE",
"30 248 OFFCURVE",
"30 120 CURVE SMOOTH",
"30 8 OFFCURVE",
"106 -11 OFFCURVE",
"152 -11 CURVE SMOOTH",
"201 -11 OFFCURVE",
"241 12 OFFCURVE",
"265 50 CURVE",
"270 50 LINE",
"278 16 OFFCURVE",
"305 -7 OFFCURVE",
"343 -7 CURVE SMOOTH",
"366 -7 OFFCURVE",
"383 -1 OFFCURVE",
"391 4 CURVE",
"391 54 LINE",
"362 54 LINE SMOOTH",
"350 54 OFFCURVE",
"338 63 OFFCURVE",
"338 85 CURVE SMOOTH",
"338 346 LINE SMOOTH",
"338 428 OFFCURVE",
"291 476 OFFCURVE",
"197 476 CURVE SMOOTH"
);
},
{
closed = 1;
nodes = (
"265 169 LINE",
"265 92 OFFCURVE",
"215 54 OFFCURVE",
"169 54 CURVE SMOOTH",
"128 54 OFFCURVE",
"106 72 OFFCURVE",
"106 125 CURVE SMOOTH",
"106 197 OFFCURVE",
"171 211 OFFCURVE",
"265 211 CURVE"
);
},
{
closed = 1;
nodes = (
"155 667 OFFCURVE",
"117 629 OFFCURVE",
"117 583 CURVE SMOOTH",
"117 534 OFFCURVE",
"156 497 OFFCURVE",
"202 497 CURVE SMOOTH",
"248 497 OFFCURVE",
"286 535 OFFCURVE",
"286 583 CURVE SMOOTH",
"286 628 OFFCURVE",
"249 667 OFFCURVE",
"202 667 CURVE SMOOTH"
);
},
{
closed = 1;
nodes = (
"225 627 OFFCURVE",
"247 607 OFFCURVE",
"247 583 CURVE SMOOTH",
"247 558 OFFCURVE",
"225 537 OFFCURVE",
"202 537 CURVE SMOOTH",
"177 537 OFFCURVE",
"156 558 OFFCURVE",
"156 583 CURVE SMOOTH",
"156 607 OFFCURVE",
"177 627 OFFCURVE",
"202 627 CURVE SMOOTH"
);
}
);
width = 403;
}
);
unicode = 00E5;
},
{
glyphname = aringacute;
layers = (
{
layerId = "F40DB483-8E41-4DD8-98C6-54B37B54EF1F";
name = Regular;
paths = (
{
closed = 1;
nodes = (
"110 476 OFFCURVE",
"48 431 OFFCURVE",
"48 347 CURVE SMOOTH",
"48 339 OFFCURVE",
"48 332 OFFCURVE",
"49 327 CURVE",
"120 327 LINE",
"120 338 LINE SMOOTH",
"120 373 OFFCURVE",
"137 411 OFFCURVE",
"192 411 CURVE SMOOTH",
"251 411 OFFCURVE",
"265 380 OFFCURVE",
"265 336 CURVE SMOOTH",
"265 276 LINE",
"130 276 OFFCURVE",
"30 248 OFFCURVE",
"30 120 CURVE SMOOTH",
"30 8 OFFCURVE",
"106 -11 OFFCURVE",
"152 -11 CURVE SMOOTH",
"201 -11 OFFCURVE",
"241 12 OFFCURVE",
"265 50 CURVE",
"270 50 LINE",
"278 16 OFFCURVE",
"305 -7 OFFCURVE",
"343 -7 CURVE SMOOTH",
"366 -7 OFFCURVE",
"383 -1 OFFCURVE",
"391 4 CURVE",
"391 54 LINE",
"362 54 LINE SMOOTH",
"350 54 OFFCURVE",
"338 63 OFFCURVE",
"338 85 CURVE SMOOTH",
"338 346 LINE SMOOTH",
"338 428 OFFCURVE",
"291 476 OFFCURVE",
"197 476 CURVE SMOOTH"
);
},
{
closed = 1;
nodes = (
"265 169 LINE",
"265 92 OFFCURVE",
"215 54 OFFCURVE",
"169 54 CURVE SMOOTH",
"128 54 OFFCURVE",
"106 72 OFFCURVE",
"106 125 CURVE SMOOTH",
"106 197 OFFCURVE",
"171 211 OFFCURVE",
"265 211 CURVE"
);
},
{
closed = 1;
nodes = (
"225 620 OFFCURVE",
"247 603 OFFCURVE",
"247 579 CURVE SMOOTH",
"247 555 OFFCURVE",
"225 537 OFFCURVE",
"202 537 CURVE SMOOTH",
"178 537 OFFCURVE",
"156 555 OFFCURVE",
"156 579 CURVE SMOOTH",
"156 603 OFFCURVE",
"178 620 OFFCURVE",
"202 620 CURVE SMOOTH"
);
},
{
closed = 1;
nodes = (
"155 659 OFFCURVE",
"117 624 OFFCURVE",
"117 579 CURVE SMOOTH",
"117 533 OFFCURVE",
"156 499 OFFCURVE",
"202 499 CURVE SMOOTH",
"249 499 OFFCURVE",
"286 534 OFFCURVE",
"286 579 CURVE SMOOTH",
"286 623 OFFCURVE",
"250 659 OFFCURVE",
"202 659 CURVE SMOOTH"
);
},
{
closed = 1;
nodes = (
"319 781 LINE",
"240 781 LINE",
"173 679 LINE",
"234 679 LINE",
"320 778 LINE"
);
}
);
width = 403;
}
);
unicode = 01FB;
},
{
glyphname = atilde;
layers = (
{
layerId = "F40DB483-8E41-4DD8-98C6-54B37B54EF1F";
name = Regular;
paths = (
{
closed = 1;
nodes = (
"110 476 OFFCURVE",
"48 431 OFFCURVE",
"48 347 CURVE SMOOTH",
"48 339 OFFCURVE",
"48 332 OFFCURVE",
"49 327 CURVE",
"120 327 LINE",
"120 338 LINE SMOOTH",
"120 373 OFFCURVE",
"137 411 OFFCURVE",
"192 411 CURVE SMOOTH",
"251 411 OFFCURVE",
"265 380 OFFCURVE",
"265 336 CURVE SMOOTH",
"265 276 LINE",
"130 276 OFFCURVE",
"30 248 OFFCURVE",
"30 120 CURVE SMOOTH",
"30 8 OFFCURVE",
"106 -11 OFFCURVE",
"152 -11 CURVE SMOOTH",
"201 -11 OFFCURVE",
"241 12 OFFCURVE",
"265 50 CURVE",
"270 50 LINE",
"278 16 OFFCURVE",
"305 -7 OFFCURVE",
"343 -7 CURVE SMOOTH",
"366 -7 OFFCURVE",
"383 -1 OFFCURVE",
"391 4 CURVE",
"391 54 LINE",
"362 54 LINE SMOOTH",
"350 54 OFFCURVE",
"338 63 OFFCURVE",
"338 85 CURVE SMOOTH",
"338 346 LINE SMOOTH",
"338 428 OFFCURVE",
"291 476 OFFCURVE",
"197 476 CURVE SMOOTH"
);
},
{
closed = 1;
nodes = (
"265 169 LINE",
"265 92 OFFCURVE",
"215 54 OFFCURVE",
"169 54 CURVE SMOOTH",
"128 54 OFFCURVE",
"106 72 OFFCURVE",
"106 125 CURVE SMOOTH",
"106 197 OFFCURVE",
"171 211 OFFCURVE",
"265 211 CURVE"
);
},
{
closed = 1;
nodes = (
"279 639 LINE",
"277 619 OFFCURVE",
"265 612 OFFCURVE",
"249 612 CURVE SMOOTH",
"215 612 OFFCURVE",
"186 639 OFFCURVE",
"148 639 CURVE SMOOTH",
"95 639 OFFCURVE",
"72 588 OFFCURVE",
"72 547 CURVE",
"124 547 LINE",
"126 568 OFFCURVE",
"138 575 OFFCURVE",
"154 575 CURVE SMOOTH",
"188 575 OFFCURVE",
"217 547 OFFCURVE",
"255 547 CURVE SMOOTH",
"309 547 OFFCURVE",
"331 598 OFFCURVE",
"331 639 CURVE"
);
}
);
width = 403;
}
);
unicode = 00E3;
},
{
glyphname = ae;
layers = (
{
anchors = (
{
name = top;
position = "{323, 465}";
}
);
layerId = "F40DB483-8E41-4DD8-98C6-54B37B54EF1F";
name = Regular;
paths = (
{
closed = 1;
nodes = (
"392 476 OFFCURVE",
"351 459 OFFCURVE",
"322 423 CURVE",
"300 457 OFFCURVE",
"259 476 OFFCURVE",
"202 476 CURVE SMOOTH",
"115 476 OFFCURVE",
"53 431 OFFCURVE",
"53 347 CURVE SMOOTH",
"53 339 OFFCURVE",
"53 332 OFFCURVE",
"54 327 CURVE",
"126 327 LINE",
"126 338 LINE SMOOTH",
"126 373 OFFCURVE",
"142 411 OFFCURVE",
"197 411 CURVE SMOOTH",
"256 411 OFFCURVE",
"271 380 OFFCURVE",
"271 336 CURVE SMOOTH",
"271 276 LINE",
"135 276 OFFCURVE",
"35 248 OFFCURVE",
"35 120 CURVE SMOOTH",
"35 8 OFFCURVE",
"113 -11 OFFCURVE",
"171 -11 CURVE SMOOTH",
"225 -11 OFFCURVE",
"272 17 OFFCURVE",
"305 60 CURVE",
"334 11 OFFCURVE",
"382 -11 OFFCURVE",
"446 -11 CURVE SMOOTH",
"537 -11 OFFCURVE",
"598 54 OFFCURVE",
"598 158 CURVE",
"527 158 LINE",
"527 94 OFFCURVE",
"494 54 OFFCURVE",
"448 54 CURVE SMOOTH",
"379 54 OFFCURVE",
"347 103 OFFCURVE",
"347 211 CURVE",
"598 211 LINE",
"598 257 LINE SMOOTH",
"598 413 OFFCURVE",
"547 476 OFFCURVE",
"446 476 CURVE SMOOTH"
);
},
{
closed = 1;
nodes = (
"271 162 LINE",
"271 89 OFFCURVE",
"220 54 OFFCURVE",
"174 54 CURVE SMOOTH",
"133 54 OFFCURVE",
"111 72 OFFCURVE",
"111 125 CURVE SMOOTH",
"111 197 OFFCURVE",
"176 211 OFFCURVE",
"271 211 CURVE"
);
},
{
closed = 1;
nodes = (
"496 411 OFFCURVE",
"522 364 OFFCURVE",
"522 276 CURVE",
"347 276 LINE",
"354 365 OFFCURVE",
"381 411 OFFCURVE",
"446 411 CURVE SMOOTH"
);
}
);
width = 644;
}
);
unicode = 00E6;
},
{
glyphname = aeacute;
layers = (
{
layerId = "F40DB483-8E41-4DD8-98C6-54B37B54EF1F";
name = Regular;
paths = (
{
closed = 1;
nodes = (
"392 476 OFFCURVE",
"351 459 OFFCURVE",
"322 423 CURVE",
"300 457 OFFCURVE",
"259 476 OFFCURVE",
"202 476 CURVE SMOOTH",
"115 476 OFFCURVE",
"53 431 OFFCURVE",
"53 347 CURVE SMOOTH",
"53 339 OFFCURVE",
"53 332 OFFCURVE",
"54 327 CURVE",
"126 327 LINE",
"126 338 LINE SMOOTH",
"126 373 OFFCURVE",
"142 411 OFFCURVE",
"197 411 CURVE SMOOTH",
"256 411 OFFCURVE",
"271 380 OFFCURVE",
"271 336 CURVE SMOOTH",
"271 276 LINE",
"135 276 OFFCURVE",
"35 248 OFFCURVE",
"35 120 CURVE SMOOTH",
"35 8 OFFCURVE",
"113 -11 OFFCURVE",
"171 -11 CURVE SMOOTH",
"225 -11 OFFCURVE",
"272 17 OFFCURVE",
"305 60 CURVE",
"334 11 OFFCURVE",
"382 -11 OFFCURVE",
"446 -11 CURVE SMOOTH",
"537 -11 OFFCURVE",
"598 54 OFFCURVE",
"598 158 CURVE",
"527 158 LINE",
"527 94 OFFCURVE",
"494 54 OFFCURVE",
"448 54 CURVE SMOOTH",
"379 54 OFFCURVE",
"347 103 OFFCURVE",
"347 211 CURVE",
"598 211 LINE",
"598 257 LINE SMOOTH",
"598 413 OFFCURVE",
"547 476 OFFCURVE",
"446 476 CURVE SMOOTH"
);
},
{
closed = 1;
nodes = (
"271 162 LINE",
"271 89 OFFCURVE",
"220 54 OFFCURVE",
"174 54 CURVE SMOOTH",
"133 54 OFFCURVE",
"111 72 OFFCURVE",
"111 125 CURVE SMOOTH",
"111 197 OFFCURVE",
"176 211 OFFCURVE",
"271 211 CURVE"
);
},
{
closed = 1;
nodes = (
"496 411 OFFCURVE",
"522 364 OFFCURVE",
"522 276 CURVE",
"347 276 LINE",
"354 365 OFFCURVE",
"381 411 OFFCURVE",
"446 411 CURVE SMOOTH"
);
},
{
closed = 1;
nodes = (
"425 639 LINE",
"346 639 LINE",
"270 522 LINE",
"331 522 LINE",
"426 636 LINE"
);
}
);
width = 644;
}
);
unicode = 01FD;
},
{
glyphname = b;
layers = (
{
layerId = "F40DB483-8E41-4DD8-98C6-54B37B54EF1F";
name = Regular;
paths = (
{
closed = 1;
nodes = (
"126 639 LINE",
"53 639 LINE",
"53 0 LINE",
"108 0 LINE",
"118 54 LINE",
"122 54 LINE",
"144 11 OFFCURVE",
"181 -11 OFFCURVE",
"224 -11 CURVE SMOOTH",
"312 -11 OFFCURVE",
"368 63 OFFCURVE",
"368 233 CURVE SMOOTH",
"368 402 OFFCURVE",
"306 476 OFFCURVE",
"229 476 CURVE SMOOTH",
"184 476 OFFCURVE",
"146 455 OFFCURVE",
"130 421 CURVE",
"126 421 LINE"
);
},
{
closed = 1;
nodes = (
"264 411 OFFCURVE",
"292 365 OFFCURVE",
"292 249 CURVE SMOOTH",
"292 216 LINE SMOOTH",
"292 100 OFFCURVE",
"264 54 OFFCURVE",
"209 54 CURVE SMOOTH",
"153 54 OFFCURVE",
"126 109 OFFCURVE",
"126 216 CURVE SMOOTH",
"126 246 LINE SMOOTH",
"126 355 OFFCURVE",
"153 411 OFFCURVE",
"209 411 CURVE SMOOTH"
);
}
);
width = 403;
}
);
unicode = 0062;
},
{
glyphname = c;
layers = (
{
anchors = (
{
name = bottom;
position = "{181, 0}";
},
{
name = top;
position = "{181, 465}";
}
);
layerId = "F40DB483-8E41-4DD8-98C6-54B37B54EF1F";
name = Regular;
paths = (
{
closed = 1;
nodes = (
"82 476 OFFCURVE",
"32 400 OFFCURVE",
"32 232 CURVE SMOOTH",
"32 65 OFFCURVE",
"81 -11 OFFCURVE",
"191 -11 CURVE SMOOTH",
"293 -11 OFFCURVE",
"333 75 OFFCURVE",
"333 172 CURVE",
"262 172 LINE",
"262 95 OFFCURVE",
"243 54 OFFCURVE",
"191 54 CURVE SMOOTH",
"133 54 OFFCURVE",
"108 109 OFFCURVE",
"108 216 CURVE SMOOTH",
"108 249 LINE SMOOTH",
"108 356 OFFCURVE",
"133 411 OFFCURVE",
"191 411 CURVE SMOOTH",
"243 411 OFFCURVE",
"258 373 OFFCURVE",
"258 293 CURVE",
"333 293 LINE",
"333 411 OFFCURVE",
"292 476 OFFCURVE",
"191 476 CURVE SMOOTH"
);
}
);
width = 362;
}
);
unicode = 0063;
},
{
glyphname = cacute;
layers = (
{
layerId = "F40DB483-8E41-4DD8-98C6-54B37B54EF1F";
name = Regular;
paths = (
{
closed = 1;
nodes = (
"82 476 OFFCURVE",
"32 400 OFFCURVE",
"32 232 CURVE SMOOTH",
"32 65 OFFCURVE",
"81 -11 OFFCURVE",
"191 -11 CURVE SMOOTH",
"293 -11 OFFCURVE",
"333 75 OFFCURVE",
"333 172 CURVE",
"262 172 LINE",
"262 95 OFFCURVE",
"243 54 OFFCURVE",
"191 54 CURVE SMOOTH",
"133 54 OFFCURVE",
"108 109 OFFCURVE",
"108 216 CURVE SMOOTH",
"108 249 LINE SMOOTH",
"108 356 OFFCURVE",
"133 411 OFFCURVE",
"191 411 CURVE SMOOTH",
"243 411 OFFCURVE",
"258 373 OFFCURVE",
"258 293 CURVE",
"333 293 LINE",
"333 411 OFFCURVE",
"292 476 OFFCURVE",
"191 476 CURVE SMOOTH"
);
},
{
closed = 1;
nodes = (
"293 639 LINE",
"213 639 LINE",
"137 522 LINE",
"199 522 LINE",
"293 636 LINE"
);
}
);
width = 362;
}
);
unicode = 0107;
},
{
glyphname = ccaron;
layers = (
{
layerId = "F40DB483-8E41-4DD8-98C6-54B37B54EF1F";
name = Regular;
paths = (
{
closed = 1;
nodes = (
"82 476 OFFCURVE",
"32 400 OFFCURVE",
"32 232 CURVE SMOOTH",
"32 65 OFFCURVE",
"81 -11 OFFCURVE",
"191 -11 CURVE SMOOTH",
"293 -11 OFFCURVE",
"333 75 OFFCURVE",
"333 172 CURVE",
"262 172 LINE",
"262 95 OFFCURVE",
"243 54 OFFCURVE",
"191 54 CURVE SMOOTH",
"133 54 OFFCURVE",
"108 109 OFFCURVE",
"108 216 CURVE SMOOTH",
"108 249 LINE SMOOTH",
"108 356 OFFCURVE",
"133 411 OFFCURVE",
"191 411 CURVE SMOOTH",
"243 411 OFFCURVE",
"258 373 OFFCURVE",
"258 293 CURVE",
"333 293 LINE",
"333 411 OFFCURVE",
"292 476 OFFCURVE",
"191 476 CURVE SMOOTH"
);
},
{
closed = 1;
nodes = (
"216 520 LINE",
"292 639 LINE",
"221 639 LINE",
"181 569 LINE",
"142 639 LINE",
"72 639 LINE",
"147 520 LINE"
);
}
);
width = 362;
}
);
unicode = 010D;
},
{
glyphname = ccedilla;
layers = (
{
layerId = "F40DB483-8E41-4DD8-98C6-54B37B54EF1F";
name = Regular;
paths = (
{
closed = 1;
nodes = (
"82 476 OFFCURVE",
"32 400 OFFCURVE",
"32 232 CURVE SMOOTH",
"32 89 OFFCURVE",
"68 13 OFFCURVE",
"148 -5 CURVE",
"138 -68 LINE",
"167 -68 LINE SMOOTH",
"190 -68 OFFCURVE",
"197 -75 OFFCURVE",
"197 -89 CURVE SMOOTH",
"197 -106 OFFCURVE",
"185 -111 OFFCURVE",
"165 -111 CURVE SMOOTH",
"98 -111 LINE",
"98 -154 LINE",
"119 -158 OFFCURVE",
"148 -161 OFFCURVE",
"172 -161 CURVE SMOOTH",
"209 -161 OFFCURVE",
"264 -149 OFFCURVE",
"264 -89 CURVE SMOOTH",
"264 -49 OFFCURVE",
"231 -34 OFFCURVE",
"193 -32 CURVE",
"195 -11 LINE",
"294 -8 OFFCURVE",
"333 77 OFFCURVE",
"333 172 CURVE",
"262 172 LINE",
"262 95 OFFCURVE",
"243 54 OFFCURVE",
"191 54 CURVE SMOOTH",
"133 54 OFFCURVE",
"108 109 OFFCURVE",
"108 216 CURVE SMOOTH",
"108 249 LINE SMOOTH",
"108 356 OFFCURVE",
"133 411 OFFCURVE",
"191 411 CURVE SMOOTH",
"243 411 OFFCURVE",
"258 373 OFFCURVE",
"258 293 CURVE",
"333 293 LINE",
"333 411 OFFCURVE",
"292 476 OFFCURVE",
"191 476 CURVE SMOOTH"
);
}
);
width = 362;
}
);
unicode = 00E7;
},
{
glyphname = ccircumflex;
layers = (
{
layerId = "F40DB483-8E41-4DD8-98C6-54B37B54EF1F";
name = Regular;
paths = (
{
closed = 1;
nodes = (
"82 476 OFFCURVE",
"32 400 OFFCURVE",
"32 232 CURVE SMOOTH",
"32 65 OFFCURVE",
"81 -11 OFFCURVE",
"191 -11 CURVE SMOOTH",
"293 -11 OFFCURVE",
"333 75 OFFCURVE",
"333 172 CURVE",
"262 172 LINE",
"262 95 OFFCURVE",
"243 54 OFFCURVE",
"191 54 CURVE SMOOTH",
"133 54 OFFCURVE",
"108 109 OFFCURVE",
"108 216 CURVE SMOOTH",
"108 249 LINE SMOOTH",
"108 356 OFFCURVE",
"133 411 OFFCURVE",
"191 411 CURVE SMOOTH",
"243 411 OFFCURVE",
"258 373 OFFCURVE",
"258 293 CURVE",
"333 293 LINE",
"333 411 OFFCURVE",
"292 476 OFFCURVE",
"191 476 CURVE SMOOTH"
);
},
{
closed = 1;
nodes = (
"292 519 LINE",
"217 638 LINE",
"148 638 LINE",
"72 519 LINE",
"142 519 LINE",
"182 589 LINE",
"221 519 LINE"
);
}
);
width = 362;
}
);
unicode = 0109;
},
{
glyphname = cdotaccent;
layers = (
{
layerId = "F40DB483-8E41-4DD8-98C6-54B37B54EF1F";
name = Regular;
paths = (
{
closed = 1;
nodes = (
"82 476 OFFCURVE",
"32 400 OFFCURVE",
"32 232 CURVE SMOOTH",
"32 65 OFFCURVE",
"81 -11 OFFCURVE",
"191 -11 CURVE SMOOTH",
"293 -11 OFFCURVE",
"333 75 OFFCURVE",
"333 172 CURVE",
"262 172 LINE",
"262 95 OFFCURVE",
"243 54 OFFCURVE",
"191 54 CURVE SMOOTH",
"133 54 OFFCURVE",
"108 109 OFFCURVE",
"108 216 CURVE SMOOTH",
"108 249 LINE SMOOTH",
"108 356 OFFCURVE",
"133 411 OFFCURVE",
"191 411 CURVE SMOOTH",
"243 411 OFFCURVE",
"258 373 OFFCURVE",
"258 293 CURVE",
"333 293 LINE",
"333 411 OFFCURVE",
"292 476 OFFCURVE",
"191 476 CURVE SMOOTH"
);
},
{
closed = 1;
nodes = (
"220 555 LINE",
"220 639 LINE",
"143 639 LINE",
"143 555 LINE"
);
}
);
width = 362;
}
);
unicode = 010B;
},
{
glyphname = d;
layers = (
{
anchors = (
{
name = center;
position = "{202, 232}";
}
);
layerId = "F40DB483-8E41-4DD8-98C6-54B37B54EF1F";
name = Regular;
paths = (
{
closed = 1;
nodes = (
"350 0 LINE",
"350 639 LINE",
"278 639 LINE",
"278 421 LINE",
"273 421 LINE",
"257 455 OFFCURVE",
"219 476 OFFCURVE",
"174 476 CURVE SMOOTH",
"97 476 OFFCURVE",
"35 402 OFFCURVE",
"35 233 CURVE SMOOTH",
"35 63 OFFCURVE",
"91 -11 OFFCURVE",
"179 -11 CURVE SMOOTH",
"222 -11 OFFCURVE",
"259 11 OFFCURVE",
"281 54 CURVE",
"286 54 LINE",
"295 0 LINE"
);
},
{
closed = 1;
nodes = (
"250 411 OFFCURVE",
"278 355 OFFCURVE",
"278 246 CURVE SMOOTH",
"278 216 LINE SMOOTH",
"278 109 OFFCURVE",
"250 54 OFFCURVE",
"194 54 CURVE SMOOTH",
"139 54 OFFCURVE",
"111 100 OFFCURVE",
"111 216 CURVE SMOOTH",
"111 249 LINE SMOOTH",
"111 365 OFFCURVE",
"139 411 OFFCURVE",
"194 411 CURVE SMOOTH"
);
}
);
width = 403;
}
);
unicode = 0064;
},
{
glyphname = eth;
layers = (
{
layerId = "F40DB483-8E41-4DD8-98C6-54B37B54EF1F";
name = Regular;
paths = (
{
closed = 1;
nodes = (
"105 639 LINE",
"103 636 LINE",
"118 620 OFFCURVE",
"132 604 OFFCURVE",
"145 589 CURVE",
"82 583 LINE",
"82 530 LINE",
"187 539 LINE",
"206 513 OFFCURVE",
"224 488 OFFCURVE",
"238 461 CURVE",
"240 463 LINE",
"225 470 OFFCURVE",
"210 476 OFFCURVE",
"192 476 CURVE SMOOTH",
"101 476 OFFCURVE",
"35 404 OFFCURVE",
"35 232 CURVE SMOOTH",
"35 65 OFFCURVE",
"93 -11 OFFCURVE",
"202 -11 CURVE SMOOTH",
"310 -11 OFFCURVE",
"368 65 OFFCURVE",
"368 232 CURVE SMOOTH",
"368 361 OFFCURVE",
"326 461 OFFCURVE",
"263 546 CURVE",
"326 552 LINE",
"326 606 LINE",
"223 596 LINE",
"210 611 OFFCURVE",
"196 625 OFFCURVE",
"183 639 CURVE"
);
},
{
closed = 1;
nodes = (
"261 411 OFFCURVE",
"292 356 OFFCURVE",
"292 249 CURVE SMOOTH",
"292 216 LINE SMOOTH",
"292 109 OFFCURVE",
"262 54 OFFCURVE",
"202 54 CURVE SMOOTH",
"141 54 OFFCURVE",
"111 109 OFFCURVE",
"111 216 CURVE SMOOTH",
"111 249 LINE SMOOTH",
"111 356 OFFCURVE",
"141 411 OFFCURVE",
"202 411 CURVE SMOOTH"
);
}
);
width = 403;
}
);
unicode = 00F0;
},
{
glyphname = dcaron;
layers = (
{
layerId = "F40DB483-8E41-4DD8-98C6-54B37B54EF1F";
name = Regular;
paths = (
{
closed = 1;
nodes = (
"350 0 LINE",
"350 639 LINE",
"278 639 LINE",
"278 421 LINE",
"273 421 LINE",
"257 455 OFFCURVE",
"219 476 OFFCURVE",
"174 476 CURVE SMOOTH",
"97 476 OFFCURVE",
"35 402 OFFCURVE",
"35 233 CURVE SMOOTH",
"35 63 OFFCURVE",
"91 -11 OFFCURVE",
"179 -11 CURVE SMOOTH",
"222 -11 OFFCURVE",
"259 11 OFFCURVE",
"281 54 CURVE",
"286 54 LINE",
"295 0 LINE"
);
},
{
closed = 1;
nodes = (
"250 411 OFFCURVE",
"278 355 OFFCURVE",
"278 246 CURVE SMOOTH",
"278 216 LINE SMOOTH",
"278 109 OFFCURVE",
"250 54 OFFCURVE",
"194 54 CURVE SMOOTH",
"139 54 OFFCURVE",
"111 100 OFFCURVE",
"111 216 CURVE SMOOTH",
"111 249 LINE SMOOTH",
"111 365 OFFCURVE",
"139 411 OFFCURVE",
"194 411 CURVE SMOOTH"
);
},
{
closed = 1;
nodes = (
"474 519 LINE",
"474 606 LINE",
"385 606 LINE",
"385 511 LINE",
"421 511 LINE",
"385 401 LINE",
"431 401 LINE"
);
}
);
width = 446;
}
);
unicode = 010F;
},
{
glyphname = dcroat;
layers = (
{
layerId = "F40DB483-8E41-4DD8-98C6-54B37B54EF1F";
name = Regular;
paths = (
{
closed = 1;
nodes = (
"350 639 LINE",
"278 639 LINE",
"278 575 LINE",
"179 575 LINE",
"179 515 LINE",
"278 515 LINE",
"278 421 LINE",
"273 421 LINE",
"257 455 OFFCURVE",
"219 476 OFFCURVE",
"174 476 CURVE SMOOTH",
"97 476 OFFCURVE",
"35 402 OFFCURVE",
"35 233 CURVE SMOOTH",
"35 63 OFFCURVE",
"91 -11 OFFCURVE",
"179 -11 CURVE SMOOTH",
"222 -11 OFFCURVE",
"259 11 OFFCURVE",
"281 54 CURVE",
"286 54 LINE",
"295 0 LINE",
"350 0 LINE",
"350 515 LINE",
"401 515 LINE",
"401 575 LINE",
"350 575 LINE"
);
},
{
closed = 1;
nodes = (
"250 411 OFFCURVE",
"278 355 OFFCURVE",
"278 246 CURVE SMOOTH",
"278 216 LINE SMOOTH",
"278 109 OFFCURVE",
"250 54 OFFCURVE",
"194 54 CURVE SMOOTH",
"139 54 OFFCURVE",
"111 100 OFFCURVE",
"111 216 CURVE SMOOTH",
"111 249 LINE SMOOTH",
"111 365 OFFCURVE",
"139 411 OFFCURVE",
"194 411 CURVE SMOOTH"
);
}
);
width = 400;
}
);
unicode = 0111;
},
{
glyphname = e;
layers = (
{
anchors = (
{
name = bottom;
position = "{202, 0}";
},
{
name = ogonek;
position = "{362, 9}";
},
{
name = top;
position = "{202, 465}";
}
);
layerId = "F40DB483-8E41-4DD8-98C6-54B37B54EF1F";
name = Regular;
paths = (
{
closed = 1;
nodes = (
"95 476 OFFCURVE",
"37 400 OFFCURVE",
"37 232 CURVE SMOOTH",
"37 60 OFFCURVE",
"97 -11 OFFCURVE",
"213 -11 CURVE SMOOTH",
"303 -11 OFFCURVE",
"365 54 OFFCURVE",
"365 158 CURVE",
"293 158 LINE",
"293 94 OFFCURVE",
"261 54 OFFCURVE",
"215 54 CURVE SMOOTH",
"146 54 OFFCURVE",
"114 103 OFFCURVE",
"113 211 CURVE",
"365 211 LINE",
"365 257 LINE SMOOTH",
"365 413 OFFCURVE",
"314 476 OFFCURVE",
"212 476 CURVE SMOOTH"
);
},
{
closed = 1;
nodes = (
"263 411 OFFCURVE",
"289 364 OFFCURVE",
"289 276 CURVE",
"114 276 LINE",
"120 365 OFFCURVE",
"148 411 OFFCURVE",
"212 411 CURVE SMOOTH"
);
}
);
width = 403;
}
);
unicode = 0065;
},
{
glyphname = eacute;
layers = (
{
layerId = "F40DB483-8E41-4DD8-98C6-54B37B54EF1F";
name = Regular;
paths = (
{
closed = 1;
nodes = (
"95 476 OFFCURVE",
"37 400 OFFCURVE",
"37 232 CURVE SMOOTH",
"37 60 OFFCURVE",
"97 -11 OFFCURVE",
"213 -11 CURVE SMOOTH",
"303 -11 OFFCURVE",
"365 54 OFFCURVE",
"365 158 CURVE",
"293 158 LINE",
"293 94 OFFCURVE",
"261 54 OFFCURVE",
"215 54 CURVE SMOOTH",
"146 54 OFFCURVE",
"114 103 OFFCURVE",
"113 211 CURVE",
"365 211 LINE",
"365 257 LINE SMOOTH",
"365 413 OFFCURVE",
"314 476 OFFCURVE",
"212 476 CURVE SMOOTH"
);
},
{
closed = 1;
nodes = (
"263 411 OFFCURVE",
"289 364 OFFCURVE",
"289 276 CURVE",
"114 276 LINE",
"120 365 OFFCURVE",
"148 411 OFFCURVE",
"212 411 CURVE SMOOTH"
);
},
{
closed = 1;
nodes = (
"315 639 LINE",
"235 639 LINE",
"159 522 LINE",
"221 522 LINE",
"316 636 LINE"
);
}
);
width = 403;
}
);
unicode = 00E9;
},
{
glyphname = ebreve;
layers = (
{
layerId = "F40DB483-8E41-4DD8-98C6-54B37B54EF1F";
name = Regular;
paths = (
{
closed = 1;
nodes = (
"95 476 OFFCURVE",
"37 400 OFFCURVE",
"37 232 CURVE SMOOTH",
"37 60 OFFCURVE",
"97 -11 OFFCURVE",
"213 -11 CURVE SMOOTH",
"303 -11 OFFCURVE",
"365 54 OFFCURVE",
"365 158 CURVE",
"293 158 LINE",
"293 94 OFFCURVE",
"261 54 OFFCURVE",
"215 54 CURVE SMOOTH",
"146 54 OFFCURVE",
"114 103 OFFCURVE",
"113 211 CURVE",
"365 211 LINE",
"365 257 LINE SMOOTH",
"365 413 OFFCURVE",
"314 476 OFFCURVE",
"212 476 CURVE SMOOTH"
);
},
{
closed = 1;
nodes = (
"263 411 OFFCURVE",
"289 364 OFFCURVE",
"289 276 CURVE",
"114 276 LINE",
"120 365 OFFCURVE",
"148 411 OFFCURVE",
"212 411 CURVE SMOOTH"
);
},
{
closed = 1;
nodes = (
"255 639 LINE",
"253 627 OFFCURVE",
"232 610 OFFCURVE",
"202 610 CURVE SMOOTH",
"171 610 OFFCURVE",
"152 627 OFFCURVE",
"149 639 CURVE",
"92 639 LINE",
"92 599 OFFCURVE",
"134 553 OFFCURVE",
"202 553 CURVE SMOOTH",
"270 553 OFFCURVE",
"311 599 OFFCURVE",
"311 639 CURVE"
);
}
);
width = 403;
}
);
unicode = 0115;
},
{
glyphname = ecaron;
layers = (
{
layerId = "F40DB483-8E41-4DD8-98C6-54B37B54EF1F";
name = Regular;
paths = (
{
closed = 1;
nodes = (
"95 476 OFFCURVE",
"37 400 OFFCURVE",
"37 232 CURVE SMOOTH",
"37 60 OFFCURVE",
"97 -11 OFFCURVE",
"213 -11 CURVE SMOOTH",
"303 -11 OFFCURVE",
"365 54 OFFCURVE",
"365 158 CURVE",
"293 158 LINE",
"293 94 OFFCURVE",
"261 54 OFFCURVE",
"215 54 CURVE SMOOTH",
"146 54 OFFCURVE",
"114 103 OFFCURVE",
"113 211 CURVE",
"365 211 LINE",
"365 257 LINE SMOOTH",
"365 413 OFFCURVE",
"314 476 OFFCURVE",
"212 476 CURVE SMOOTH"
);
},
{
closed = 1;
nodes = (
"263 411 OFFCURVE",
"289 364 OFFCURVE",
"289 276 CURVE",
"114 276 LINE",
"120 365 OFFCURVE",
"148 411 OFFCURVE",
"212 411 CURVE SMOOTH"
);
},
{
closed = 1;
nodes = (
"236 520 LINE",
"312 639 LINE",
"241 639 LINE",
"202 569 LINE",
"163 639 LINE",
"92 639 LINE",
"166 520 LINE"
);
}
);
width = 403;
}
);
unicode = 011B;
},
{
glyphname = ecircumflex;
layers = (
{
layerId = "F40DB483-8E41-4DD8-98C6-54B37B54EF1F";
name = Regular;
paths = (
{
closed = 1;
nodes = (
"95 476 OFFCURVE",
"37 400 OFFCURVE",
"37 232 CURVE SMOOTH",
"37 60 OFFCURVE",
"97 -11 OFFCURVE",
"213 -11 CURVE SMOOTH",
"303 -11 OFFCURVE",
"365 54 OFFCURVE",
"365 158 CURVE",
"293 158 LINE",
"293 94 OFFCURVE",
"261 54 OFFCURVE",
"215 54 CURVE SMOOTH",
"146 54 OFFCURVE",
"114 103 OFFCURVE",
"113 211 CURVE",
"365 211 LINE",
"365 257 LINE SMOOTH",
"365 413 OFFCURVE",
"314 476 OFFCURVE",
"212 476 CURVE SMOOTH"
);
},
{
closed = 1;
nodes = (
"263 411 OFFCURVE",
"289 364 OFFCURVE",
"289 276 CURVE",
"114 276 LINE",
"120 365 OFFCURVE",
"148 411 OFFCURVE",
"212 411 CURVE SMOOTH"
);
},
{
closed = 1;
nodes = (
"312 519 LINE",
"237 638 LINE",
"167 638 LINE",
"92 519 LINE",
"163 519 LINE",
"202 589 LINE",
"241 519 LINE"
);
}
);
width = 403;
}
);
unicode = 00EA;
},
{
glyphname = edieresis;
layers = (
{
layerId = "F40DB483-8E41-4DD8-98C6-54B37B54EF1F";
name = Regular;
paths = (
{
closed = 1;
nodes = (
"95 476 OFFCURVE",
"37 400 OFFCURVE",
"37 232 CURVE SMOOTH",
"37 60 OFFCURVE",
"97 -11 OFFCURVE",
"213 -11 CURVE SMOOTH",
"303 -11 OFFCURVE",
"365 54 OFFCURVE",
"365 158 CURVE",
"293 158 LINE",
"293 94 OFFCURVE",
"261 54 OFFCURVE",
"215 54 CURVE SMOOTH",
"146 54 OFFCURVE",
"114 103 OFFCURVE",
"113 211 CURVE",
"365 211 LINE",
"365 257 LINE SMOOTH",
"365 413 OFFCURVE",
"314 476 OFFCURVE",
"212 476 CURVE SMOOTH"
);
},
{
closed = 1;
nodes = (
"263 411 OFFCURVE",
"289 364 OFFCURVE",
"289 276 CURVE",
"114 276 LINE",
"120 365 OFFCURVE",
"148 411 OFFCURVE",
"212 411 CURVE SMOOTH"
);
},
{
closed = 1;
nodes = (
"173 639 LINE",
"96 639 LINE",
"96 555 LINE",
"173 555 LINE"
);
},
{
closed = 1;
nodes = (
"307 639 LINE",
"229 639 LINE",
"229 555 LINE",
"307 555 LINE"
);
}
);
width = 403;
}
);
unicode = 00EB;
},
{
glyphname = edotaccent;
layers = (
{
layerId = "F40DB483-8E41-4DD8-98C6-54B37B54EF1F";
name = Regular;
paths = (
{
closed = 1;
nodes = (
"95 476 OFFCURVE",
"37 400 OFFCURVE",
"37 232 CURVE SMOOTH",
"37 60 OFFCURVE",
"97 -11 OFFCURVE",
"213 -11 CURVE SMOOTH",
"303 -11 OFFCURVE",
"365 54 OFFCURVE",
"365 158 CURVE",
"293 158 LINE",
"293 94 OFFCURVE",
"261 54 OFFCURVE",
"215 54 CURVE SMOOTH",
"146 54 OFFCURVE",
"114 103 OFFCURVE",
"113 211 CURVE",
"365 211 LINE",
"365 257 LINE SMOOTH",
"365 413 OFFCURVE",
"314 476 OFFCURVE",
"212 476 CURVE SMOOTH"
);
},
{
closed = 1;
nodes = (
"263 411 OFFCURVE",
"289 364 OFFCURVE",
"289 276 CURVE",
"114 276 LINE",
"120 365 OFFCURVE",
"148 411 OFFCURVE",
"212 411 CURVE SMOOTH"
);
},
{
closed = 1;
nodes = (
"240 555 LINE",
"240 639 LINE",
"164 639 LINE",
"164 555 LINE"
);
}
);
width = 403;
}
);
unicode = 0117;
},
{
glyphname = egrave;
layers = (
{
layerId = "F40DB483-8E41-4DD8-98C6-54B37B54EF1F";
name = Regular;
paths = (
{
closed = 1;
nodes = (
"95 476 OFFCURVE",
"37 400 OFFCURVE",
"37 232 CURVE SMOOTH",
"37 60 OFFCURVE",
"97 -11 OFFCURVE",
"213 -11 CURVE SMOOTH",
"303 -11 OFFCURVE",
"365 54 OFFCURVE",
"365 158 CURVE",
"293 158 LINE",
"293 94 OFFCURVE",
"261 54 OFFCURVE",
"215 54 CURVE SMOOTH",
"146 54 OFFCURVE",
"114 103 OFFCURVE",
"113 211 CURVE",
"365 211 LINE",
"365 257 LINE SMOOTH",
"365 413 OFFCURVE",
"314 476 OFFCURVE",
"212 476 CURVE SMOOTH"
);
},
{
closed = 1;
nodes = (
"263 411 OFFCURVE",
"289 364 OFFCURVE",
"289 276 CURVE",
"114 276 LINE",
"120 365 OFFCURVE",
"148 411 OFFCURVE",
"212 411 CURVE SMOOTH"
);
},
{
closed = 1;
nodes = (
"188 639 LINE",
"109 639 LINE",
"108 636 LINE",
"203 522 LINE",
"264 522 LINE"
);
}
);
width = 403;
}
);
unicode = 00E8;
},
{
glyphname = emacron;
layers = (
{
layerId = "F40DB483-8E41-4DD8-98C6-54B37B54EF1F";
name = Regular;
paths = (
{
closed = 1;
nodes = (
"95 476 OFFCURVE",
"37 400 OFFCURVE",
"37 232 CURVE SMOOTH",
"37 60 OFFCURVE",
"97 -11 OFFCURVE",
"213 -11 CURVE SMOOTH",
"303 -11 OFFCURVE",
"365 54 OFFCURVE",
"365 158 CURVE",
"293 158 LINE",
"293 94 OFFCURVE",
"261 54 OFFCURVE",
"215 54 CURVE SMOOTH",
"146 54 OFFCURVE",
"114 103 OFFCURVE",
"113 211 CURVE",
"365 211 LINE",
"365 257 LINE SMOOTH",
"365 413 OFFCURVE",
"314 476 OFFCURVE",
"212 476 CURVE SMOOTH"
);
},
{
closed = 1;
nodes = (
"263 411 OFFCURVE",
"289 364 OFFCURVE",
"289 276 CURVE",
"114 276 LINE",
"120 365 OFFCURVE",
"148 411 OFFCURVE",
"212 411 CURVE SMOOTH"
);
},
{
closed = 1;
nodes = (
"313 530 LINE",
"313 593 LINE",
"91 593 LINE",
"91 530 LINE"
);
}
);
width = 403;
}
);
unicode = 0113;
},
{
glyphname = eogonek;
layers = (
{
layerId = "F40DB483-8E41-4DD8-98C6-54B37B54EF1F";
name = Regular;
paths = (
{
closed = 1;
nodes = (
"95 476 OFFCURVE",
"37 400 OFFCURVE",
"37 232 CURVE SMOOTH",
"37 60 OFFCURVE",
"97 -11 OFFCURVE",
"213 -11 CURVE SMOOTH",
"225 -11 OFFCURVE",
"233 -10 OFFCURVE",
"244 -8 CURVE",
"228 4 LINE",
"207 -17 OFFCURVE",
"191 -42 OFFCURVE",
"191 -81 CURVE SMOOTH",
"191 -142 OFFCURVE",
"236 -161 OFFCURVE",
"274 -161 CURVE SMOOTH",
"292 -161 OFFCURVE",
"309 -156 OFFCURVE",
"328 -149 CURVE",
"328 -103 LINE",
"300 -103 LINE SMOOTH",
"271 -103 OFFCURVE",
"260 -80 OFFCURVE",
"260 -55 CURVE SMOOTH",
"260 -30 OFFCURVE",
"275 -6 OFFCURVE",
"286 6 CURVE",
"334 32 OFFCURVE",
"365 85 OFFCURVE",
"365 158 CURVE",
"293 158 LINE",
"293 94 OFFCURVE",
"261 54 OFFCURVE",
"215 54 CURVE SMOOTH",
"146 54 OFFCURVE",
"114 103 OFFCURVE",
"113 211 CURVE",
"365 211 LINE",
"365 257 LINE SMOOTH",
"365 413 OFFCURVE",
"314 476 OFFCURVE",
"212 476 CURVE SMOOTH"
);
},
{
closed = 1;
nodes = (
"263 411 OFFCURVE",
"289 364 OFFCURVE",
"289 276 CURVE",
"114 276 LINE",
"120 365 OFFCURVE",
"148 411 OFFCURVE",
"212 411 CURVE SMOOTH"
);
}
);
width = 403;
}
);
unicode = 0119;
},
{
glyphname = f;
layers = (
{
layerId = "F40DB483-8E41-4DD8-98C6-54B37B54EF1F";
name = Regular;
paths = (
{
closed = 1;
nodes = (
"70 646 OFFCURVE",
"49 592 OFFCURVE",
"49 539 CURVE SMOOTH",
"49 465 LINE",
"8 465 LINE",
"8 400 LINE",
"49 400 LINE",
"49 0 LINE",
"121 0 LINE",
"121 400 LINE",
"202 400 LINE",
"202 465 LINE",
"121 465 LINE",
"121 543 LINE SMOOTH",
"121 570 OFFCURVE",
"135 585 OFFCURVE",
"163 585 CURVE SMOOTH",
"202 585 LINE",
"202 636 LINE",
"187 641 OFFCURVE",
"162 646 OFFCURVE",
"141 646 CURVE SMOOTH"
);
}
);
width = 202;
}
);
unicode = 0066;
},
{
glyphname = g;
layers = (
{
anchors = (
{
name = top;
position = "{202, 465}";
}
);
layerId = "F40DB483-8E41-4DD8-98C6-54B37B54EF1F";
name = Regular;
paths = (
{
closed = 1;
nodes = (
"322 540 LINE",
"317 511 OFFCURVE",
"306 481 OFFCURVE",
"264 459 CURVE",
"245 469 OFFCURVE",
"221 476 OFFCURVE",
"197 476 CURVE SMOOTH",
"103 476 OFFCURVE",
"45 416 OFFCURVE",
"45 319 CURVE SMOOTH",
"45 267 OFFCURVE",
"65 226 OFFCURVE",
"99 199 CURVE",
"60 185 OFFCURVE",
"34 156 OFFCURVE",
"34 118 CURVE SMOOTH",
"34 91 OFFCURVE",
"48 64 OFFCURVE",
"72 49 CURVE",
"34 34 OFFCURVE",
"11 -5 OFFCURVE",
"11 -50 CURVE SMOOTH",
"11 -111 OFFCURVE",
"50 -161 OFFCURVE",
"126 -161 CURVE SMOOTH",
"258 -161 LINE SMOOTH",
"347 -161 OFFCURVE",
"394 -103 OFFCURVE",
"394 -29 CURVE SMOOTH",
"394 30 OFFCURVE",
"352 80 OFFCURVE",
"285 80 CURVE SMOOTH",
"152 80 LINE SMOOTH",
"129 80 OFFCURVE",
"110 98 OFFCURVE",
"110 121 CURVE SMOOTH",
"110 144 OFFCURVE",
"128 163 OFFCURVE",
"152 163 CURVE SMOOTH",
"201 163 LINE SMOOTH",
"291 164 OFFCURVE",
"349 223 OFFCURVE",
"349 319 CURVE SMOOTH",
"349 365 OFFCURVE",
"333 402 OFFCURVE",
"308 429 CURVE",
"356 441 OFFCURVE",
"385 484 OFFCURVE",
"385 540 CURVE"
);
},
{
closed = 1;
nodes = (
"266 11 LINE",
"303 11 OFFCURVE",
"321 -13 OFFCURVE",
"321 -43 CURVE SMOOTH",
"321 -73 OFFCURVE",
"297 -98 OFFCURVE",
"266 -98 CURVE SMOOTH",
"138 -98 LINE SMOOTH",
"102 -98 OFFCURVE",
"84 -73 OFFCURVE",
"84 -43 CURVE SMOOTH",
"84 -13 OFFCURVE",
"101 11 OFFCURVE",
"138 11 CURVE SMOOTH"
);
},
{
closed = 1;
nodes = (
"248 415 OFFCURVE",
"276 381 OFFCURVE",
"276 319 CURVE SMOOTH",
"276 260 OFFCURVE",
"248 223 OFFCURVE",
"196 223 CURVE SMOOTH",
"145 223 OFFCURVE",
"118 257 OFFCURVE",
"118 319 CURVE SMOOTH",
"118 378 OFFCURVE",
"145 415 OFFCURVE",
"196 415 CURVE SMOOTH"
);
}
);
width = 403;
}
);
unicode = 0067;
},
{
glyphname = gbreve;
layers = (
{
layerId = "F40DB483-8E41-4DD8-98C6-54B37B54EF1F";
name = Regular;
paths = (
{
closed = 1;
nodes = (
"322 540 LINE",
"317 511 OFFCURVE",
"306 481 OFFCURVE",
"264 459 CURVE",
"245 469 OFFCURVE",
"221 476 OFFCURVE",
"197 476 CURVE SMOOTH",
"103 476 OFFCURVE",
"45 416 OFFCURVE",
"45 319 CURVE SMOOTH",
"45 267 OFFCURVE",
"65 226 OFFCURVE",
"99 199 CURVE",
"60 185 OFFCURVE",
"34 156 OFFCURVE",
"34 118 CURVE SMOOTH",
"34 91 OFFCURVE",
"48 64 OFFCURVE",
"72 49 CURVE",
"34 34 OFFCURVE",
"11 -5 OFFCURVE",
"11 -50 CURVE SMOOTH",
"11 -111 OFFCURVE",
"50 -161 OFFCURVE",
"126 -161 CURVE SMOOTH",
"258 -161 LINE SMOOTH",
"347 -161 OFFCURVE",
"394 -103 OFFCURVE",
"394 -29 CURVE SMOOTH",
"394 30 OFFCURVE",
"352 80 OFFCURVE",
"285 80 CURVE SMOOTH",
"152 80 LINE SMOOTH",
"129 80 OFFCURVE",
"110 98 OFFCURVE",
"110 121 CURVE SMOOTH",
"110 144 OFFCURVE",
"128 163 OFFCURVE",
"152 163 CURVE SMOOTH",
"201 163 LINE SMOOTH",
"291 164 OFFCURVE",
"349 223 OFFCURVE",
"349 319 CURVE SMOOTH",
"349 365 OFFCURVE",
"333 402 OFFCURVE",
"308 429 CURVE",
"356 441 OFFCURVE",
"385 484 OFFCURVE",
"385 540 CURVE"
);
},
{
closed = 1;
nodes = (
"266 11 LINE",
"303 11 OFFCURVE",
"321 -13 OFFCURVE",
"321 -43 CURVE SMOOTH",
"321 -73 OFFCURVE",
"297 -98 OFFCURVE",
"266 -98 CURVE SMOOTH",
"138 -98 LINE SMOOTH",
"102 -98 OFFCURVE",
"84 -73 OFFCURVE",
"84 -43 CURVE SMOOTH",
"84 -13 OFFCURVE",
"101 11 OFFCURVE",
"138 11 CURVE SMOOTH"
);
},
{
closed = 1;
nodes = (
"248 415 OFFCURVE",
"276 381 OFFCURVE",
"276 319 CURVE SMOOTH",
"276 260 OFFCURVE",
"248 223 OFFCURVE",
"196 223 CURVE SMOOTH",
"145 223 OFFCURVE",
"118 257 OFFCURVE",
"118 319 CURVE SMOOTH",
"118 378 OFFCURVE",
"145 415 OFFCURVE",
"196 415 CURVE SMOOTH"
);
},
{
closed = 1;
nodes = (
"255 639 LINE",
"253 627 OFFCURVE",
"232 610 OFFCURVE",
"202 610 CURVE SMOOTH",
"171 610 OFFCURVE",
"152 627 OFFCURVE",
"149 639 CURVE",
"92 639 LINE",
"92 599 OFFCURVE",
"134 553 OFFCURVE",
"202 553 CURVE SMOOTH",
"270 553 OFFCURVE",
"311 599 OFFCURVE",
"311 639 CURVE"
);
}
);
width = 403;
}
);
unicode = 011F;
},
{
glyphname = gcircumflex;
layers = (
{
layerId = "F40DB483-8E41-4DD8-98C6-54B37B54EF1F";
name = Regular;
paths = (
{
closed = 1;
nodes = (
"326 540 LINE",
"324 498 OFFCURVE",
"309 481 OFFCURVE",
"264 459 CURVE",
"245 469 OFFCURVE",
"221 476 OFFCURVE",
"197 476 CURVE SMOOTH",
"103 476 OFFCURVE",
"45 416 OFFCURVE",
"45 319 CURVE SMOOTH",
"45 267 OFFCURVE",
"65 226 OFFCURVE",
"99 199 CURVE",
"60 185 OFFCURVE",
"34 156 OFFCURVE",
"34 118 CURVE SMOOTH",
"34 91 OFFCURVE",
"48 64 OFFCURVE",
"72 49 CURVE",
"34 34 OFFCURVE",
"11 -5 OFFCURVE",
"11 -50 CURVE SMOOTH",
"11 -111 OFFCURVE",
"50 -161 OFFCURVE",
"126 -161 CURVE SMOOTH",
"258 -161 LINE SMOOTH",
"347 -161 OFFCURVE",
"394 -103 OFFCURVE",
"394 -29 CURVE SMOOTH",
"394 30 OFFCURVE",
"352 80 OFFCURVE",
"285 80 CURVE SMOOTH",
"152 80 LINE SMOOTH",
"129 80 OFFCURVE",
"110 98 OFFCURVE",
"110 121 CURVE SMOOTH",
"110 144 OFFCURVE",
"128 163 OFFCURVE",
"152 163 CURVE SMOOTH",
"201 163 LINE SMOOTH",
"291 164 OFFCURVE",
"349 223 OFFCURVE",
"349 319 CURVE SMOOTH",
"349 365 OFFCURVE",
"333 402 OFFCURVE",
"308 429 CURVE",
"356 441 OFFCURVE",
"385 484 OFFCURVE",
"385 540 CURVE"
);
},
{
closed = 1;
nodes = (
"266 11 LINE",
"303 11 OFFCURVE",
"321 -13 OFFCURVE",
"321 -43 CURVE SMOOTH",
"321 -73 OFFCURVE",
"297 -98 OFFCURVE",
"266 -98 CURVE SMOOTH",
"138 -98 LINE SMOOTH",
"102 -98 OFFCURVE",
"84 -73 OFFCURVE",
"84 -43 CURVE SMOOTH",
"84 -13 OFFCURVE",
"101 11 OFFCURVE",
"138 11 CURVE SMOOTH"
);
},
{
closed = 1;
nodes = (
"248 415 OFFCURVE",
"276 381 OFFCURVE",
"276 319 CURVE SMOOTH",
"276 260 OFFCURVE",
"248 223 OFFCURVE",
"196 223 CURVE SMOOTH",
"145 223 OFFCURVE",
"118 257 OFFCURVE",
"118 319 CURVE SMOOTH",
"118 378 OFFCURVE",
"145 415 OFFCURVE",
"196 415 CURVE SMOOTH"
);
},
{
closed = 1;
nodes = (
"312 519 LINE",
"237 638 LINE",
"167 638 LINE",
"92 519 LINE",
"163 519 LINE",
"202 589 LINE",
"241 519 LINE"
);
}
);
width = 403;
}
);
unicode = 011D;
},
{
glyphname = gcommaaccent;
layers = (
{
layerId = "F40DB483-8E41-4DD8-98C6-54B37B54EF1F";
name = Regular;
paths = (
{
closed = 1;
nodes = (
"322 540 LINE",
"317 511 OFFCURVE",
"306 481 OFFCURVE",
"264 459 CURVE",
"245 469 OFFCURVE",
"221 476 OFFCURVE",
"197 476 CURVE SMOOTH",
"103 476 OFFCURVE",
"45 416 OFFCURVE",
"45 319 CURVE SMOOTH",
"45 267 OFFCURVE",
"65 226 OFFCURVE",
"99 199 CURVE",
"60 185 OFFCURVE",
"34 156 OFFCURVE",
"34 118 CURVE SMOOTH",
"34 91 OFFCURVE",
"48 64 OFFCURVE",
"72 49 CURVE",
"34 34 OFFCURVE",
"11 -5 OFFCURVE",
"11 -50 CURVE SMOOTH",
"11 -111 OFFCURVE",
"50 -161 OFFCURVE",
"126 -161 CURVE SMOOTH",
"258 -161 LINE SMOOTH",
"347 -161 OFFCURVE",
"394 -103 OFFCURVE",
"394 -29 CURVE SMOOTH",
"394 30 OFFCURVE",
"352 80 OFFCURVE",
"285 80 CURVE SMOOTH",
"152 80 LINE SMOOTH",
"129 80 OFFCURVE",
"110 98 OFFCURVE",
"110 121 CURVE SMOOTH",
"110 144 OFFCURVE",
"128 163 OFFCURVE",
"152 163 CURVE SMOOTH",
"201 163 LINE SMOOTH",
"291 164 OFFCURVE",
"349 223 OFFCURVE",
"349 319 CURVE SMOOTH",
"349 365 OFFCURVE",
"333 402 OFFCURVE",
"308 429 CURVE",
"356 441 OFFCURVE",
"385 484 OFFCURVE",
"385 540 CURVE"
);
},
{
closed = 1;
nodes = (
"266 11 LINE",
"303 11 OFFCURVE",
"321 -13 OFFCURVE",
"321 -43 CURVE SMOOTH",
"321 -73 OFFCURVE",
"297 -98 OFFCURVE",
"266 -98 CURVE SMOOTH",
"138 -98 LINE SMOOTH",
"102 -98 OFFCURVE",
"84 -73 OFFCURVE",
"84 -43 CURVE SMOOTH",
"84 -13 OFFCURVE",
"101 11 OFFCURVE",
"138 11 CURVE SMOOTH"
);
},
{
closed = 1;
nodes = (
"248 415 OFFCURVE",
"276 381 OFFCURVE",
"276 319 CURVE SMOOTH",
"276 260 OFFCURVE",
"248 223 OFFCURVE",
"196 223 CURVE SMOOTH",
"145 223 OFFCURVE",
"118 257 OFFCURVE",
"118 319 CURVE SMOOTH",
"118 378 OFFCURVE",
"145 415 OFFCURVE",
"196 415 CURVE SMOOTH"
);
},
{
closed = 1;
nodes = (
"216 669 LINE",
"177 669 LINE",
"150 600 LINE",
"150 526 LINE",
"226 526 LINE",
"226 606 LINE",
"196 606 LINE"
);
}
);
width = 403;
}
);
unicode = 0123;
},
{
glyphname = gdotaccent;
layers = (
{
layerId = "F40DB483-8E41-4DD8-98C6-54B37B54EF1F";
name = Regular;
paths = (
{
closed = 1;
nodes = (
"322 540 LINE",
"317 511 OFFCURVE",
"306 481 OFFCURVE",
"264 459 CURVE",
"245 469 OFFCURVE",
"221 476 OFFCURVE",
"197 476 CURVE SMOOTH",
"103 476 OFFCURVE",
"45 416 OFFCURVE",
"45 319 CURVE SMOOTH",
"45 267 OFFCURVE",
"65 226 OFFCURVE",
"99 199 CURVE",
"60 185 OFFCURVE",
"34 156 OFFCURVE",
"34 118 CURVE SMOOTH",
"34 91 OFFCURVE",
"48 64 OFFCURVE",
"72 49 CURVE",
"34 34 OFFCURVE",
"11 -5 OFFCURVE",
"11 -50 CURVE SMOOTH",
"11 -111 OFFCURVE",
"50 -161 OFFCURVE",
"126 -161 CURVE SMOOTH",
"258 -161 LINE SMOOTH",
"347 -161 OFFCURVE",
"394 -103 OFFCURVE",
"394 -29 CURVE SMOOTH",
"394 30 OFFCURVE",
"352 80 OFFCURVE",
"285 80 CURVE SMOOTH",
"152 80 LINE SMOOTH",
"129 80 OFFCURVE",
"110 98 OFFCURVE",
"110 121 CURVE SMOOTH",
"110 144 OFFCURVE",
"128 163 OFFCURVE",
"152 163 CURVE SMOOTH",
"201 163 LINE SMOOTH",
"291 164 OFFCURVE",
"349 223 OFFCURVE",
"349 319 CURVE SMOOTH",
"349 365 OFFCURVE",
"333 402 OFFCURVE",
"308 429 CURVE",
"356 441 OFFCURVE",
"385 484 OFFCURVE",
"385 540 CURVE"
);
},
{
closed = 1;
nodes = (
"266 11 LINE",
"303 11 OFFCURVE",
"321 -13 OFFCURVE",
"321 -43 CURVE SMOOTH",
"321 -73 OFFCURVE",
"297 -98 OFFCURVE",
"266 -98 CURVE SMOOTH",
"138 -98 LINE SMOOTH",
"102 -98 OFFCURVE",
"84 -73 OFFCURVE",
"84 -43 CURVE SMOOTH",
"84 -13 OFFCURVE",
"101 11 OFFCURVE",
"138 11 CURVE SMOOTH"
);
},
{
closed = 1;
nodes = (
"248 415 OFFCURVE",
"276 381 OFFCURVE",
"276 319 CURVE SMOOTH",
"276 260 OFFCURVE",
"248 223 OFFCURVE",
"196 223 CURVE SMOOTH",
"145 223 OFFCURVE",
"118 257 OFFCURVE",
"118 319 CURVE SMOOTH",
"118 378 OFFCURVE",
"145 415 OFFCURVE",
"196 415 CURVE SMOOTH"
);
},
{
closed = 1;
nodes = (
"240 555 LINE",
"240 639 LINE",
"164 639 LINE",
"164 555 LINE"
);
}
);
width = 403;
}
);
unicode = 0121;
},
{
glyphname = h;
layers = (
{
anchors = (
{
name = center;
position = "{202, 232}";
},
{
name = top;
position = "{202, 465}";
}
);
layerId = "F40DB483-8E41-4DD8-98C6-54B37B54EF1F";
name = Regular;
paths = (
{
closed = 1;
nodes = (
"126 416 LINE",
"126 639 LINE",
"53 639 LINE",
"53 0 LINE",
"126 0 LINE",
"126 284 LINE SMOOTH",
"126 364 OFFCURVE",
"166 411 OFFCURVE",
"212 411 CURVE SMOOTH",
"251 411 OFFCURVE",
"278 394 OFFCURVE",
"278 330 CURVE SMOOTH",
"278 0 LINE",
"350 0 LINE",
"350 335 LINE SMOOTH",
"350 438 OFFCURVE",
"305 476 OFFCURVE",
"235 476 CURVE SMOOTH",
"189 476 OFFCURVE",
"155 458 OFFCURVE",
"131 416 CURVE"
);
}
);
width = 403;
}
);
unicode = 0068;
},
{
glyphname = hbar;
layers = (
{
layerId = "F40DB483-8E41-4DD8-98C6-54B37B54EF1F";
name = Regular;
paths = (
{
closed = 1;
nodes = (
"126 639 LINE",
"53 639 LINE",
"53 575 LINE",
"0 575 LINE",
"0 515 LINE",
"53 515 LINE",
"53 0 LINE",
"126 0 LINE",
"126 284 LINE SMOOTH",
"126 364 OFFCURVE",
"166 411 OFFCURVE",
"212 411 CURVE SMOOTH",
"251 411 OFFCURVE",
"278 394 OFFCURVE",
"278 330 CURVE SMOOTH",
"278 0 LINE",
"350 0 LINE",
"350 335 LINE SMOOTH",
"350 438 OFFCURVE",
"305 476 OFFCURVE",
"235 476 CURVE SMOOTH",
"189 476 OFFCURVE",
"155 458 OFFCURVE",
"131 416 CURVE",
"126 416 LINE",
"126 515 LINE",
"221 515 LINE",
"221 575 LINE",
"126 575 LINE"
);
}
);
width = 403;
}
);
unicode = 0127;
},
{
glyphname = hcircumflex;
layers = (
{
layerId = "F40DB483-8E41-4DD8-98C6-54B37B54EF1F";
name = Regular;
paths = (
{
closed = 1;
nodes = (
"126 416 LINE",
"126 639 LINE",
"53 639 LINE",
"53 0 LINE",
"126 0 LINE",
"126 284 LINE SMOOTH",
"126 364 OFFCURVE",
"166 411 OFFCURVE",
"212 411 CURVE SMOOTH",
"251 411 OFFCURVE",
"278 394 OFFCURVE",
"278 330 CURVE SMOOTH",
"278 0 LINE",
"350 0 LINE",
"350 335 LINE SMOOTH",
"350 438 OFFCURVE",
"305 476 OFFCURVE",
"235 476 CURVE SMOOTH",
"189 476 OFFCURVE",
"155 458 OFFCURVE",
"131 416 CURVE"
);
},
{
closed = 1;
nodes = (
"202 660 LINE",
"126 780 LINE",
"57 780 LINE",
"-19 660 LINE",
"52 660 LINE",
"92 730 LINE",
"131 660 LINE"
);
}
);
width = 403;
}
);
unicode = 0125;
},
{
glyphname = i;
layers = (
{
layerId = "F40DB483-8E41-4DD8-98C6-54B37B54EF1F";
name = Regular;
paths = (
{
closed = 1;
nodes = (
"117 0 LINE",
"117 465 LINE",
"44 465 LINE",
"44 0 LINE"
);
},
{
closed = 1;
nodes = (
"117 552 LINE",
"117 639 LINE",
"44 639 LINE",
"44 552 LINE"
);
}
);
width = 161;
}
);
unicode = 0069;
},
{
glyphname = dotlessi;
layers = (
{
anchors = (
{
name = ogonek;
position = "{181, 9}";
},
{
name = top;
position = "{101, 465}";
}
);
layerId = "F40DB483-8E41-4DD8-98C6-54B37B54EF1F";
name = Regular;
paths = (
{
closed = 1;
nodes = (
"137 0 LINE",
"137 465 LINE",
"65 465 LINE",
"65 0 LINE"
);
}
);
width = 202;
}
);
unicode = 0131;
},
{
glyphname = iacute;
layers = (
{
layerId = "F40DB483-8E41-4DD8-98C6-54B37B54EF1F";
name = Regular;
paths = (
{
closed = 1;
nodes = (
"137 465 LINE",
"65 465 LINE",
"65 0 LINE",
"137 0 LINE"
);
},
{
closed = 1;
nodes = (
"203 639 LINE",
"125 639 LINE",
"49 522 LINE",
"110 522 LINE",
"204 636 LINE"
);
}
);
width = 202;
}
);
unicode = 00ED;
},
{
glyphname = ibreve;
layers = (
{
layerId = "F40DB483-8E41-4DD8-98C6-54B37B54EF1F";
name = Regular;
paths = (
{
closed = 1;
nodes = (
"137 0 LINE",
"137 465 LINE",
"65 465 LINE",
"65 0 LINE"
);
},
{
closed = 1;
nodes = (
"154 639 LINE",
"152 627 OFFCURVE",
"131 610 OFFCURVE",
"101 610 CURVE SMOOTH",
"72 610 OFFCURVE",
"51 627 OFFCURVE",
"49 639 CURVE",
"-9 639 LINE",
"-9 599 OFFCURVE",
"34 553 OFFCURVE",
"101 553 CURVE SMOOTH",
"169 553 OFFCURVE",
"210 599 OFFCURVE",
"210 639 CURVE"
);
}
);
width = 202;
}
);
unicode = 012D;
},
{
glyphname = icircumflex;
layers = (
{
layerId = "F40DB483-8E41-4DD8-98C6-54B37B54EF1F";
name = Regular;
paths = (
{
closed = 1;
nodes = (
"137 0 LINE",
"137 465 LINE",
"65 465 LINE",
"65 0 LINE"
);
},
{
closed = 1;
nodes = (
"211 519 LINE",
"136 638 LINE",
"67 638 LINE",
"-10 519 LINE",
"62 519 LINE",
"102 589 LINE",
"141 519 LINE"
);
}
);
width = 202;
}
);
unicode = 00EE;
},
{
glyphname = idieresis;
layers = (
{
layerId = "F40DB483-8E41-4DD8-98C6-54B37B54EF1F";
name = Regular;
paths = (
{
closed = 1;
nodes = (
"137 465 LINE",
"65 465 LINE",
"65 0 LINE",
"137 0 LINE"
);
},
{
closed = 1;
nodes = (
"73 639 LINE",
"-4 639 LINE",
"-4 555 LINE",
"73 555 LINE"
);
},
{
closed = 1;
nodes = (
"206 639 LINE",
"129 639 LINE",
"129 555 LINE",
"206 555 LINE"
);
}
);
width = 202;
}
);
unicode = 00EF;
},
{
glyphname = igrave;
layers = (
{
layerId = "F40DB483-8E41-4DD8-98C6-54B37B54EF1F";
name = Regular;
paths = (
{
closed = 1;
nodes = (
"137 465 LINE",
"65 465 LINE",
"65 0 LINE",
"137 0 LINE"
);
},
{
closed = 1;
nodes = (
"78 639 LINE",
"-2 639 LINE",
"-3 636 LINE",
"93 522 LINE",
"154 522 LINE"
);
}
);
width = 202;
}
);
unicode = 00EC;
},
{
glyphname = ij;
layers = (
{
layerId = "F40DB483-8E41-4DD8-98C6-54B37B54EF1F";
name = Regular;
paths = (
{
closed = 1;
nodes = (
"278 465 LINE",
"205 465 LINE",
"205 -57 LINE SMOOTH",
"205 -85 OFFCURVE",
"191 -100 OFFCURVE",
"164 -100 CURVE SMOOTH",
"125 -100 LINE",
"125 -150 LINE",
"140 -156 OFFCURVE",
"164 -161 OFFCURVE",
"186 -161 CURVE SMOOTH",
"256 -161 OFFCURVE",
"278 -107 OFFCURVE",
"278 -54 CURVE SMOOTH"
);
},
{
closed = 1;
nodes = (
"117 465 LINE",
"44 465 LINE",
"44 0 LINE",
"117 0 LINE"
);
},
{
closed = 1;
nodes = (
"117 639 LINE",
"44 639 LINE",
"44 552 LINE",
"117 552 LINE"
);
},
{
closed = 1;
nodes = (
"278 639 LINE",
"205 639 LINE",
"205 552 LINE",
"278 552 LINE"
);
}
);
width = 322;
}
);
unicode = 0133;
},
{
glyphname = imacron;
layers = (
{
layerId = "F40DB483-8E41-4DD8-98C6-54B37B54EF1F";
name = Regular;
paths = (
{
closed = 1;
nodes = (
"137 0 LINE",
"137 465 LINE",
"65 465 LINE",
"65 0 LINE"
);
},
{
closed = 1;
nodes = (
"212 530 LINE",
"212 593 LINE",
"-10 593 LINE",
"-10 530 LINE"
);
}
);
width = 202;
}
);
unicode = 012B;
},
{
glyphname = iogonek;
layers = (
{
layerId = "F40DB483-8E41-4DD8-98C6-54B37B54EF1F";
name = Regular;
paths = (
{
closed = 1;
nodes = (
"117 465 LINE",
"44 465 LINE",
"44 0 LINE",
"59 0 LINE",
"41 -20 OFFCURVE",
"27 -44 OFFCURVE",
"27 -81 CURVE SMOOTH",
"27 -142 OFFCURVE",
"72 -161 OFFCURVE",
"110 -161 CURVE SMOOTH",
"127 -161 OFFCURVE",
"145 -156 OFFCURVE",
"164 -149 CURVE",
"164 -103 LINE",
"135 -103 LINE SMOOTH",
"106 -103 OFFCURVE",
"95 -80 OFFCURVE",
"95 -55 CURVE SMOOTH",
"95 -34 OFFCURVE",
"107 -13 OFFCURVE",
"117 0 CURVE"
);
},
{
closed = 1;
nodes = (
"120 639 LINE",
"42 639 LINE",
"42 555 LINE",
"120 555 LINE"
);
}
);
width = 161;
}
);
unicode = 012F;
},
{
glyphname = itilde;
layers = (
{
layerId = "F40DB483-8E41-4DD8-98C6-54B37B54EF1F";
name = Regular;
paths = (
{
closed = 1;
nodes = (
"137 0 LINE",
"137 465 LINE",
"65 465 LINE",
"65 0 LINE"
);
},
{
closed = 1;
nodes = (
"179 639 LINE",
"176 619 OFFCURVE",
"164 612 OFFCURVE",
"149 612 CURVE SMOOTH",
"114 612 OFFCURVE",
"85 639 OFFCURVE",
"47 639 CURVE SMOOTH",
"-6 639 OFFCURVE",
"-28 588 OFFCURVE",
"-28 547 CURVE",
"23 547 LINE",
"26 568 OFFCURVE",
"37 575 OFFCURVE",
"53 575 CURVE SMOOTH",
"88 575 OFFCURVE",
"117 547 OFFCURVE",
"155 547 CURVE SMOOTH",
"208 547 OFFCURVE",
"230 598 OFFCURVE",
"230 639 CURVE"
);
}
);
width = 202;
}
);
unicode = 0129;
},
{
glyphname = j;
layers = (
{
layerId = "F40DB483-8E41-4DD8-98C6-54B37B54EF1F";
name = Regular;
paths = (
{
closed = 1;
nodes = (
"117 465 LINE",
"44 465 LINE",
"44 -57 LINE SMOOTH",
"44 -85 OFFCURVE",
"30 -100 OFFCURVE",
"3 -100 CURVE SMOOTH",
"-36 -100 LINE",
"-36 -150 LINE",
"-21 -156 OFFCURVE",
"4 -161 OFFCURVE",
"25 -161 CURVE SMOOTH",
"95 -161 OFFCURVE",
"117 -107 OFFCURVE",
"117 -54 CURVE SMOOTH"
);
},
{
closed = 1;
nodes = (
"117 552 LINE",
"117 639 LINE",
"44 639 LINE",
"44 552 LINE"
);
}
);
width = 161;
}
);
unicode = 006A;
},
{
glyphname = jcircumflex;
layers = (
{
layerId = "F40DB483-8E41-4DD8-98C6-54B37B54EF1F";
name = Regular;
paths = (
{
closed = 1;
nodes = (
"117 465 LINE",
"44 465 LINE",
"44 -57 LINE SMOOTH",
"44 -85 OFFCURVE",
"30 -100 OFFCURVE",
"3 -100 CURVE SMOOTH",
"-36 -100 LINE",
"-36 -150 LINE",
"-21 -156 OFFCURVE",
"4 -161 OFFCURVE",
"25 -161 CURVE SMOOTH",
"95 -161 OFFCURVE",
"117 -107 OFFCURVE",
"117 -54 CURVE SMOOTH"
);
},
{
closed = 1;
nodes = (
"191 519 LINE",
"115 638 LINE",
"46 638 LINE",
"-30 519 LINE",
"41 519 LINE",
"81 589 LINE",
"120 519 LINE"
);
}
);
width = 161;
}
);
unicode = 0135;
},
{
glyphname = k;
layers = (
{
anchors = (
{
name = bottom;
position = "{181, 0}";
}
);
layerId = "F40DB483-8E41-4DD8-98C6-54B37B54EF1F";
name = Regular;
paths = (
{
closed = 1;
nodes = (
"126 249 LINE",
"126 639 LINE",
"53 639 LINE",
"53 0 LINE",
"126 0 LINE",
"126 158 LINE",
"175 212 LINE",
"281 0 LINE",
"363 0 LINE",
"219 274 LINE",
"356 465 LINE",
"276 465 LINE"
);
}
);
width = 362;
}
);
unicode = 006B;
},
{
glyphname = kcommaaccent;
layers = (
{
layerId = "F40DB483-8E41-4DD8-98C6-54B37B54EF1F";
name = Regular;
paths = (
{
closed = 1;
nodes = (
"126 249 LINE",
"126 639 LINE",
"53 639 LINE",
"53 0 LINE",
"126 0 LINE",
"126 158 LINE",
"175 212 LINE",
"281 0 LINE",
"363 0 LINE",
"219 274 LINE",
"356 465 LINE",
"276 465 LINE"
);
},
{
closed = 1;
nodes = (
"219 -127 LINE",
"219 -53 LINE",
"144 -53 LINE",
"144 -133 LINE",
"174 -133 LINE",
"154 -196 LINE",
"194 -196 LINE"
);
}
);
width = 362;
}
);
unicode = 0137;
},
{
glyphname = kgreenlandic;
layers = (
{
layerId = "F40DB483-8E41-4DD8-98C6-54B37B54EF1F";
name = Regular;
paths = (
{
closed = 1;
nodes = (
"219 274 LINE",
"356 465 LINE",
"276 465 LINE",
"126 249 LINE",
"126 465 LINE",
"53 465 LINE",
"53 0 LINE",
"126 0 LINE",
"126 158 LINE",
"175 212 LINE",
"281 0 LINE",
"363 0 LINE"
);
}
);
width = 361;
}
);
unicode = 0138;
},
{
glyphname = l;
layers = (
{
anchors = (
{
name = bottom;
position = "{80, 0}";
},
{
name = top;
position = "{80, 465}";
},
{
name = topright;
position = "{143, 465}";
}
);
layerId = "F40DB483-8E41-4DD8-98C6-54B37B54EF1F";
name = Regular;
paths = (
{
closed = 1;
nodes = (
"117 0 LINE",
"117 639 LINE",
"44 639 LINE",
"44 0 LINE"
);
}
);
width = 161;
}
);
unicode = 006C;
},
{
glyphname = lacute;
layers = (
{
layerId = "F40DB483-8E41-4DD8-98C6-54B37B54EF1F";
name = Regular;
paths = (
{
closed = 1;
nodes = (
"117 639 LINE",
"44 639 LINE",
"44 0 LINE",
"117 0 LINE"
);
},
{
closed = 1;
nodes = (
"184 781 LINE",
"104 781 LINE",
"28 664 LINE",
"89 664 LINE",
"184 778 LINE"
);
}
);
width = 161;
}
);
unicode = 013A;
},
{
glyphname = lcaron;
layers = (
{
layerId = "F40DB483-8E41-4DD8-98C6-54B37B54EF1F";
name = Regular;
paths = (
{
closed = 1;
nodes = (
"117 0 LINE",
"117 639 LINE",
"44 639 LINE",
"44 0 LINE"
);
},
{
closed = 1;
nodes = (
"240 519 LINE",
"240 606 LINE",
"152 606 LINE",
"152 511 LINE",
"187 511 LINE",
"152 401 LINE",
"198 401 LINE"
);
}
);
width = 211;
}
);
unicode = 013E;
},
{
glyphname = lcommaaccent;
layers = (
{
layerId = "F40DB483-8E41-4DD8-98C6-54B37B54EF1F";
name = Regular;
paths = (
{
closed = 1;
nodes = (
"117 0 LINE",
"117 639 LINE",
"44 639 LINE",
"44 0 LINE"
);
},
{
closed = 1;
nodes = (
"118 -127 LINE",
"118 -53 LINE",
"43 -53 LINE",
"43 -133 LINE",
"73 -133 LINE",
"54 -196 LINE",
"93 -196 LINE"
);
}
);
width = 161;
}
);
unicode = 013C;
},
{
glyphname = ldot;
layers = (
{
layerId = "F40DB483-8E41-4DD8-98C6-54B37B54EF1F";
name = Regular;
paths = (
{
closed = 1;
nodes = (
"117 0 LINE",
"117 639 LINE",
"44 639 LINE",
"44 0 LINE"
);
},
{
closed = 1;
nodes = (
"241 255 LINE",
"241 353 LINE",
"152 353 LINE",
"152 255 LINE"
);
}
);
width = 286;
}
);
unicode = 0140;
},
{
glyphname = lslash;
layers = (
{
layerId = "F40DB483-8E41-4DD8-98C6-54B37B54EF1F";
name = Regular;
paths = (
{
closed = 1;
nodes = (
"117 346 LINE",
"117 639 LINE",
"44 639 LINE",
"44 281 LINE",
"-19 225 LINE",
"-19 163 LINE",
"44 217 LINE",
"44 0 LINE",
"117 0 LINE",
"117 282 LINE",
"194 350 LINE",
"194 414 LINE"
);
}
);
width = 161;
}
);
unicode = 0142;
},
{
glyphname = m;
layers = (
{
layerId = "F40DB483-8E41-4DD8-98C6-54B37B54EF1F";
name = Regular;
paths = (
{
closed = 1;
nodes = (
"397 476 OFFCURVE",
"353 453 OFFCURVE",
"328 408 CURVE",
"311 456 OFFCURVE",
"275 476 OFFCURVE",
"229 476 CURVE SMOOTH",
"185 476 OFFCURVE",
"148 457 OFFCURVE",
"123 411 CURVE",
"118 411 LINE",
"108 465 LINE",
"53 465 LINE",
"53 0 LINE",
"126 0 LINE",
"126 284 LINE SMOOTH",
"126 364 OFFCURVE",
"163 411 OFFCURVE",
"206 411 CURVE SMOOTH",
"240 411 OFFCURVE",
"266 394 OFFCURVE",
"266 330 CURVE SMOOTH",
"266 0 LINE",
"339 0 LINE",
"339 284 LINE SMOOTH",
"339 364 OFFCURVE",
"375 411 OFFCURVE",
"418 411 CURVE SMOOTH",
"453 411 OFFCURVE",
"478 394 OFFCURVE",
"478 330 CURVE SMOOTH",
"478 0 LINE",
"551 0 LINE",
"551 335 LINE SMOOTH",
"551 438 OFFCURVE",
"507 476 OFFCURVE",
"441 476 CURVE SMOOTH"
);
}
);
width = 604;
}
);
unicode = 006D;
},
{
glyphname = n;
layers = (
{
anchors = (
{
name = bottom;
position = "{202, 0}";
},
{
name = top;
position = "{202, 465}";
}
);
layerId = "F40DB483-8E41-4DD8-98C6-54B37B54EF1F";
name = Regular;
paths = (
{
closed = 1;
nodes = (
"189 476 OFFCURVE",
"149 457 OFFCURVE",
"123 411 CURVE",
"118 411 LINE",
"108 465 LINE",
"53 465 LINE",
"53 0 LINE",
"126 0 LINE",
"126 284 LINE SMOOTH",
"126 364 OFFCURVE",
"166 411 OFFCURVE",
"212 411 CURVE SMOOTH",
"251 411 OFFCURVE",
"278 394 OFFCURVE",
"278 330 CURVE SMOOTH",
"278 0 LINE",
"350 0 LINE",
"350 335 LINE SMOOTH",
"350 438 OFFCURVE",
"305 476 OFFCURVE",
"235 476 CURVE SMOOTH"
);
}
);
width = 403;
}
);
unicode = 006E;
},
{
glyphname = nacute;
layers = (
{
layerId = "F40DB483-8E41-4DD8-98C6-54B37B54EF1F";
name = Regular;
paths = (
{
closed = 1;
nodes = (
"189 476 OFFCURVE",
"149 457 OFFCURVE",
"123 411 CURVE",
"118 411 LINE",
"108 465 LINE",
"53 465 LINE",
"53 0 LINE",
"126 0 LINE",
"126 284 LINE SMOOTH",
"126 364 OFFCURVE",
"166 411 OFFCURVE",
"212 411 CURVE SMOOTH",
"251 411 OFFCURVE",
"278 394 OFFCURVE",
"278 330 CURVE SMOOTH",
"278 0 LINE",
"350 0 LINE",
"350 335 LINE SMOOTH",
"350 438 OFFCURVE",
"305 476 OFFCURVE",
"235 476 CURVE SMOOTH"
);
},
{
closed = 1;
nodes = (
"304 639 LINE",
"225 639 LINE",
"149 522 LINE",
"210 522 LINE",
"305 636 LINE"
);
}
);
width = 403;
}
);
unicode = 0144;
},
{
glyphname = napostrophe;
layers = (
{
layerId = "F40DB483-8E41-4DD8-98C6-54B37B54EF1F";
name = Regular;
paths = (
{
closed = 1;
nodes = (
"293 476 OFFCURVE",
"252 457 OFFCURVE",
"226 411 CURVE",
"221 411 LINE",
"211 465 LINE",
"156 465 LINE",
"156 0 LINE",
"229 0 LINE",
"229 284 LINE SMOOTH",
"229 364 OFFCURVE",
"270 411 OFFCURVE",
"315 411 CURVE SMOOTH",
"354 411 OFFCURVE",
"381 394 OFFCURVE",
"381 330 CURVE SMOOTH",
"381 0 LINE",
"453 0 LINE",
"453 335 LINE SMOOTH",
"453 438 OFFCURVE",
"408 476 OFFCURVE",
"339 476 CURVE SMOOTH"
);
},
{
closed = 1;
nodes = (
"118 606 LINE",
"42 606 LINE",
"42 525 LINE",
"72 525 LINE",
"52 462 LINE",
"92 462 LINE",
"118 531 LINE"
);
}
);
width = 507;
}
);
unicode = 0149;
},
{
glyphname = ncaron;
layers = (
{
layerId = "F40DB483-8E41-4DD8-98C6-54B37B54EF1F";
name = Regular;
paths = (
{
closed = 1;
nodes = (
"189 476 OFFCURVE",
"149 457 OFFCURVE",
"123 411 CURVE",
"118 411 LINE",
"108 465 LINE",
"53 465 LINE",
"53 0 LINE",
"126 0 LINE",
"126 284 LINE SMOOTH",
"126 364 OFFCURVE",
"166 411 OFFCURVE",
"212 411 CURVE SMOOTH",
"251 411 OFFCURVE",
"278 394 OFFCURVE",
"278 330 CURVE SMOOTH",
"278 0 LINE",
"350 0 LINE",
"350 335 LINE SMOOTH",
"350 438 OFFCURVE",
"305 476 OFFCURVE",
"235 476 CURVE SMOOTH"
);
},
{
closed = 1;
nodes = (
"236 520 LINE",
"312 639 LINE",
"241 639 LINE",
"202 569 LINE",
"163 639 LINE",
"92 639 LINE",
"166 520 LINE"
);
}
);
width = 403;
}
);
unicode = 0148;
},
{
glyphname = ncommaaccent;
layers = (
{
layerId = "F40DB483-8E41-4DD8-98C6-54B37B54EF1F";
name = Regular;
paths = (
{
closed = 1;
nodes = (
"189 476 OFFCURVE",
"149 457 OFFCURVE",
"123 411 CURVE",
"118 411 LINE",
"108 465 LINE",
"53 465 LINE",
"53 0 LINE",
"126 0 LINE",
"126 284 LINE SMOOTH",
"126 364 OFFCURVE",
"166 411 OFFCURVE",
"212 411 CURVE SMOOTH",
"251 411 OFFCURVE",
"278 394 OFFCURVE",
"278 330 CURVE SMOOTH",
"278 0 LINE",
"350 0 LINE",
"350 335 LINE SMOOTH",
"350 438 OFFCURVE",
"305 476 OFFCURVE",
"235 476 CURVE SMOOTH"
);
},
{
closed = 1;
nodes = (
"240 -127 LINE",
"240 -53 LINE",
"164 -53 LINE",
"164 -133 LINE",
"194 -133 LINE",
"174 -196 LINE",
"214 -196 LINE"
);
}
);
width = 403;
}
);
unicode = 0146;
},
{
glyphname = eng;
layers = (
{
layerId = "F40DB483-8E41-4DD8-98C6-54B37B54EF1F";
name = Regular;
paths = (
{
closed = 1;
nodes = (
"189 476 OFFCURVE",
"149 457 OFFCURVE",
"123 411 CURVE",
"118 411 LINE",
"108 465 LINE",
"53 465 LINE",
"53 0 LINE",
"126 0 LINE",
"126 284 LINE SMOOTH",
"126 364 OFFCURVE",
"166 411 OFFCURVE",
"212 411 CURVE SMOOTH",
"251 411 OFFCURVE",
"278 394 OFFCURVE",
"278 330 CURVE SMOOTH",
"278 -57 LINE SMOOTH",
"278 -85 OFFCURVE",
"263 -100 OFFCURVE",
"236 -100 CURVE SMOOTH",
"197 -100 LINE",
"197 -150 LINE",
"212 -156 OFFCURVE",
"237 -161 OFFCURVE",
"258 -161 CURVE SMOOTH",
"329 -161 OFFCURVE",
"350 -107 OFFCURVE",
"350 -54 CURVE SMOOTH",
"350 335 LINE SMOOTH",
"350 438 OFFCURVE",
"305 476 OFFCURVE",
"235 476 CURVE SMOOTH"
);
}
);
width = 403;
}
);
unicode = 014B;
},
{
glyphname = ntilde;
layers = (
{
layerId = "F40DB483-8E41-4DD8-98C6-54B37B54EF1F";
name = Regular;
paths = (
{
closed = 1;
nodes = (
"189 476 OFFCURVE",
"149 457 OFFCURVE",
"123 411 CURVE",
"118 411 LINE",
"108 465 LINE",
"53 465 LINE",
"53 0 LINE",
"126 0 LINE",
"126 284 LINE SMOOTH",
"126 364 OFFCURVE",
"166 411 OFFCURVE",
"212 411 CURVE SMOOTH",
"251 411 OFFCURVE",
"278 394 OFFCURVE",
"278 330 CURVE SMOOTH",
"278 0 LINE",
"350 0 LINE",
"350 335 LINE SMOOTH",
"350 438 OFFCURVE",
"305 476 OFFCURVE",
"235 476 CURVE SMOOTH"
);
},
{
closed = 1;
nodes = (
"279 639 LINE",
"277 619 OFFCURVE",
"265 612 OFFCURVE",
"249 612 CURVE SMOOTH",
"215 612 OFFCURVE",
"186 639 OFFCURVE",
"148 639 CURVE SMOOTH",
"95 639 OFFCURVE",
"72 588 OFFCURVE",
"72 547 CURVE",
"124 547 LINE",
"126 568 OFFCURVE",
"138 575 OFFCURVE",
"154 575 CURVE SMOOTH",
"188 575 OFFCURVE",
"217 547 OFFCURVE",
"255 547 CURVE SMOOTH",
"309 547 OFFCURVE",
"331 598 OFFCURVE",
"331 639 CURVE"
);
}
);
width = 403;
}
);
unicode = 00F1;
},
{
glyphname = o;
layers = (
{
anchors = (
{
name = top;
position = "{202, 465}";
}
);
layerId = "F40DB483-8E41-4DD8-98C6-54B37B54EF1F";
name = Regular;
paths = (
{
closed = 1;
nodes = (
"93 476 OFFCURVE",
"35 400 OFFCURVE",
"35 232 CURVE SMOOTH",
"35 65 OFFCURVE",
"93 -11 OFFCURVE",
"202 -11 CURVE SMOOTH",
"310 -11 OFFCURVE",
"368 65 OFFCURVE",
"368 232 CURVE SMOOTH",
"368 400 OFFCURVE",
"310 476 OFFCURVE",
"202 476 CURVE SMOOTH"
);
},
{
closed = 1;
nodes = (
"262 411 OFFCURVE",
"292 356 OFFCURVE",
"292 249 CURVE SMOOTH",
"292 216 LINE SMOOTH",
"292 109 OFFCURVE",
"262 54 OFFCURVE",
"202 54 CURVE SMOOTH",
"141 54 OFFCURVE",
"111 109 OFFCURVE",
"111 216 CURVE SMOOTH",
"111 249 LINE SMOOTH",
"111 356 OFFCURVE",
"141 411 OFFCURVE",
"202 411 CURVE SMOOTH"
);
}
);
width = 403;
}
);
unicode = 006F;
},
{
glyphname = oacute;
layers = (
{
layerId = "F40DB483-8E41-4DD8-98C6-54B37B54EF1F";
name = Regular;
paths = (
{
closed = 1;
nodes = (
"93 476 OFFCURVE",
"35 400 OFFCURVE",
"35 232 CURVE SMOOTH",
"35 65 OFFCURVE",
"93 -11 OFFCURVE",
"202 -11 CURVE SMOOTH",
"310 -11 OFFCURVE",
"368 65 OFFCURVE",
"368 232 CURVE SMOOTH",
"368 400 OFFCURVE",
"310 476 OFFCURVE",
"202 476 CURVE SMOOTH"
);
},
{
closed = 1;
nodes = (
"262 411 OFFCURVE",
"292 356 OFFCURVE",
"292 249 CURVE SMOOTH",
"292 216 LINE SMOOTH",
"292 109 OFFCURVE",
"262 54 OFFCURVE",
"202 54 CURVE SMOOTH",
"141 54 OFFCURVE",
"111 109 OFFCURVE",
"111 216 CURVE SMOOTH",
"111 249 LINE SMOOTH",
"111 356 OFFCURVE",
"141 411 OFFCURVE",
"202 411 CURVE SMOOTH"
);
},
{
closed = 1;
nodes = (
"304 639 LINE",
"225 639 LINE",
"149 522 LINE",
"210 522 LINE",
"305 636 LINE"
);
}
);
width = 403;
}
);
unicode = 00F3;
},
{
glyphname = obreve;
layers = (
{
layerId = "F40DB483-8E41-4DD8-98C6-54B37B54EF1F";
name = Regular;
paths = (
{
closed = 1;
nodes = (
"93 476 OFFCURVE",
"35 400 OFFCURVE",
"35 232 CURVE SMOOTH",
"35 65 OFFCURVE",
"93 -11 OFFCURVE",
"202 -11 CURVE SMOOTH",
"310 -11 OFFCURVE",
"368 65 OFFCURVE",
"368 232 CURVE SMOOTH",
"368 400 OFFCURVE",
"310 476 OFFCURVE",
"202 476 CURVE SMOOTH"
);
},
{
closed = 1;
nodes = (
"262 411 OFFCURVE",
"292 356 OFFCURVE",
"292 249 CURVE SMOOTH",
"292 216 LINE SMOOTH",
"292 109 OFFCURVE",
"262 54 OFFCURVE",
"202 54 CURVE SMOOTH",
"141 54 OFFCURVE",
"111 109 OFFCURVE",
"111 216 CURVE SMOOTH",
"111 249 LINE SMOOTH",
"111 356 OFFCURVE",
"141 411 OFFCURVE",
"202 411 CURVE SMOOTH"
);
},
{
closed = 1;
nodes = (
"255 639 LINE",
"253 627 OFFCURVE",
"232 610 OFFCURVE",
"202 610 CURVE SMOOTH",
"171 610 OFFCURVE",
"152 627 OFFCURVE",
"149 639 CURVE",
"92 639 LINE",
"92 599 OFFCURVE",
"134 553 OFFCURVE",
"202 553 CURVE SMOOTH",
"270 553 OFFCURVE",
"311 599 OFFCURVE",
"311 639 CURVE"
);
}
);
width = 403;
}
);
unicode = 014F;
},
{
glyphname = ocircumflex;
layers = (
{
layerId = "F40DB483-8E41-4DD8-98C6-54B37B54EF1F";
name = Regular;
paths = (
{
closed = 1;
nodes = (
"93 476 OFFCURVE",
"35 400 OFFCURVE",
"35 232 CURVE SMOOTH",
"35 65 OFFCURVE",
"93 -11 OFFCURVE",
"202 -11 CURVE SMOOTH",
"310 -11 OFFCURVE",
"368 65 OFFCURVE",
"368 232 CURVE SMOOTH",
"368 400 OFFCURVE",
"310 476 OFFCURVE",
"202 476 CURVE SMOOTH"
);
},
{
closed = 1;
nodes = (
"262 411 OFFCURVE",
"292 356 OFFCURVE",
"292 249 CURVE SMOOTH",
"292 216 LINE SMOOTH",
"292 109 OFFCURVE",
"262 54 OFFCURVE",
"202 54 CURVE SMOOTH",
"141 54 OFFCURVE",
"111 109 OFFCURVE",
"111 216 CURVE SMOOTH",
"111 249 LINE SMOOTH",
"111 356 OFFCURVE",
"141 411 OFFCURVE",
"202 411 CURVE SMOOTH"
);
},
{
closed = 1;
nodes = (
"312 519 LINE",
"237 638 LINE",
"167 638 LINE",
"92 519 LINE",
"163 519 LINE",
"202 589 LINE",
"241 519 LINE"
);
}
);
width = 403;
}
);
unicode = 00F4;
},
{
glyphname = odieresis;
layers = (
{
layerId = "F40DB483-8E41-4DD8-98C6-54B37B54EF1F";
name = Regular;
paths = (
{
closed = 1;
nodes = (
"93 476 OFFCURVE",
"35 400 OFFCURVE",
"35 232 CURVE SMOOTH",
"35 65 OFFCURVE",
"93 -11 OFFCURVE",
"202 -11 CURVE SMOOTH",
"310 -11 OFFCURVE",
"368 65 OFFCURVE",
"368 232 CURVE SMOOTH",
"368 400 OFFCURVE",
"310 476 OFFCURVE",
"202 476 CURVE SMOOTH"
);
},
{
closed = 1;
nodes = (
"262 411 OFFCURVE",
"292 356 OFFCURVE",
"292 249 CURVE SMOOTH",
"292 216 LINE SMOOTH",
"292 109 OFFCURVE",
"262 54 OFFCURVE",
"202 54 CURVE SMOOTH",
"141 54 OFFCURVE",
"111 109 OFFCURVE",
"111 216 CURVE SMOOTH",
"111 249 LINE SMOOTH",
"111 356 OFFCURVE",
"141 411 OFFCURVE",
"202 411 CURVE SMOOTH"
);
},
{
closed = 1;
nodes = (
"173 639 LINE",
"96 639 LINE",
"96 555 LINE",
"173 555 LINE"
);
},
{
closed = 1;
nodes = (
"307 639 LINE",
"229 639 LINE",
"229 555 LINE",
"307 555 LINE"
);
}
);
width = 403;
}
);
unicode = 00F6;
},
{
glyphname = ograve;
layers = (
{
layerId = "F40DB483-8E41-4DD8-98C6-54B37B54EF1F";
name = Regular;
paths = (
{
closed = 1;
nodes = (
"93 476 OFFCURVE",
"35 400 OFFCURVE",
"35 232 CURVE SMOOTH",
"35 65 OFFCURVE",
"93 -11 OFFCURVE",
"202 -11 CURVE SMOOTH",
"310 -11 OFFCURVE",
"368 65 OFFCURVE",
"368 232 CURVE SMOOTH",
"368 400 OFFCURVE",
"310 476 OFFCURVE",
"202 476 CURVE SMOOTH"
);
},
{
closed = 1;
nodes = (
"262 411 OFFCURVE",
"292 356 OFFCURVE",
"292 249 CURVE SMOOTH",
"292 216 LINE SMOOTH",
"292 109 OFFCURVE",
"262 54 OFFCURVE",
"202 54 CURVE SMOOTH",
"141 54 OFFCURVE",
"111 109 OFFCURVE",
"111 216 CURVE SMOOTH",
"111 249 LINE SMOOTH",
"111 356 OFFCURVE",
"141 411 OFFCURVE",
"202 411 CURVE SMOOTH"
);
},
{
closed = 1;
nodes = (
"179 639 LINE",
"98 639 LINE",
"97 636 LINE",
"194 522 LINE",
"255 522 LINE"
);
}
);
width = 403;
}
);
unicode = 00F2;
},
{
glyphname = ohungarumlaut;
layers = (
{
layerId = "F40DB483-8E41-4DD8-98C6-54B37B54EF1F";
name = Regular;
paths = (
{
closed = 1;
nodes = (
"93 476 OFFCURVE",
"35 400 OFFCURVE",
"35 232 CURVE SMOOTH",
"35 65 OFFCURVE",
"93 -11 OFFCURVE",
"202 -11 CURVE SMOOTH",
"310 -11 OFFCURVE",
"368 65 OFFCURVE",
"368 232 CURVE SMOOTH",
"368 400 OFFCURVE",
"310 476 OFFCURVE",
"202 476 CURVE SMOOTH"
);
},
{
closed = 1;
nodes = (
"262 411 OFFCURVE",
"292 356 OFFCURVE",
"292 249 CURVE SMOOTH",
"292 216 LINE SMOOTH",
"292 109 OFFCURVE",
"262 54 OFFCURVE",
"202 54 CURVE SMOOTH",
"141 54 OFFCURVE",
"111 109 OFFCURVE",
"111 216 CURVE SMOOTH",
"111 249 LINE SMOOTH",
"111 356 OFFCURVE",
"141 411 OFFCURVE",
"202 411 CURVE SMOOTH"
);
},
{
closed = 1;
nodes = (
"368 636 LINE",
"367 639 LINE",
"287 639 LINE",
"232 522 LINE",
"293 522 LINE"
);
},
{
closed = 1;
nodes = (
"252 636 LINE",
"251 639 LINE",
"171 639 LINE",
"117 522 LINE",
"178 522 LINE"
);
}
);
width = 403;
}
);
unicode = 0151;
},
{
glyphname = omacron;
layers = (
{
layerId = "F40DB483-8E41-4DD8-98C6-54B37B54EF1F";
name = Regular;
paths = (
{
closed = 1;
nodes = (
"93 476 OFFCURVE",
"35 400 OFFCURVE",
"35 232 CURVE SMOOTH",
"35 65 OFFCURVE",
"93 -11 OFFCURVE",
"202 -11 CURVE SMOOTH",
"310 -11 OFFCURVE",
"368 65 OFFCURVE",
"368 232 CURVE SMOOTH",
"368 400 OFFCURVE",
"310 476 OFFCURVE",
"202 476 CURVE SMOOTH"
);
},
{
closed = 1;
nodes = (
"262 411 OFFCURVE",
"292 356 OFFCURVE",
"292 249 CURVE SMOOTH",
"292 216 LINE SMOOTH",
"292 109 OFFCURVE",
"262 54 OFFCURVE",
"202 54 CURVE SMOOTH",
"141 54 OFFCURVE",
"111 109 OFFCURVE",
"111 216 CURVE SMOOTH",
"111 249 LINE SMOOTH",
"111 356 OFFCURVE",
"141 411 OFFCURVE",
"202 411 CURVE SMOOTH"
);
},
{
closed = 1;
nodes = (
"313 530 LINE",
"313 593 LINE",
"91 593 LINE",
"91 530 LINE"
);
}
);
width = 403;
}
);
unicode = 014D;
},
{
glyphname = oslash;
layers = (
{
anchors = (
{
name = top;
position = "{222, 465}";
}
);
layerId = "F40DB483-8E41-4DD8-98C6-54B37B54EF1F";
name = Regular;
paths = (
{
closed = 1;
nodes = (
"387 493 LINE",
"339 493 LINE",
"314 448 LINE",
"289 467 OFFCURVE",
"258 476 OFFCURVE",
"221 476 CURVE SMOOTH",
"112 476 OFFCURVE",
"55 400 OFFCURVE",
"55 232 CURVE SMOOTH",
"55 149 OFFCURVE",
"69 88 OFFCURVE",
"96 49 CURVE",
"55 -28 LINE",
"103 -28 LINE",
"127 17 LINE",
"152 -2 OFFCURVE",
"184 -11 OFFCURVE",
"221 -11 CURVE SMOOTH",
"330 -11 OFFCURVE",
"387 65 OFFCURVE",
"387 232 CURVE SMOOTH",
"387 316 OFFCURVE",
"373 377 OFFCURVE",
"345 416 CURVE"
);
},
{
closed = 1;
nodes = (
"301 336 LINE",
"308 313 OFFCURVE",
"311 284 OFFCURVE",
"311 249 CURVE SMOOTH",
"311 216 LINE SMOOTH",
"311 109 OFFCURVE",
"281 54 OFFCURVE",
"221 54 CURVE SMOOTH",
"196 54 OFFCURVE",
"177 63 OFFCURVE",
"163 80 CURVE"
);
},
{
closed = 1;
nodes = (
"245 411 OFFCURVE",
"264 402 OFFCURVE",
"279 385 CURVE",
"140 128 LINE",
"133 152 OFFCURVE",
"131 181 OFFCURVE",
"131 216 CURVE SMOOTH",
"131 249 LINE SMOOTH",
"131 356 OFFCURVE",
"161 411 OFFCURVE",
"221 411 CURVE SMOOTH"
);
}
);
width = 443;
}
);
unicode = 00F8;
},
{
glyphname = oslashacute;
layers = (
{
layerId = "F40DB483-8E41-4DD8-98C6-54B37B54EF1F";
name = Regular;
paths = (
{
closed = 1;
nodes = (
"387 493 LINE",
"339 493 LINE",
"314 448 LINE",
"289 467 OFFCURVE",
"258 476 OFFCURVE",
"221 476 CURVE SMOOTH",
"112 476 OFFCURVE",
"55 400 OFFCURVE",
"55 232 CURVE SMOOTH",
"55 149 OFFCURVE",
"69 88 OFFCURVE",
"96 49 CURVE",
"55 -28 LINE",
"103 -28 LINE",
"127 17 LINE",
"152 -2 OFFCURVE",
"184 -11 OFFCURVE",
"221 -11 CURVE SMOOTH",
"330 -11 OFFCURVE",
"387 65 OFFCURVE",
"387 232 CURVE SMOOTH",
"387 316 OFFCURVE",
"373 377 OFFCURVE",
"345 416 CURVE"
);
},
{
closed = 1;
nodes = (
"301 336 LINE",
"308 313 OFFCURVE",
"311 284 OFFCURVE",
"311 249 CURVE SMOOTH",
"311 216 LINE SMOOTH",
"311 109 OFFCURVE",
"281 54 OFFCURVE",
"221 54 CURVE SMOOTH",
"196 54 OFFCURVE",
"177 63 OFFCURVE",
"163 80 CURVE"
);
},
{
closed = 1;
nodes = (
"245 411 OFFCURVE",
"264 402 OFFCURVE",
"279 385 CURVE",
"140 128 LINE",
"133 152 OFFCURVE",
"131 181 OFFCURVE",
"131 216 CURVE SMOOTH",
"131 249 LINE SMOOTH",
"131 356 OFFCURVE",
"161 411 OFFCURVE",
"221 411 CURVE SMOOTH"
);
},
{
closed = 1;
nodes = (
"324 639 LINE",
"245 639 LINE",
"169 522 LINE",
"230 522 LINE",
"325 636 LINE"
);
}
);
width = 443;
}
);
unicode = 01FF;
},
{
glyphname = otilde;
layers = (
{
layerId = "F40DB483-8E41-4DD8-98C6-54B37B54EF1F";
name = Regular;
paths = (
{
closed = 1;
nodes = (
"93 476 OFFCURVE",
"35 400 OFFCURVE",
"35 232 CURVE SMOOTH",
"35 65 OFFCURVE",
"93 -11 OFFCURVE",
"202 -11 CURVE SMOOTH",
"310 -11 OFFCURVE",
"368 65 OFFCURVE",
"368 232 CURVE SMOOTH",
"368 400 OFFCURVE",
"310 476 OFFCURVE",
"202 476 CURVE SMOOTH"
);
},
{
closed = 1;
nodes = (
"262 411 OFFCURVE",
"292 356 OFFCURVE",
"292 249 CURVE SMOOTH",
"292 216 LINE SMOOTH",
"292 109 OFFCURVE",
"262 54 OFFCURVE",
"202 54 CURVE SMOOTH",
"141 54 OFFCURVE",
"111 109 OFFCURVE",
"111 216 CURVE SMOOTH",
"111 249 LINE SMOOTH",
"111 356 OFFCURVE",
"141 411 OFFCURVE",
"202 411 CURVE SMOOTH"
);
},
{
closed = 1;
nodes = (
"279 639 LINE",
"277 619 OFFCURVE",
"265 612 OFFCURVE",
"249 612 CURVE SMOOTH",
"215 612 OFFCURVE",
"186 639 OFFCURVE",
"148 639 CURVE SMOOTH",
"95 639 OFFCURVE",
"72 588 OFFCURVE",
"72 547 CURVE",
"124 547 LINE",
"126 568 OFFCURVE",
"138 575 OFFCURVE",
"154 575 CURVE SMOOTH",
"188 575 OFFCURVE",
"217 547 OFFCURVE",
"255 547 CURVE SMOOTH",
"309 547 OFFCURVE",
"331 598 OFFCURVE",
"331 639 CURVE"
);
}
);
width = 403;
}
);
unicode = 00F5;
},
{
glyphname = oe;
layers = (
{
anchors = (
{
name = top;
position = "{342, 465}";
}
);
layerId = "F40DB483-8E41-4DD8-98C6-54B37B54EF1F";
name = Regular;
paths = (
{
closed = 1;
nodes = (
"417 476 OFFCURVE",
"371 453 OFFCURVE",
"342 408 CURVE",
"315 453 OFFCURVE",
"271 476 OFFCURVE",
"213 476 CURVE SMOOTH",
"104 476 OFFCURVE",
"47 400 OFFCURVE",
"47 232 CURVE SMOOTH",
"47 65 OFFCURVE",
"104 -11 OFFCURVE",
"213 -11 CURVE SMOOTH",
"271 -11 OFFCURVE",
"315 11 OFFCURVE",
"342 57 CURVE",
"371 10 OFFCURVE",
"418 -11 OFFCURVE",
"481 -11 CURVE SMOOTH",
"571 -11 OFFCURVE",
"633 54 OFFCURVE",
"633 158 CURVE",
"561 158 LINE",
"561 94 OFFCURVE",
"529 54 OFFCURVE",
"483 54 CURVE SMOOTH",
"414 54 OFFCURVE",
"382 103 OFFCURVE",
"381 211 CURVE",
"633 211 LINE",
"633 257 LINE SMOOTH",
"633 413 OFFCURVE",
"582 476 OFFCURVE",
"480 476 CURVE SMOOTH"
);
},
{
closed = 1;
nodes = (
"273 411 OFFCURVE",
"303 356 OFFCURVE",
"303 249 CURVE SMOOTH",
"303 216 LINE SMOOTH",
"303 109 OFFCURVE",
"273 54 OFFCURVE",
"213 54 CURVE SMOOTH",
"153 54 OFFCURVE",
"123 109 OFFCURVE",
"123 216 CURVE SMOOTH",
"123 249 LINE SMOOTH",
"123 356 OFFCURVE",
"153 411 OFFCURVE",
"213 411 CURVE SMOOTH"
);
},
{
closed = 1;
nodes = (
"530 411 OFFCURVE",
"557 364 OFFCURVE",
"557 276 CURVE",
"382 276 LINE",
"388 365 OFFCURVE",
"415 411 OFFCURVE",
"480 411 CURVE SMOOTH"
);
}
);
width = 684;
}
);
unicode = 0153;
},
{
glyphname = p;
layers = (
{
layerId = "F40DB483-8E41-4DD8-98C6-54B37B54EF1F";
name = Regular;
paths = (
{
closed = 1;
nodes = (
"181 476 OFFCURVE",
"144 453 OFFCURVE",
"122 411 CURVE",
"118 411 LINE",
"108 465 LINE",
"53 465 LINE",
"53 -153 LINE",
"126 -153 LINE",
"126 41 LINE",
"130 41 LINE",
"146 9 OFFCURVE",
"184 -11 OFFCURVE",
"229 -11 CURVE SMOOTH",
"306 -11 OFFCURVE",
"368 63 OFFCURVE",
"368 232 CURVE SMOOTH",
"368 402 OFFCURVE",
"312 476 OFFCURVE",
"224 476 CURVE SMOOTH"
);
},
{
closed = 1;
nodes = (
"264 411 OFFCURVE",
"292 365 OFFCURVE",
"292 249 CURVE SMOOTH",
"292 216 LINE SMOOTH",
"292 100 OFFCURVE",
"264 54 OFFCURVE",
"209 54 CURVE SMOOTH",
"153 54 OFFCURVE",
"126 109 OFFCURVE",
"126 216 CURVE SMOOTH",
"126 249 LINE SMOOTH",
"126 356 OFFCURVE",
"153 411 OFFCURVE",
"209 411 CURVE SMOOTH"
);
}
);
width = 403;
}
);
unicode = 0070;
},
{
glyphname = thorn;
layers = (
{
layerId = "F40DB483-8E41-4DD8-98C6-54B37B54EF1F";
name = Regular;
paths = (
{
closed = 1;
nodes = (
"126 639 LINE",
"53 639 LINE",
"53 -153 LINE",
"126 -153 LINE",
"126 41 LINE",
"130 41 LINE",
"146 9 OFFCURVE",
"184 -11 OFFCURVE",
"229 -11 CURVE SMOOTH",
"306 -11 OFFCURVE",
"368 63 OFFCURVE",
"368 232 CURVE SMOOTH",
"368 402 OFFCURVE",
"312 476 OFFCURVE",
"224 476 CURVE SMOOTH",
"183 476 OFFCURVE",
"148 455 OFFCURVE",
"129 423 CURVE",
"126 424 LINE"
);
},
{
closed = 1;
nodes = (
"264 411 OFFCURVE",
"292 365 OFFCURVE",
"292 249 CURVE SMOOTH",
"292 216 LINE SMOOTH",
"292 100 OFFCURVE",
"264 54 OFFCURVE",
"209 54 CURVE SMOOTH",
"153 54 OFFCURVE",
"126 109 OFFCURVE",
"126 216 CURVE SMOOTH",
"126 249 LINE SMOOTH",
"126 356 OFFCURVE",
"153 411 OFFCURVE",
"209 411 CURVE SMOOTH"
);
}
);
width = 403;
}
);
unicode = 00FE;
},
{
glyphname = q;
layers = (
{
layerId = "F40DB483-8E41-4DD8-98C6-54B37B54EF1F";
name = Regular;
paths = (
{
closed = 1;
nodes = (
"91 476 OFFCURVE",
"35 402 OFFCURVE",
"35 232 CURVE SMOOTH",
"35 63 OFFCURVE",
"97 -11 OFFCURVE",
"174 -11 CURVE SMOOTH",
"219 -11 OFFCURVE",
"257 9 OFFCURVE",
"273 41 CURVE",
"278 41 LINE",
"278 -153 LINE",
"350 -153 LINE",
"350 465 LINE",
"295 465 LINE",
"286 411 LINE",
"281 411 LINE",
"259 453 OFFCURVE",
"222 476 OFFCURVE",
"179 476 CURVE SMOOTH"
);
},
{
closed = 1;
nodes = (
"250 411 OFFCURVE",
"278 356 OFFCURVE",
"278 249 CURVE SMOOTH",
"278 216 LINE SMOOTH",
"278 109 OFFCURVE",
"250 54 OFFCURVE",
"194 54 CURVE SMOOTH",
"139 54 OFFCURVE",
"111 100 OFFCURVE",
"111 216 CURVE SMOOTH",
"111 249 LINE SMOOTH",
"111 365 OFFCURVE",
"139 411 OFFCURVE",
"194 411 CURVE SMOOTH"
);
}
);
width = 403;
}
);
unicode = 0071;
},
{
glyphname = r;
layers = (
{
anchors = (
{
name = bottom;
position = "{121, 0}";
},
{
name = top;
position = "{121, 465}";
}
);
layerId = "F40DB483-8E41-4DD8-98C6-54B37B54EF1F";
name = Regular;
paths = (
{
closed = 1;
nodes = (
"157 476 OFFCURVE",
"134 439 OFFCURVE",
"123 404 CURVE",
"118 404 LINE",
"108 465 LINE",
"53 465 LINE",
"53 0 LINE",
"126 0 LINE",
"126 284 LINE SMOOTH",
"126 366 OFFCURVE",
"166 393 OFFCURVE",
"212 393 CURVE SMOOTH",
"236 393 LINE",
"236 469 LINE",
"236 469 OFFCURVE",
"221 476 OFFCURVE",
"202 476 CURVE SMOOTH"
);
}
);
width = 241;
}
);
unicode = 0072;
},
{
glyphname = racute;
layers = (
{
layerId = "F40DB483-8E41-4DD8-98C6-54B37B54EF1F";
name = Regular;
paths = (
{
closed = 1;
nodes = (
"157 476 OFFCURVE",
"134 439 OFFCURVE",
"123 404 CURVE",
"118 404 LINE",
"108 465 LINE",
"53 465 LINE",
"53 0 LINE",
"126 0 LINE",
"126 284 LINE SMOOTH",
"126 366 OFFCURVE",
"166 393 OFFCURVE",
"212 393 CURVE SMOOTH",
"236 393 LINE",
"236 469 LINE",
"236 469 OFFCURVE",
"221 476 OFFCURVE",
"202 476 CURVE SMOOTH"
);
},
{
closed = 1;
nodes = (
"185 639 LINE",
"105 639 LINE",
"29 522 LINE",
"91 522 LINE",
"186 636 LINE"
);
}
);
width = 241;
}
);
unicode = 0155;
},
{
glyphname = rcaron;
layers = (
{
layerId = "F40DB483-8E41-4DD8-98C6-54B37B54EF1F";
name = Regular;
paths = (
{
closed = 1;
nodes = (
"157 476 OFFCURVE",
"134 439 OFFCURVE",
"123 404 CURVE",
"118 404 LINE",
"108 465 LINE",
"53 465 LINE",
"53 0 LINE",
"126 0 LINE",
"126 284 LINE SMOOTH",
"126 366 OFFCURVE",
"166 393 OFFCURVE",
"212 393 CURVE SMOOTH",
"236 393 LINE",
"236 469 LINE",
"236 469 OFFCURVE",
"221 476 OFFCURVE",
"202 476 CURVE SMOOTH"
);
},
{
closed = 1;
nodes = (
"142 520 LINE",
"218 639 LINE",
"148 639 LINE",
"108 569 LINE",
"69 639 LINE",
"-3 639 LINE",
"73 520 LINE"
);
}
);
width = 241;
}
);
unicode = 0159;
},
{
glyphname = rcommaaccent;
layers = (
{
layerId = "F40DB483-8E41-4DD8-98C6-54B37B54EF1F";
name = Regular;
paths = (
{
closed = 1;
nodes = (
"157 476 OFFCURVE",
"134 439 OFFCURVE",
"123 404 CURVE",
"118 404 LINE",
"108 465 LINE",
"53 465 LINE",
"53 0 LINE",
"126 0 LINE",
"126 284 LINE SMOOTH",
"126 366 OFFCURVE",
"166 393 OFFCURVE",
"212 393 CURVE SMOOTH",
"236 393 LINE",
"236 469 LINE",
"236 469 OFFCURVE",
"221 476 OFFCURVE",
"202 476 CURVE SMOOTH"
);
},
{
closed = 1;
nodes = (
"134 -127 LINE",
"134 -53 LINE",
"58 -53 LINE",
"58 -133 LINE",
"89 -133 LINE",
"69 -196 LINE",
"109 -196 LINE"
);
}
);
width = 241;
}
);
unicode = 0157;
},
{
glyphname = s;
layers = (
{
anchors = (
{
name = bottom;
position = "{181, 0}";
},
{
name = top;
position = "{181, 465}";
}
);
layerId = "F40DB483-8E41-4DD8-98C6-54B37B54EF1F";
name = Regular;
paths = (
{
closed = 1;
nodes = (
"96 476 OFFCURVE",
"40 425 OFFCURVE",
"40 343 CURVE SMOOTH",
"40 176 OFFCURVE",
"252 239 OFFCURVE",
"252 122 CURVE SMOOTH",
"252 77 OFFCURVE",
"220 53 OFFCURVE",
"182 53 CURVE SMOOTH",
"140 53 OFFCURVE",
"106 78 OFFCURVE",
"106 136 CURVE SMOOTH",
"106 145 LINE",
"30 145 LINE",
"30 143 OFFCURVE",
"29 138 OFFCURVE",
"29 126 CURVE SMOOTH",
"29 57 OFFCURVE",
"72 -11 OFFCURVE",
"179 -11 CURVE SMOOTH",
"264 -11 OFFCURVE",
"327 33 OFFCURVE",
"327 133 CURVE SMOOTH",
"327 306 OFFCURVE",
"115 247 OFFCURVE",
"115 348 CURVE SMOOTH",
"115 374 OFFCURVE",
"126 412 OFFCURVE",
"178 412 CURVE SMOOTH",
"227 412 OFFCURVE",
"242 376 OFFCURVE",
"242 339 CURVE SMOOTH",
"242 331 LINE",
"317 331 LINE",
"317 333 OFFCURVE",
"318 342 OFFCURVE",
"318 348 CURVE SMOOTH",
"318 417 OFFCURVE",
"271 476 OFFCURVE",
"185 476 CURVE SMOOTH"
);
}
);
width = 362;
}
);
unicode = 0073;
},
{
glyphname = sacute;
layers = (
{
layerId = "F40DB483-8E41-4DD8-98C6-54B37B54EF1F";
name = Regular;
paths = (
{
closed = 1;
nodes = (
"96 476 OFFCURVE",
"40 425 OFFCURVE",
"40 343 CURVE SMOOTH",
"40 176 OFFCURVE",
"252 239 OFFCURVE",
"252 122 CURVE SMOOTH",
"252 77 OFFCURVE",
"220 53 OFFCURVE",
"182 53 CURVE SMOOTH",
"140 53 OFFCURVE",
"106 78 OFFCURVE",
"106 136 CURVE SMOOTH",
"106 145 LINE",
"30 145 LINE",
"30 143 OFFCURVE",
"29 138 OFFCURVE",
"29 126 CURVE SMOOTH",
"29 57 OFFCURVE",
"72 -11 OFFCURVE",
"179 -11 CURVE SMOOTH",
"264 -11 OFFCURVE",
"327 33 OFFCURVE",
"327 133 CURVE SMOOTH",
"327 306 OFFCURVE",
"115 247 OFFCURVE",
"115 348 CURVE SMOOTH",
"115 374 OFFCURVE",
"126 412 OFFCURVE",
"178 412 CURVE SMOOTH",
"227 412 OFFCURVE",
"242 376 OFFCURVE",
"242 339 CURVE SMOOTH",
"242 331 LINE",
"317 331 LINE",
"317 333 OFFCURVE",
"318 342 OFFCURVE",
"318 348 CURVE SMOOTH",
"318 417 OFFCURVE",
"271 476 OFFCURVE",
"185 476 CURVE SMOOTH"
);
},
{
closed = 1;
nodes = (
"284 639 LINE",
"204 639 LINE",
"129 522 LINE",
"190 522 LINE",
"285 636 LINE"
);
}
);
width = 362;
}
);
unicode = 015B;
},
{
glyphname = scaron;
layers = (
{
layerId = "F40DB483-8E41-4DD8-98C6-54B37B54EF1F";
name = Regular;
paths = (
{
closed = 1;
nodes = (
"96 476 OFFCURVE",
"40 425 OFFCURVE",
"40 343 CURVE SMOOTH",
"40 176 OFFCURVE",
"252 239 OFFCURVE",
"252 122 CURVE SMOOTH",
"252 77 OFFCURVE",
"220 53 OFFCURVE",
"182 53 CURVE SMOOTH",
"140 53 OFFCURVE",
"106 78 OFFCURVE",
"106 136 CURVE SMOOTH",
"106 145 LINE",
"30 145 LINE",
"30 143 OFFCURVE",
"29 138 OFFCURVE",
"29 126 CURVE SMOOTH",
"29 57 OFFCURVE",
"72 -11 OFFCURVE",
"179 -11 CURVE SMOOTH",
"264 -11 OFFCURVE",
"327 33 OFFCURVE",
"327 133 CURVE SMOOTH",
"327 306 OFFCURVE",
"115 247 OFFCURVE",
"115 348 CURVE SMOOTH",
"115 374 OFFCURVE",
"126 412 OFFCURVE",
"178 412 CURVE SMOOTH",
"227 412 OFFCURVE",
"242 376 OFFCURVE",
"242 339 CURVE SMOOTH",
"242 331 LINE",
"317 331 LINE",
"317 333 OFFCURVE",
"318 342 OFFCURVE",
"318 348 CURVE SMOOTH",
"318 417 OFFCURVE",
"271 476 OFFCURVE",
"185 476 CURVE SMOOTH"
);
},
{
closed = 1;
nodes = (
"292 639 LINE",
"221 639 LINE",
"181 569 LINE",
"142 639 LINE",
"72 639 LINE",
"147 520 LINE",
"216 520 LINE"
);
}
);
width = 362;
}
);
unicode = 0161;
},
{
glyphname = scedilla;
layers = (
{
layerId = "F40DB483-8E41-4DD8-98C6-54B37B54EF1F";
name = Regular;
paths = (
{
closed = 1;
nodes = (
"96 476 OFFCURVE",
"40 425 OFFCURVE",
"40 343 CURVE SMOOTH",
"40 176 OFFCURVE",
"252 239 OFFCURVE",
"252 122 CURVE SMOOTH",
"252 77 OFFCURVE",
"220 53 OFFCURVE",
"182 53 CURVE SMOOTH",
"140 53 OFFCURVE",
"106 78 OFFCURVE",
"106 136 CURVE SMOOTH",
"106 145 LINE",
"30 145 LINE",
"30 143 OFFCURVE",
"29 138 OFFCURVE",
"29 126 CURVE SMOOTH",
"29 64 OFFCURVE",
"63 3 OFFCURVE",
"147 -9 CURVE",
"138 -68 LINE",
"167 -68 LINE SMOOTH",
"190 -68 OFFCURVE",
"197 -75 OFFCURVE",
"197 -89 CURVE SMOOTH",
"197 -106 OFFCURVE",
"185 -111 OFFCURVE",
"165 -111 CURVE SMOOTH",
"98 -111 LINE",
"98 -154 LINE",
"119 -158 OFFCURVE",
"148 -161 OFFCURVE",
"172 -161 CURVE SMOOTH",
"209 -161 OFFCURVE",
"264 -149 OFFCURVE",
"264 -89 CURVE SMOOTH",
"264 -49 OFFCURVE",
"231 -34 OFFCURVE",
"193 -32 CURVE",
"195 -10 LINE",
"272 -4 OFFCURVE",
"327 39 OFFCURVE",
"327 133 CURVE SMOOTH",
"327 306 OFFCURVE",
"115 247 OFFCURVE",
"115 348 CURVE SMOOTH",
"115 374 OFFCURVE",
"126 412 OFFCURVE",
"178 412 CURVE SMOOTH",
"227 412 OFFCURVE",
"242 376 OFFCURVE",
"242 339 CURVE SMOOTH",
"242 331 LINE",
"317 331 LINE",
"317 333 OFFCURVE",
"318 342 OFFCURVE",
"318 348 CURVE SMOOTH",
"318 417 OFFCURVE",
"271 476 OFFCURVE",
"185 476 CURVE SMOOTH"
);
}
);
width = 362;
}
);
unicode = 015F;
},
{
glyphname = scircumflex;
layers = (
{
layerId = "F40DB483-8E41-4DD8-98C6-54B37B54EF1F";
name = Regular;
paths = (
{
closed = 1;
nodes = (
"96 476 OFFCURVE",
"40 425 OFFCURVE",
"40 343 CURVE SMOOTH",
"40 176 OFFCURVE",
"252 239 OFFCURVE",
"252 122 CURVE SMOOTH",
"252 77 OFFCURVE",
"220 53 OFFCURVE",
"182 53 CURVE SMOOTH",
"140 53 OFFCURVE",
"106 78 OFFCURVE",
"106 136 CURVE SMOOTH",
"106 145 LINE",
"30 145 LINE",
"30 143 OFFCURVE",
"29 138 OFFCURVE",
"29 126 CURVE SMOOTH",
"29 57 OFFCURVE",
"72 -11 OFFCURVE",
"179 -11 CURVE SMOOTH",
"264 -11 OFFCURVE",
"327 33 OFFCURVE",
"327 133 CURVE SMOOTH",
"327 306 OFFCURVE",
"115 247 OFFCURVE",
"115 348 CURVE SMOOTH",
"115 374 OFFCURVE",
"126 412 OFFCURVE",
"178 412 CURVE SMOOTH",
"227 412 OFFCURVE",
"242 376 OFFCURVE",
"242 339 CURVE SMOOTH",
"242 331 LINE",
"317 331 LINE",
"317 333 OFFCURVE",
"318 342 OFFCURVE",
"318 348 CURVE SMOOTH",
"318 417 OFFCURVE",
"271 476 OFFCURVE",
"185 476 CURVE SMOOTH"
);
},
{
closed = 1;
nodes = (
"217 638 LINE",
"148 638 LINE",
"72 519 LINE",
"142 519 LINE",
"182 589 LINE",
"221 519 LINE",
"292 519 LINE"
);
}
);
width = 362;
}
);
unicode = 015D;
},
{
glyphname = germandbls;
layers = (
{
layerId = "F40DB483-8E41-4DD8-98C6-54B37B54EF1F";
name = Regular;
paths = (
{
closed = 1;
nodes = (
"124 650 OFFCURVE",
"44 594 OFFCURVE",
"44 456 CURVE SMOOTH",
"44 0 LINE",
"117 0 LINE",
"117 458 LINE SMOOTH",
"117 542 OFFCURVE",
"157 585 OFFCURVE",
"220 585 CURVE SMOOTH",
"283 585 OFFCURVE",
"316 544 OFFCURVE",
"316 482 CURVE SMOOTH",
"316 423 OFFCURVE",
"272 374 OFFCURVE",
"218 374 CURVE SMOOTH",
"166 374 LINE",
"166 309 LINE",
"225 309 LINE SMOOTH",
"286 309 OFFCURVE",
"335 255 OFFCURVE",
"335 190 CURVE SMOOTH",
"335 121 OFFCURVE",
"286 65 OFFCURVE",
"225 65 CURVE SMOOTH",
"166 65 LINE",
"166 0 LINE",
"232 0 LINE SMOOTH",
"331 0 OFFCURVE",
"409 75 OFFCURVE",
"409 189 CURVE SMOOTH",
"409 257 OFFCURVE",
"367 324 OFFCURVE",
"307 346 CURVE",
"307 349 LINE",
"356 369 OFFCURVE",
"391 426 OFFCURVE",
"391 484 CURVE SMOOTH",
"391 588 OFFCURVE",
"320 650 OFFCURVE",
"225 650 CURVE SMOOTH"
);
}
);
width = 443;
}
);
unicode = 00DF;
},
{
glyphname = longs;
layers = (
{
layerId = "F40DB483-8E41-4DD8-98C6-54B37B54EF1F";
name = Regular;
paths = (
{
closed = 1;
nodes = (
"70 646 OFFCURVE",
"49 592 OFFCURVE",
"49 539 CURVE SMOOTH",
"49 465 LINE",
"8 465 LINE",
"8 400 LINE",
"49 400 LINE",
"49 0 LINE",
"121 0 LINE",
"121 543 LINE SMOOTH",
"121 570 OFFCURVE",
"135 585 OFFCURVE",
"163 585 CURVE SMOOTH",
"202 585 LINE",
"202 636 LINE",
"187 641 OFFCURVE",
"162 646 OFFCURVE",
"141 646 CURVE SMOOTH"
);
}
);
width = 161;
}
);
unicode = 017F;
},
{
glyphname = t;
layers = (
{
anchors = (
{
name = bottom;
position = "{118, 0}";
},
{
name = center;
position = "{101, 232}";
}
);
layerId = "F40DB483-8E41-4DD8-98C6-54B37B54EF1F";
name = Regular;
paths = (
{
closed = 1;
nodes = (
"125 465 LINE",
"125 594 LINE",
"68 594 LINE",
"52 465 LINE",
"12 465 LINE",
"12 400 LINE",
"52 400 LINE",
"52 98 LINE SMOOTH",
"52 45 OFFCURVE",
"72 -9 OFFCURVE",
"135 -9 CURVE SMOOTH",
"153 -9 OFFCURVE",
"175 -4 OFFCURVE",
"187 4 CURVE",
"187 54 LINE",
"166 54 LINE SMOOTH",
"139 54 OFFCURVE",
"125 69 OFFCURVE",
"125 96 CURVE SMOOTH",
"125 400 LINE",
"187 400 LINE",
"187 465 LINE"
);
}
);
width = 202;
}
);
unicode = 0074;
},
{
glyphname = tbar;
layers = (
{
layerId = "F40DB483-8E41-4DD8-98C6-54B37B54EF1F";
name = Regular;
paths = (
{
closed = 1;
nodes = (
"125 594 LINE",
"68 594 LINE",
"52 465 LINE",
"12 465 LINE",
"12 400 LINE",
"52 400 LINE",
"52 309 LINE",
"14 309 LINE",
"14 248 LINE",
"52 248 LINE",
"52 98 LINE SMOOTH",
"52 45 OFFCURVE",
"72 -9 OFFCURVE",
"135 -9 CURVE SMOOTH",
"153 -9 OFFCURVE",
"175 -4 OFFCURVE",
"187 4 CURVE",
"187 54 LINE",
"166 54 LINE SMOOTH",
"139 54 OFFCURVE",
"125 69 OFFCURVE",
"125 96 CURVE SMOOTH",
"125 248 LINE",
"183 248 LINE",
"183 309 LINE",
"125 309 LINE",
"125 400 LINE",
"187 400 LINE",
"187 465 LINE",
"125 465 LINE"
);
}
);
width = 202;
}
);
unicode = 0167;
},
{
glyphname = tcaron;
layers = (
{
layerId = "F40DB483-8E41-4DD8-98C6-54B37B54EF1F";
name = Regular;
paths = (
{
closed = 1;
nodes = (
"125 465 LINE",
"125 594 LINE",
"68 594 LINE",
"52 465 LINE",
"12 465 LINE",
"12 400 LINE",
"52 400 LINE",
"52 98 LINE SMOOTH",
"52 45 OFFCURVE",
"72 -9 OFFCURVE",
"135 -9 CURVE SMOOTH",
"153 -9 OFFCURVE",
"175 -4 OFFCURVE",
"187 4 CURVE",
"187 54 LINE",
"166 54 LINE SMOOTH",
"139 54 OFFCURVE",
"125 69 OFFCURVE",
"125 96 CURVE SMOOTH",
"125 400 LINE",
"187 400 LINE",
"187 465 LINE"
);
},
{
closed = 1;
nodes = (
"312 519 LINE",
"312 606 LINE",
"223 606 LINE",
"223 511 LINE",
"258 511 LINE",
"223 401 LINE",
"269 401 LINE"
);
}
);
width = 271;
}
);
unicode = 0165;
},
{
glyphname = tcommaaccent;
layers = (
{
layerId = "F40DB483-8E41-4DD8-98C6-54B37B54EF1F";
name = Regular;
paths = (
{
closed = 1;
nodes = (
"125 465 LINE",
"125 594 LINE",
"68 594 LINE",
"52 465 LINE",
"12 465 LINE",
"12 400 LINE",
"52 400 LINE",
"52 98 LINE SMOOTH",
"52 45 OFFCURVE",
"72 -9 OFFCURVE",
"135 -9 CURVE SMOOTH",
"153 -9 OFFCURVE",
"175 -4 OFFCURVE",
"187 4 CURVE",
"187 54 LINE",
"166 54 LINE SMOOTH",
"139 54 OFFCURVE",
"125 69 OFFCURVE",
"125 96 CURVE SMOOTH",
"125 400 LINE",
"187 400 LINE",
"187 465 LINE"
);
},
{
closed = 1;
nodes = (
"139 -127 LINE",
"139 -53 LINE",
"64 -53 LINE",
"64 -133 LINE",
"94 -133 LINE",
"73 -196 LINE",
"113 -196 LINE"
);
}
);
width = 202;
}
);
unicode = 021B;
},
{
glyphname = u;
layers = (
{
anchors = (
{
name = ogonek;
position = "{362, 9}";
},
{
name = top;
position = "{202, 465}";
}
);
layerId = "F40DB483-8E41-4DD8-98C6-54B37B54EF1F";
name = Regular;
paths = (
{
closed = 1;
nodes = (
"350 0 LINE",
"350 465 LINE",
"278 465 LINE",
"278 181 LINE SMOOTH",
"278 101 OFFCURVE",
"237 54 OFFCURVE",
"191 54 CURVE SMOOTH",
"152 54 OFFCURVE",
"126 71 OFFCURVE",
"126 135 CURVE SMOOTH",
"126 465 LINE",
"53 465 LINE",
"53 130 LINE SMOOTH",
"53 27 OFFCURVE",
"98 -11 OFFCURVE",
"168 -11 CURVE SMOOTH",
"214 -11 OFFCURVE",
"255 8 OFFCURVE",
"280 54 CURVE",
"286 54 LINE",
"295 0 LINE"
);
}
);
width = 403;
}
);
unicode = 0075;
},
{
glyphname = uacute;
layers = (
{
layerId = "F40DB483-8E41-4DD8-98C6-54B37B54EF1F";
name = Regular;
paths = (
{
closed = 1;
nodes = (
"350 465 LINE",
"278 465 LINE",
"278 181 LINE SMOOTH",
"278 101 OFFCURVE",
"237 54 OFFCURVE",
"191 54 CURVE SMOOTH",
"152 54 OFFCURVE",
"126 71 OFFCURVE",
"126 135 CURVE SMOOTH",
"126 465 LINE",
"53 465 LINE",
"53 130 LINE SMOOTH",
"53 27 OFFCURVE",
"98 -11 OFFCURVE",
"168 -11 CURVE SMOOTH",
"214 -11 OFFCURVE",
"255 8 OFFCURVE",
"280 54 CURVE",
"286 54 LINE",
"295 0 LINE",
"350 0 LINE"
);
},
{
closed = 1;
nodes = (
"304 639 LINE",
"225 639 LINE",
"149 522 LINE",
"210 522 LINE",
"305 636 LINE"
);
}
);
width = 403;
}
);
unicode = 00FA;
},
{
glyphname = ubreve;
layers = (
{
layerId = "F40DB483-8E41-4DD8-98C6-54B37B54EF1F";
name = Regular;
paths = (
{
closed = 1;
nodes = (
"350 0 LINE",
"350 465 LINE",
"278 465 LINE",
"278 181 LINE SMOOTH",
"278 101 OFFCURVE",
"237 54 OFFCURVE",
"191 54 CURVE SMOOTH",
"152 54 OFFCURVE",
"126 71 OFFCURVE",
"126 135 CURVE SMOOTH",
"126 465 LINE",
"53 465 LINE",
"53 130 LINE SMOOTH",
"53 27 OFFCURVE",
"98 -11 OFFCURVE",
"168 -11 CURVE SMOOTH",
"214 -11 OFFCURVE",
"255 8 OFFCURVE",
"280 54 CURVE",
"286 54 LINE",
"295 0 LINE"
);
},
{
closed = 1;
nodes = (
"255 639 LINE",
"253 627 OFFCURVE",
"232 610 OFFCURVE",
"202 610 CURVE SMOOTH",
"171 610 OFFCURVE",
"152 627 OFFCURVE",
"149 639 CURVE",
"92 639 LINE",
"92 599 OFFCURVE",
"134 553 OFFCURVE",
"202 553 CURVE SMOOTH",
"270 553 OFFCURVE",
"311 599 OFFCURVE",
"311 639 CURVE"
);
}
);
width = 403;
}
);
unicode = 016D;
},
{
glyphname = ucircumflex;
layers = (
{
layerId = "F40DB483-8E41-4DD8-98C6-54B37B54EF1F";
name = Regular;
paths = (
{
closed = 1;
nodes = (
"350 0 LINE",
"350 465 LINE",
"278 465 LINE",
"278 181 LINE SMOOTH",
"278 101 OFFCURVE",
"237 54 OFFCURVE",
"191 54 CURVE SMOOTH",
"152 54 OFFCURVE",
"126 71 OFFCURVE",
"126 135 CURVE SMOOTH",
"126 465 LINE",
"53 465 LINE",
"53 130 LINE SMOOTH",
"53 27 OFFCURVE",
"98 -11 OFFCURVE",
"168 -11 CURVE SMOOTH",
"214 -11 OFFCURVE",
"255 8 OFFCURVE",
"280 54 CURVE",
"286 54 LINE",
"295 0 LINE"
);
},
{
closed = 1;
nodes = (
"312 519 LINE",
"237 638 LINE",
"167 638 LINE",
"92 519 LINE",
"163 519 LINE",
"202 589 LINE",
"241 519 LINE"
);
}
);
width = 403;
}
);
unicode = 00FB;
},
{
glyphname = udieresis;
layers = (
{
layerId = "F40DB483-8E41-4DD8-98C6-54B37B54EF1F";
name = Regular;
paths = (
{
closed = 1;
nodes = (
"350 465 LINE",
"278 465 LINE",
"278 181 LINE SMOOTH",
"278 101 OFFCURVE",
"237 54 OFFCURVE",
"191 54 CURVE SMOOTH",
"152 54 OFFCURVE",
"126 71 OFFCURVE",
"126 135 CURVE SMOOTH",
"126 465 LINE",
"53 465 LINE",
"53 130 LINE SMOOTH",
"53 27 OFFCURVE",
"98 -11 OFFCURVE",
"168 -11 CURVE SMOOTH",
"214 -11 OFFCURVE",
"255 8 OFFCURVE",
"280 54 CURVE",
"286 54 LINE",
"295 0 LINE",
"350 0 LINE"
);
},
{
closed = 1;
nodes = (
"173 639 LINE",
"96 639 LINE",
"96 555 LINE",
"173 555 LINE"
);
},
{
closed = 1;
nodes = (
"307 639 LINE",
"229 639 LINE",
"229 555 LINE",
"307 555 LINE"
);
}
);
width = 403;
}
);
unicode = 00FC;
},
{
glyphname = ugrave;
layers = (
{
layerId = "F40DB483-8E41-4DD8-98C6-54B37B54EF1F";
name = Regular;
paths = (
{
closed = 1;
nodes = (
"350 465 LINE",
"278 465 LINE",
"278 181 LINE SMOOTH",
"278 101 OFFCURVE",
"237 54 OFFCURVE",
"191 54 CURVE SMOOTH",
"152 54 OFFCURVE",
"126 71 OFFCURVE",
"126 135 CURVE SMOOTH",
"126 465 LINE",
"53 465 LINE",
"53 130 LINE SMOOTH",
"53 27 OFFCURVE",
"98 -11 OFFCURVE",
"168 -11 CURVE SMOOTH",
"214 -11 OFFCURVE",
"255 8 OFFCURVE",
"280 54 CURVE",
"286 54 LINE",
"295 0 LINE",
"350 0 LINE"
);
},
{
closed = 1;
nodes = (
"179 639 LINE",
"98 639 LINE",
"97 636 LINE",
"194 522 LINE",
"255 522 LINE"
);
}
);
width = 403;
}
);
unicode = 00F9;
},
{
glyphname = uhungarumlaut;
layers = (
{
layerId = "F40DB483-8E41-4DD8-98C6-54B37B54EF1F";
name = Regular;
paths = (
{
closed = 1;
nodes = (
"350 465 LINE",
"278 465 LINE",
"278 181 LINE SMOOTH",
"278 101 OFFCURVE",
"237 54 OFFCURVE",
"191 54 CURVE SMOOTH",
"152 54 OFFCURVE",
"126 71 OFFCURVE",
"126 135 CURVE SMOOTH",
"126 465 LINE",
"53 465 LINE",
"53 130 LINE SMOOTH",
"53 27 OFFCURVE",
"98 -11 OFFCURVE",
"168 -11 CURVE SMOOTH",
"214 -11 OFFCURVE",
"255 8 OFFCURVE",
"280 54 CURVE",
"286 54 LINE",
"295 0 LINE",
"350 0 LINE"
);
},
{
closed = 1;
nodes = (
"251 639 LINE",
"171 639 LINE",
"117 522 LINE",
"178 522 LINE",
"252 636 LINE"
);
},
{
closed = 1;
nodes = (
"367 639 LINE",
"287 639 LINE",
"232 522 LINE",
"293 522 LINE",
"368 636 LINE"
);
}
);
width = 403;
}
);
unicode = 0171;
},
{
glyphname = umacron;
layers = (
{
layerId = "F40DB483-8E41-4DD8-98C6-54B37B54EF1F";
name = Regular;
paths = (
{
closed = 1;
nodes = (
"350 0 LINE",
"350 465 LINE",
"278 465 LINE",
"278 181 LINE SMOOTH",
"278 101 OFFCURVE",
"237 54 OFFCURVE",
"191 54 CURVE SMOOTH",
"152 54 OFFCURVE",
"126 71 OFFCURVE",
"126 135 CURVE SMOOTH",
"126 465 LINE",
"53 465 LINE",
"53 130 LINE SMOOTH",
"53 27 OFFCURVE",
"98 -11 OFFCURVE",
"168 -11 CURVE SMOOTH",
"214 -11 OFFCURVE",
"255 8 OFFCURVE",
"280 54 CURVE",
"286 54 LINE",
"295 0 LINE"
);
},
{
closed = 1;
nodes = (
"313 530 LINE",
"313 593 LINE",
"91 593 LINE",
"91 530 LINE"
);
}
);
width = 403;
}
);
unicode = 016B;
},
{
glyphname = uogonek;
layers = (
{
layerId = "F40DB483-8E41-4DD8-98C6-54B37B54EF1F";
name = Regular;
paths = (
{
closed = 1;
nodes = (
"350 465 LINE",
"278 465 LINE",
"278 181 LINE SMOOTH",
"278 101 OFFCURVE",
"237 54 OFFCURVE",
"191 54 CURVE SMOOTH",
"152 54 OFFCURVE",
"126 71 OFFCURVE",
"126 135 CURVE SMOOTH",
"126 465 LINE",
"53 465 LINE",
"53 130 LINE SMOOTH",
"53 27 OFFCURVE",
"98 -11 OFFCURVE",
"168 -11 CURVE SMOOTH",
"214 -11 OFFCURVE",
"255 8 OFFCURVE",
"280 54 CURVE",
"286 54 LINE",
"295 0 LINE",
"301 0 LINE",
"295 4 LINE",
"276 -17 OFFCURVE",
"260 -42 OFFCURVE",
"260 -81 CURVE SMOOTH",
"260 -142 OFFCURVE",
"305 -161 OFFCURVE",
"343 -161 CURVE SMOOTH",
"361 -161 OFFCURVE",
"378 -156 OFFCURVE",
"397 -149 CURVE",
"397 -103 LINE",
"369 -103 LINE SMOOTH",
"339 -103 OFFCURVE",
"329 -80 OFFCURVE",
"329 -55 CURVE SMOOTH",
"329 -34 OFFCURVE",
"340 -13 OFFCURVE",
"350 0 CURVE"
);
}
);
width = 403;
}
);
unicode = 0173;
},
{
glyphname = uring;
layers = (
{
layerId = "F40DB483-8E41-4DD8-98C6-54B37B54EF1F";
name = Regular;
paths = (
{
closed = 1;
nodes = (
"350 0 LINE",
"350 465 LINE",
"278 465 LINE",
"278 181 LINE SMOOTH",
"278 101 OFFCURVE",
"237 54 OFFCURVE",
"191 54 CURVE SMOOTH",
"152 54 OFFCURVE",
"126 71 OFFCURVE",
"126 135 CURVE SMOOTH",
"126 465 LINE",
"53 465 LINE",
"53 130 LINE SMOOTH",
"53 27 OFFCURVE",
"98 -11 OFFCURVE",
"168 -11 CURVE SMOOTH",
"214 -11 OFFCURVE",
"255 8 OFFCURVE",
"280 54 CURVE",
"286 54 LINE",
"295 0 LINE"
);
},
{
closed = 1;
nodes = (
"155 667 OFFCURVE",
"117 629 OFFCURVE",
"117 583 CURVE SMOOTH",
"117 534 OFFCURVE",
"156 497 OFFCURVE",
"202 497 CURVE SMOOTH",
"248 497 OFFCURVE",
"286 535 OFFCURVE",
"286 583 CURVE SMOOTH",
"286 628 OFFCURVE",
"249 667 OFFCURVE",
"202 667 CURVE SMOOTH"
);
},
{
closed = 1;
nodes = (
"225 627 OFFCURVE",
"247 607 OFFCURVE",
"247 583 CURVE SMOOTH",
"247 558 OFFCURVE",
"225 537 OFFCURVE",
"202 537 CURVE SMOOTH",
"177 537 OFFCURVE",
"156 558 OFFCURVE",
"156 583 CURVE SMOOTH",
"156 607 OFFCURVE",
"177 627 OFFCURVE",
"202 627 CURVE SMOOTH"
);
}
);
width = 403;
}
);
unicode = 016F;
},
{
glyphname = utilde;
layers = (
{
layerId = "F40DB483-8E41-4DD8-98C6-54B37B54EF1F";
name = Regular;
paths = (
{
closed = 1;
nodes = (
"350 0 LINE",
"350 465 LINE",
"278 465 LINE",
"278 181 LINE SMOOTH",
"278 101 OFFCURVE",
"237 54 OFFCURVE",
"191 54 CURVE SMOOTH",
"152 54 OFFCURVE",
"126 71 OFFCURVE",
"126 135 CURVE SMOOTH",
"126 465 LINE",
"53 465 LINE",
"53 130 LINE SMOOTH",
"53 27 OFFCURVE",
"98 -11 OFFCURVE",
"168 -11 CURVE SMOOTH",
"214 -11 OFFCURVE",
"255 8 OFFCURVE",
"280 54 CURVE",
"286 54 LINE",
"295 0 LINE"
);
},
{
closed = 1;
nodes = (
"279 639 LINE",
"277 619 OFFCURVE",
"265 612 OFFCURVE",
"249 612 CURVE SMOOTH",
"215 612 OFFCURVE",
"186 639 OFFCURVE",
"148 639 CURVE SMOOTH",
"95 639 OFFCURVE",
"72 588 OFFCURVE",
"72 547 CURVE",
"124 547 LINE",
"126 568 OFFCURVE",
"138 575 OFFCURVE",
"154 575 CURVE SMOOTH",
"188 575 OFFCURVE",
"217 547 OFFCURVE",
"255 547 CURVE SMOOTH",
"309 547 OFFCURVE",
"331 598 OFFCURVE",
"331 639 CURVE"
);
}
);
width = 403;
}
);
unicode = 0169;
},
{
glyphname = v;
layers = (
{
layerId = "F40DB483-8E41-4DD8-98C6-54B37B54EF1F";
name = Regular;
paths = (
{
closed = 1;
nodes = (
"354 465 LINE",
"281 465 LINE",
"217 225 LINE SMOOTH",
"207 187 OFFCURVE",
"196 149 OFFCURVE",
"187 111 CURVE",
"183 111 LINE",
"172 150 OFFCURVE",
"163 188 OFFCURVE",
"152 227 CURVE SMOOTH",
"88 465 LINE",
"9 465 LINE",
"142 0 LINE",
"221 0 LINE"
);
}
);
width = 362;
}
);
unicode = 0076;
},
{
glyphname = w;
layers = (
{
anchors = (
{
name = top;
position = "{262, 465}";
}
);
layerId = "F40DB483-8E41-4DD8-98C6-54B37B54EF1F";
name = Regular;
paths = (
{
closed = 1;
nodes = (
"406 0 LINE",
"522 465 LINE",
"448 465 LINE",
"390 203 LINE SMOOTH",
"378 150 OFFCURVE",
"371 93 OFFCURVE",
"371 93 CURVE SMOOTH",
"368 93 LINE SMOOTH",
"368 93 OFFCURVE",
"362 156 OFFCURVE",
"354 203 CURVE SMOOTH",
"306 465 LINE",
"222 465 LINE",
"175 203 LINE SMOOTH",
"167 156 OFFCURVE",
"161 93 OFFCURVE",
"161 93 CURVE SMOOTH",
"157 93 LINE SMOOTH",
"157 93 OFFCURVE",
"148 165 OFFCURVE",
"139 203 CURVE SMOOTH",
"80 465 LINE",
"1 465 LINE",
"117 0 LINE",
"197 0 LINE",
"245 265 LINE SMOOTH",
"254 314 OFFCURVE",
"259 372 OFFCURVE",
"259 372 CURVE",
"263 372 LINE",
"263 372 OFFCURVE",
"268 313 OFFCURVE",
"277 265 CURVE SMOOTH",
"325 0 LINE"
);
}
);
width = 523;
}
);
unicode = 0077;
},
{
glyphname = wacute;
layers = (
{
layerId = "F40DB483-8E41-4DD8-98C6-54B37B54EF1F";
name = Regular;
paths = (
{
closed = 1;
nodes = (
"522 465 LINE",
"448 465 LINE",
"390 203 LINE SMOOTH",
"378 150 OFFCURVE",
"371 93 OFFCURVE",
"371 93 CURVE SMOOTH",
"368 93 LINE SMOOTH",
"368 93 OFFCURVE",
"362 156 OFFCURVE",
"354 203 CURVE SMOOTH",
"306 465 LINE",
"222 465 LINE",
"175 203 LINE SMOOTH",
"167 156 OFFCURVE",
"161 93 OFFCURVE",
"161 93 CURVE SMOOTH",
"157 93 LINE SMOOTH",
"157 93 OFFCURVE",
"148 165 OFFCURVE",
"139 203 CURVE SMOOTH",
"80 465 LINE",
"1 465 LINE",
"117 0 LINE",
"197 0 LINE",
"245 265 LINE SMOOTH",
"254 314 OFFCURVE",
"259 372 OFFCURVE",
"259 372 CURVE",
"263 372 LINE",
"263 372 OFFCURVE",
"268 313 OFFCURVE",
"277 265 CURVE SMOOTH",
"325 0 LINE",
"406 0 LINE"
);
},
{
closed = 1;
nodes = (
"364 639 LINE",
"285 639 LINE",
"209 522 LINE",
"271 522 LINE",
"365 636 LINE"
);
}
);
width = 523;
}
);
unicode = 1E83;
},
{
glyphname = wcircumflex;
layers = (
{
layerId = "F40DB483-8E41-4DD8-98C6-54B37B54EF1F";
name = Regular;
paths = (
{
closed = 1;
nodes = (
"406 0 LINE",
"522 465 LINE",
"448 465 LINE",
"390 203 LINE SMOOTH",
"378 150 OFFCURVE",
"371 93 OFFCURVE",
"371 93 CURVE SMOOTH",
"368 93 LINE SMOOTH",
"368 93 OFFCURVE",
"362 156 OFFCURVE",
"354 203 CURVE SMOOTH",
"306 465 LINE",
"222 465 LINE",
"175 203 LINE SMOOTH",
"167 156 OFFCURVE",
"161 93 OFFCURVE",
"161 93 CURVE SMOOTH",
"157 93 LINE SMOOTH",
"157 93 OFFCURVE",
"148 165 OFFCURVE",
"139 203 CURVE SMOOTH",
"80 465 LINE",
"1 465 LINE",
"117 0 LINE",
"197 0 LINE",
"245 265 LINE SMOOTH",
"254 314 OFFCURVE",
"259 372 OFFCURVE",
"259 372 CURVE",
"263 372 LINE",
"263 372 OFFCURVE",
"268 313 OFFCURVE",
"277 265 CURVE SMOOTH",
"325 0 LINE"
);
},
{
closed = 1;
nodes = (
"372 519 LINE",
"296 638 LINE",
"227 638 LINE",
"151 519 LINE",
"222 519 LINE",
"263 589 LINE",
"301 519 LINE"
);
}
);
width = 523;
}
);
unicode = 0175;
},
{
glyphname = wdieresis;
layers = (
{
layerId = "F40DB483-8E41-4DD8-98C6-54B37B54EF1F";
name = Regular;
paths = (
{
closed = 1;
nodes = (
"522 465 LINE",
"448 465 LINE",
"390 203 LINE SMOOTH",
"378 150 OFFCURVE",
"371 93 OFFCURVE",
"371 93 CURVE SMOOTH",
"368 93 LINE SMOOTH",
"368 93 OFFCURVE",
"362 156 OFFCURVE",
"354 203 CURVE SMOOTH",
"306 465 LINE",
"222 465 LINE",
"175 203 LINE SMOOTH",
"167 156 OFFCURVE",
"161 93 OFFCURVE",
"161 93 CURVE SMOOTH",
"157 93 LINE SMOOTH",
"157 93 OFFCURVE",
"148 165 OFFCURVE",
"139 203 CURVE SMOOTH",
"80 465 LINE",
"1 465 LINE",
"117 0 LINE",
"197 0 LINE",
"245 265 LINE SMOOTH",
"254 314 OFFCURVE",
"259 372 OFFCURVE",
"259 372 CURVE",
"263 372 LINE",
"263 372 OFFCURVE",
"268 313 OFFCURVE",
"277 265 CURVE SMOOTH",
"325 0 LINE",
"406 0 LINE"
);
},
{
closed = 1;
nodes = (
"233 639 LINE",
"156 639 LINE",
"156 555 LINE",
"233 555 LINE"
);
},
{
closed = 1;
nodes = (
"367 639 LINE",
"289 639 LINE",
"289 555 LINE",
"367 555 LINE"
);
}
);
width = 523;
}
);
unicode = 1E85;
},
{
glyphname = wgrave;
layers = (
{
layerId = "F40DB483-8E41-4DD8-98C6-54B37B54EF1F";
name = Regular;
paths = (
{
closed = 1;
nodes = (
"522 465 LINE",
"448 465 LINE",
"390 203 LINE SMOOTH",
"378 150 OFFCURVE",
"371 93 OFFCURVE",
"371 93 CURVE SMOOTH",
"368 93 LINE SMOOTH",
"368 93 OFFCURVE",
"362 156 OFFCURVE",
"354 203 CURVE SMOOTH",
"306 465 LINE",
"222 465 LINE",
"175 203 LINE SMOOTH",
"167 156 OFFCURVE",
"161 93 OFFCURVE",
"161 93 CURVE SMOOTH",
"157 93 LINE SMOOTH",
"157 93 OFFCURVE",
"148 165 OFFCURVE",
"139 203 CURVE SMOOTH",
"80 465 LINE",
"1 465 LINE",
"117 0 LINE",
"197 0 LINE",
"245 265 LINE SMOOTH",
"254 314 OFFCURVE",
"259 372 OFFCURVE",
"259 372 CURVE",
"263 372 LINE",
"263 372 OFFCURVE",
"268 313 OFFCURVE",
"277 265 CURVE SMOOTH",
"325 0 LINE",
"406 0 LINE"
);
},
{
closed = 1;
nodes = (
"239 639 LINE",
"158 639 LINE",
"157 636 LINE",
"254 522 LINE",
"314 522 LINE"
);
}
);
width = 523;
}
);
unicode = 1E81;
},
{
glyphname = x;
layers = (
{
layerId = "F40DB483-8E41-4DD8-98C6-54B37B54EF1F";
name = Regular;
paths = (
{
closed = 1;
nodes = (
"351 465 LINE",
"270 465 LINE",
"180 301 LINE",
"185 301 LINE",
"99 465 LINE",
"11 465 LINE",
"141 235 LINE",
"5 0 LINE",
"85 0 LINE",
"181 175 LINE",
"177 175 LINE",
"270 0 LINE",
"357 0 LINE",
"221 241 LINE"
);
}
);
width = 362;
}
);
unicode = 0078;
},
